<svg width="347" height="104" viewBox="0 0 347 104" fill="none" xmlns="http://www.w3.org/2000/svg">
<path d="M121.253 34.2439H131.441L153.033 69.3054V34.2439H162.438V83.9245H152.319L130.658 48.9358V83.9245H121.253V34.2439Z" fill="#909090"/>
<path d="M204.474 83.9245H195.711V78.3751C193.716 82.2804 189.656 84.4794 184.526 84.4794C176.403 84.4794 171.128 78.6595 171.128 70.2834V48.1519H179.893V68.4522C179.893 73.3494 182.887 76.7554 187.375 76.7554C192.292 76.7554 195.711 72.9229 195.711 67.6719V48.1519H204.474V83.9245Z" fill="#909090"/>
<path d="M234.974 83.3584L226.567 71.4343L218.157 83.3584H208.822L221.792 64.6918L209.821 47.5859H219.369L226.567 57.88L233.691 47.5859H243.31L231.266 64.6918L244.237 83.3584H234.974Z" fill="#909090"/>
<path d="M262.049 37.3647V48.1512H272.024V55.4625H262.049V73.2204C262.049 73.8167 262.285 74.3887 262.709 74.8109C263.132 75.2329 263.706 75.4705 264.305 75.4713H272.024V83.9098H266.251C258.413 83.9098 253.285 79.3663 253.285 71.4238V55.4693H246.23V48.1512H250.655C252.721 48.1512 253.921 46.9269 253.921 44.9013V37.3647H262.049Z" fill="#909090"/>
<path d="M294.119 72.6732V34.2439H303.521V69.7285C303.521 79.3117 298.889 83.9245 291.052 83.9245H280.107V75.4861H291.296C292.044 75.4861 292.762 75.1897 293.292 74.6622C293.823 74.1347 294.119 73.4192 294.119 72.6732Z" fill="#909090"/>
<path d="M309.155 67.2445H318.208C318.708 72.7938 322.415 76.3281 328.4 76.3281C333.745 76.3281 337.453 74.2019 337.453 69.8006C337.453 59.1528 310.641 66.5335 310.641 47.5131C310.648 39.352 317.703 33.6814 327.84 33.6814C338.386 33.6814 345.51 39.7127 345.945 49.0113H336.941C336.516 44.683 333.111 41.7729 327.822 41.7729C322.905 41.7729 319.841 44.0447 319.841 47.5201C319.841 58.5216 346.999 50.2947 346.999 69.6654C346.999 78.8912 339.375 84.4995 328.403 84.4995C317.073 84.4995 309.664 77.6841 309.165 67.2515" fill="#909090"/>
<path fill-rule="evenodd" clip-rule="evenodd" d="M46.9131 23.1071C44.2826 18.5134 37.7059 18.5134 35.0752 23.1071L6.40536 73.1726C3.77471 77.7663 7.06301 83.5086 12.3243 83.5086H34.7057C32.4575 81.5132 31.6249 78.0612 33.3262 75.0994L55.0396 37.298L46.9131 23.1071Z" fill="#80EEC0"/>
<path d="M65.0789 34.089C67.2561 30.3304 72.6988 30.3304 74.8759 34.089L98.6027 75.0515C100.78 78.8101 98.0584 83.5083 93.7043 83.5083H46.2505C41.8964 83.5083 39.1751 78.8101 41.3521 75.0515L65.0789 34.089Z" fill="#00DC82"/>
</svg>
