<svg width="190" height="38" viewBox="0 0 190 38" fill="none" xmlns="http://www.w3.org/2000/svg">
<path d="M24.3689 15.2021L43.3563 19.9147C46.6552 18.6226 48.6467 16.9807 48.6467 15.2021V7.60104C48.6467 3.42047 37.7772 0 24.3233 0C10.8695 0 0 3.39006 0 7.60104V15.2021C0 19.3827 10.8695 22.8031 24.3233 22.8031V15.2021H24.3689Z" fill="#919191"/>
<path d="M43.3695 27.5005L24.3821 22.7878V30.3889L43.3695 35.1167C46.6683 33.8246 48.6598 32.1827 48.6598 30.3889V22.7878C48.6598 24.5665 46.6683 26.2083 43.3695 27.5005Z" fill="#919191"/>
<path d="M0.105957 22.7878V30.3889C0.105957 34.5695 10.9754 37.9899 24.4293 37.9899V30.3889C10.9754 30.3585 0.105957 26.9684 0.105957 22.7878Z" fill="#919191"/>
<path d="M69.5027 29.6288C68.1363 29.6515 66.7794 29.3987 65.5129 28.8853C64.2465 28.3719 63.0964 27.6086 62.1316 26.6408C61.1667 25.6731 60.4067 24.5209 59.8971 23.2529C59.3874 21.9849 59.1385 20.6273 59.1653 19.261C59.1423 17.8794 59.399 16.5074 59.9199 15.2276C60.4408 13.9478 61.2153 12.7866 62.1966 11.8138C63.1779 10.841 64.3458 10.0767 65.6301 9.56696C66.9144 9.05721 68.2886 8.8125 69.6699 8.84755C71.1321 8.76695 72.5949 8.99614 73.9624 9.52009C75.33 10.044 76.5714 10.8509 77.6054 11.888L74.793 15.1868C73.441 13.7798 71.59 12.9608 69.6395 12.9065C68.8403 12.9238 68.0526 13.1013 67.3232 13.4285C66.5938 13.7557 65.9375 14.2259 65.3931 14.8114C64.8488 15.3968 64.4275 16.0856 64.1541 16.8369C63.8808 17.5881 63.761 18.3866 63.8019 19.185C63.7547 19.987 63.8698 20.7904 64.1402 21.547C64.4107 22.3036 64.831 22.9979 65.376 23.5883C65.921 24.1787 66.5794 24.6531 67.312 24.9831C68.0446 25.3131 68.8362 25.492 69.6395 25.509C70.6339 25.5098 71.6178 25.3064 72.5304 24.9116C73.443 24.5167 74.2648 23.9388 74.945 23.2135L77.7726 26.0563C76.756 27.2407 75.4829 28.178 74.05 28.797C72.6171 29.416 71.062 29.7005 69.5027 29.6288Z" fill="#919191"/>
<path d="M89.8748 29.3248V27.6526C89.292 28.3073 88.5709 28.8242 87.7638 29.166C86.9566 29.5078 86.0836 29.6659 85.2078 29.6288C82.3042 29.6288 79.9175 27.9566 79.9175 24.901C79.9175 21.5261 82.4714 19.9755 86.1351 19.9755C87.4196 19.9652 88.6958 20.1813 89.9052 20.614V20.3556C89.9052 18.5465 88.7803 17.528 86.5912 17.528C85.1317 17.5302 83.6865 17.8141 82.3346 18.3641L81.2401 15.0197C83.1169 14.1573 85.1646 13.7312 87.2297 13.7731C92.0031 13.7731 94.101 16.251 94.101 20.4316V29.3248H89.8748ZM89.9661 23.1072C89.0672 22.7077 88.0915 22.5105 87.1081 22.5295C85.2382 22.5295 84.0676 23.2744 84.0676 24.6578C84.0676 25.8435 85.0406 26.5276 86.4544 26.5276C88.4915 26.5276 89.8748 25.4179 89.8748 23.8217L89.9661 23.1072Z" fill="#919191"/>
<path d="M107.8 29.3248L103.832 23.016L102.312 24.6274V29.3248H97.8726V8.34595H102.312V19.5499L107.435 13.9403H112.664L106.796 20.0211L112.877 29.3704H107.8V29.3248Z" fill="#919191"/>
<path d="M128.518 23.1377H117.786C117.917 24.0254 118.378 24.831 119.077 25.3944C119.775 25.9577 120.66 26.2375 121.556 26.1782C122.25 26.1948 122.94 26.0685 123.584 25.807C124.227 25.5454 124.81 25.1543 125.296 24.658L127.804 26.8775C126.735 28.1404 125.307 29.0479 123.709 29.4794C122.112 29.9109 120.421 29.846 118.862 29.2931C117.302 28.7403 115.948 27.7258 114.979 26.3846C114.01 25.0434 113.473 23.439 113.438 21.7847C113.391 20.7539 113.552 19.7242 113.912 18.7571C114.272 17.79 114.823 16.9054 115.533 16.1561C116.242 15.4069 117.096 14.8083 118.042 14.3963C118.988 13.9843 120.007 13.7672 121.039 13.7581C126.192 13.7581 128.549 17.7562 128.549 22.1344C128.564 22.4688 128.549 22.7273 128.518 23.1377ZM121.069 17.0569C120.2 17.0792 119.371 17.4304 118.75 18.0399C118.13 18.6493 117.763 19.4715 117.725 20.3406H124.323C124.303 19.4841 123.951 18.6689 123.341 18.0675C122.731 17.466 121.911 17.1254 121.054 17.1177L121.069 17.0569Z" fill="#919191"/>
<path d="M140.087 23.2745H136.712V29.3554H132.288V9.16699H140.512C145.316 9.16699 148.22 12.0098 148.22 16.1295C148.22 20.8574 144.602 23.2745 140.087 23.2745ZM143.735 16.2208C143.735 14.2293 142.352 13.1803 140.132 13.1803H136.712V19.3372H140.224C140.658 19.3928 141.1 19.3561 141.52 19.2295C141.939 19.1028 142.328 18.889 142.659 18.602C142.991 18.3151 143.258 17.9614 143.443 17.5642C143.629 17.167 143.728 16.7351 143.735 16.2968V16.2208Z" fill="#919191"/>
<path d="M164.107 29.325V21.2222H155.929V29.325H151.505V9.16699H155.929V17.1329H164.107V9.16699H168.546V29.325H164.107Z" fill="#919191"/>
<path d="M181.18 23.2745H177.82V29.3554H173.381V9.16699H181.606C186.41 9.16699 189.313 12.0098 189.313 16.1295C189.313 20.8574 185.695 23.2745 181.18 23.2745ZM184.829 16.2208C184.829 14.2293 183.445 13.1803 181.226 13.1803H177.805V19.3372H181.362C181.797 19.3928 182.239 19.3561 182.659 19.2295C183.078 19.1028 183.467 18.889 183.798 18.602C184.129 18.3151 184.397 17.9614 184.582 17.5642C184.767 17.167 184.867 16.7351 184.874 16.2968L184.829 16.2208Z" fill="#919191"/>
</svg>
