<svg width="184" height="46" viewBox="0 0 184 46" fill="none" xmlns="http://www.w3.org/2000/svg">
<g clip-path="url(#clip0)">
<path d="M112.049 17.2146H106.38V27.832C106.38 30.9244 105.04 33.5014 101.947 33.5014C98.8547 33.5014 97.5147 31.0275 97.5147 27.832V17.3177H91.8452V27.935C91.8452 34.1199 95.7623 39.0678 101.947 39.0678C108.132 39.0678 112.049 34.1199 112.049 27.935V17.2146Z" fill="#919191"/>
<path d="M168.95 10.8235H163.281V38.4493H168.95V10.8235Z" fill="#919191"/>
<path d="M87.2067 17.0085C82.3618 15.8746 79.2694 20.7194 79.1663 21.0287C79.0632 21.1318 79.0632 21.2349 78.8571 21.2349C78.6509 21.2349 78.6509 21.0287 78.6509 21.0287L78.0324 17.3178H72.9814V38.4494H78.6509V27.0074C78.6509 26.0797 81.1249 21.5441 86.0728 22.7811C88.5467 23.3996 89.5775 24.4304 89.5775 24.4304V18.0393C88.6498 17.4208 88.0313 17.2147 87.2067 17.0085Z" fill="#919191"/>
<path d="M125.347 22.3686C128.439 22.3686 131.016 24.9457 131.016 28.0381C131.016 31.1305 128.439 33.7076 125.347 33.7076C122.254 33.7076 119.677 31.1305 119.677 28.0381C119.677 24.9457 122.151 22.3686 125.347 22.3686ZM119.78 45.3557V37.7277V34.8415C119.78 34.8415 119.78 34.6353 119.987 34.6353C120.193 34.6353 120.193 34.7384 120.296 34.8415C120.708 35.8723 123.079 39.9955 128.336 38.7585C133.078 37.4185 136.48 33.0891 136.48 28.0381C136.48 21.8532 131.429 16.8022 125.244 16.8022C119.059 16.8022 114.008 21.8532 114.008 28.0381V45.3557H119.78Z" fill="#919191"/>
<path d="M155.446 28.0381C155.446 31.1305 152.869 33.7076 149.777 33.7076C146.684 33.7076 144.107 31.1305 144.107 28.0381C144.107 24.9457 146.684 22.3686 149.777 22.3686C152.972 22.3686 155.446 24.9457 155.446 28.0381ZM155.343 38.4493H161.013V28.0381C161.013 21.8532 155.962 16.8022 149.777 16.8022C143.592 16.8022 138.541 21.8532 138.541 28.0381C138.541 33.1922 141.943 37.5216 146.684 38.7585C151.942 39.9955 154.312 35.9754 154.725 34.8415C154.725 34.7384 154.828 34.6353 155.034 34.6353C155.24 34.6353 155.24 34.8415 155.24 34.8415" fill="#919191"/>
<path d="M56.7977 15.5653H54.5299V33.6045L56.9007 33.7076C61.7456 33.7076 64.838 33.2952 64.838 24.6364C64.7349 16.2868 62.0548 15.5653 56.7977 15.5653ZM55.2514 38.4493H48.7573V10.7205H55.6638C64.0134 10.7205 70.4044 12.2667 70.4044 24.5333C70.5075 36.6969 63.7041 38.4493 55.2514 38.4493Z" fill="#919191"/>
<path d="M24.5333 9.68964C21.3378 6.49412 18.2454 3.40168 17.4207 0C16.493 3.40168 13.4006 6.49412 10.205 9.68964C5.4633 14.4314 0 19.8947 0 28.0381C0 37.6246 7.83417 45.4588 17.4207 45.4588C27.0073 45.4588 34.8415 37.6246 34.8415 28.0381C34.7384 19.8947 29.3781 14.4314 24.5333 9.68964ZM7.42185 32.0583C6.39104 32.0583 2.37087 25.2549 9.68964 18.0392L14.5345 23.2964C14.5345 23.2964 14.8437 23.6056 14.5345 23.9148C13.4006 25.0487 8.45266 29.9966 7.83417 31.749C7.73109 32.1613 7.52493 32.0583 7.42185 32.0583ZM17.4207 41.0263C14.1221 41.0263 11.442 38.3462 11.442 35.0476C11.442 33.5014 12.0605 32.1613 12.8852 31.1305C13.916 29.7905 17.4207 26.0795 17.4207 26.0795C17.4207 26.0795 20.8224 29.7905 21.8532 31.1305C22.781 32.1613 23.3994 33.6045 23.3994 35.0476C23.3994 38.3462 20.7193 41.0263 17.4207 41.0263ZM28.8627 31.3367C28.7597 31.6459 28.4504 32.0583 28.0381 32.0583C27.3165 32.0583 27.2134 31.749 26.698 30.9244C25.5641 29.2751 15.5653 18.8639 13.7098 16.8022C12.0605 15.0499 13.5036 13.8129 14.1221 13.0913C14.9468 12.2667 17.3176 9.8958 17.3176 9.8958C17.3176 9.8958 24.4303 16.6992 27.4196 21.2347C30.409 25.7703 29.4812 29.9966 28.8627 31.3367Z" fill="#919191"/>
</g>
<defs>
<clipPath id="clip0">
<rect width="184" height="45.4588" fill="white"/>
</clipPath>
</defs>
</svg>
