<svg width="130" height="28" viewBox="0 0 130 28" fill="none" xmlns="http://www.w3.org/2000/svg">
<path d="M16.745 8.39217C15.5293 4.90197 19.1372 1.17648 22.1175 1.05884C23.8823 1.9608 25.4117 4.35295 25.3332 7.56864C25.0979 11.5686 22.196 14.9804 19.0587 18.1569C18.9019 14.3137 18.0783 11.8432 16.745 8.39217Z" fill="black"/>
<path d="M9.76462 27.2549C9.25481 23.3726 10.9019 20.0393 12.4705 18.0393C13.2156 17.0981 13.8038 16.2353 14.2744 15.4118C15.1372 15.7647 17.3725 16.9412 18.6274 18.8236C18.4313 21.5295 16.3921 26.5098 9.76462 27.2549Z" fill="black"/>
<path d="M7.25479 12.4706C1.96067 11.0588 0.666557 6.50977 0.901851 3.49016C6.03911 1.45095 11.5293 3.52938 14.745 7.8431C16.9803 10.8627 18.392 14.7451 18.6666 18.1568C17.1371 16.196 15.2156 15.0588 12.745 14.1568C11.0195 13.5294 9.45087 13.1372 7.25479 12.4706Z" fill="black"/>
<path d="M55.49 7.41179V6.78434C55.49 6.62748 55.4115 6.50983 55.137 6.47061C54.7841 6.4314 54.1566 6.35297 53.5292 6.35297C51.8429 6.35297 50.7449 6.9412 50.7449 8.86277V19.6471C50.7449 19.8432 50.9017 20 51.0978 20H51.9606C52.1566 20 52.3135 19.8432 52.3135 19.6471V11.3726H55.137C55.3331 11.3726 55.49 11.2157 55.49 11.0588V10.4314C55.49 10.2353 55.3331 10.1177 55.137 10.1177H52.3135V8.86277C52.3135 7.80395 52.5096 7.64708 53.49 7.64708H55.0978C55.3723 7.64708 55.49 7.56865 55.49 7.41179ZM61.2939 11.0981V10.2745C61.2939 10.0392 61.137 10 60.9017 10C59.4115 10 58.1566 10.0392 57.137 10.5098C56.941 10.5883 56.8233 10.7059 56.8233 10.9412V19.6863C56.8233 19.8824 56.9802 20.0392 57.137 20.0392H58.0782C58.2743 20.0392 58.3919 19.8432 58.3919 19.6863V11.5687C59.0586 11.4118 59.6861 11.3726 60.9017 11.3726C61.2547 11.3726 61.2939 11.2941 61.2939 11.0981ZM69.0978 19.3334V10.8236C69.0978 10.5883 69.0586 10.4706 68.7057 10.3922C67.7645 10.1569 66.4704 9.96081 65.4115 9.96081C62.7057 9.96081 61.49 11.6863 61.49 14.3922V15.6471C61.49 18.353 62.7449 20.0785 65.4115 20.0785C66.5096 20.0785 67.7645 19.8824 68.7057 19.6471C69.0194 19.6471 69.0978 19.5687 69.0978 19.3334ZM67.49 18.6275C66.9802 18.7059 66.1566 18.8236 65.3723 18.8236C63.6076 18.8236 63.0194 17.6079 63.0194 15.7255V14.4706C63.0194 12.549 63.5684 11.3726 65.3723 11.3726C66.1174 11.3726 66.9802 11.451 67.49 11.5687V18.6275ZM82.1959 19.6471V13.1373C82.1959 11.2941 81.137 10 78.9802 10H78.5488C77.4508 10 76.7449 10.1961 76.1959 10.6275C75.6468 10.1177 74.941 10 73.8429 10H73.4115C71.2547 10 70.1959 11.2941 70.1959 13.1373V19.6471C70.1959 19.8432 70.3135 20 70.5096 20H71.4508C71.6468 20 71.7645 19.8432 71.7645 19.6471V13.1373C71.7645 11.6079 72.4311 11.3726 73.3723 11.3726H73.8037C74.9409 11.3726 75.3331 11.5687 75.3331 12.5883V19.6471C75.3331 19.8432 75.4508 20 75.6468 20H76.588C76.7841 20 76.9017 19.8432 76.9017 19.6471V12.5883C76.9017 11.5687 77.2939 11.3726 78.4311 11.3726H78.8625C79.8037 11.3726 80.4704 11.6079 80.4704 13.1373V19.6471C80.4704 19.8432 80.588 20 80.7841 20H81.7253C82.0782 20.0392 82.1959 19.8432 82.1959 19.6471ZM91.0194 15.1765V14.1961C91.0194 11.6471 89.686 10 87.0586 10C84.4704 10 83.0586 11.6471 83.0586 14.1961V15.8039C83.0586 19.1373 85.0586 20.1177 87.137 20.1177C88.3527 20.1177 89.3331 20 90.3527 19.8039C90.6272 19.7647 90.7057 19.6079 90.7057 19.3726V18.8236C90.7057 18.6275 90.5488 18.5883 90.4311 18.5883C90.3919 18.5883 90.3919 18.5883 90.3527 18.5883C89.5292 18.7059 88.1959 18.7843 87.137 18.7843C85.49 18.7843 84.6272 18 84.6272 15.8432V15.6079H90.6664C90.8625 15.5687 91.0194 15.4118 91.0194 15.1765ZM89.4115 14.3922H84.6664V14.2353C84.6664 12.2745 85.5292 11.4118 87.0586 11.4118C88.6272 11.4118 89.4115 12.1961 89.4115 14.2353V14.3922ZM104.117 16.1177V10.5098C104.117 10.3138 103.961 10.1569 103.764 10.1569H102.902C102.706 10.1569 102.549 10.3138 102.549 10.5098V16.1177C102.549 18.0785 101.804 18.7843 100.353 18.7843C99.9213 18.7843 99.4507 18.6667 98.9017 18.549V10.5098C98.9017 10.3138 98.7449 10.1569 98.5488 10.1569H97.6468C97.4508 10.1569 97.2939 10.3138 97.2939 10.5098V18.5883C96.7841 18.7059 96.3135 18.8236 95.8429 18.8236C94.3135 18.8236 93.6468 18.1177 93.6468 16.1569V10.5098C93.6468 10.3138 93.49 10.1569 93.2939 10.1569H92.4311C92.2351 10.1569 92.0782 10.3138 92.0782 10.5098V16.1177C92.0782 19.2941 93.8429 20.1569 95.7253 20.1569C96.6272 20.1569 97.3723 20 98.1174 19.7255C98.8625 20 99.6076 20.1569 100.51 20.1569C102.353 20.1569 104.117 19.2941 104.117 16.1177ZM113.333 15.7647V14.3922C113.333 11.7647 111.961 10 109.333 10C106.706 10 105.333 11.7255 105.333 14.3922V15.7647C105.333 18.3922 106.666 20.1569 109.333 20.1569C112 20.1569 113.333 18.3922 113.333 15.7647ZM111.764 15.7647C111.764 17.6079 111.019 18.7843 109.333 18.7843C107.647 18.7843 106.941 17.6079 106.941 15.7647V14.3922C106.941 12.549 107.686 11.3726 109.333 11.3726C111.019 11.3726 111.764 12.549 111.764 14.3922V15.7647ZM119.019 11.0981V10.2745C119.019 10.0392 118.863 10 118.627 10C117.137 10 115.882 10.0392 114.863 10.5098C114.666 10.5883 114.549 10.7059 114.549 10.9412V19.6863C114.549 19.8824 114.706 20.0392 114.863 20.0392H115.804C116 20.0392 116.117 19.8432 116.117 19.6863V11.5687C116.784 11.4118 117.412 11.3726 118.627 11.3726C119.019 11.3726 119.019 11.2941 119.019 11.0981ZM127.098 19.8039C127.098 19.7647 127.098 19.6863 127.059 19.6471L123.059 14.8236L127.019 10.549C127.059 10.5098 127.098 10.4314 127.098 10.353C127.098 10.2353 127.019 10.1569 126.823 10.1569H125.568C125.372 10.1569 125.333 10.1961 125.215 10.3138L121.608 14.353V6.86277C121.608 6.66669 121.451 6.50983 121.255 6.50983H120.392C120.196 6.50983 120.039 6.66669 120.039 6.86277V19.6471C120.039 19.8432 120.196 20 120.392 20H121.255C121.451 20 121.608 19.8432 121.608 19.6471V15.3334L125.176 19.7647C125.333 19.9608 125.372 20 125.608 20H126.902C127.059 20.0392 127.098 19.9216 127.098 19.8039Z" fill="black"/>
<path d="M48.1566 19.6471V8.19608C48.1566 8 47.9998 7.84314 47.8037 7.84314H46.1566C45.9606 7.84314 45.8037 8 45.8037 8.19608V19.6078C45.8037 19.8039 45.9606 20 46.1566 20H47.8037C47.9998 20.0392 48.1566 19.8431 48.1566 19.6471Z" fill="black"/>
<path d="M43.7646 19.6471V8.19613C43.7646 8.00005 43.6078 7.84319 43.4117 7.84319H41.7646C41.5685 7.84319 41.4117 8.00005 41.4117 8.19613V19.6079C41.4117 19.804 41.5685 20.0001 41.7646 20.0001H43.4117C43.6078 20.0393 43.7646 19.8432 43.7646 19.6471ZM42.5882 4.6275C43.2548 4.6275 43.8431 5.17652 43.8431 5.8824C43.8431 6.54907 43.294 7.13731 42.5882 7.13731C41.8823 7.13731 41.3333 6.58829 41.3333 5.8824C41.3333 5.17652 41.8823 4.6275 42.5882 4.6275ZM46.9803 4.6275C47.647 4.6275 48.2352 5.17652 48.2352 5.8824C48.2352 6.54907 47.6862 7.13731 46.9803 7.13731C46.2744 7.13731 45.7254 6.58829 45.7254 5.8824C45.7254 5.17652 46.2744 4.6275 46.9803 4.6275Z" fill="black"/>
<path d="M39.4116 20.0001V7.92163C38.4704 7.92163 37.0586 8.54908 37.0194 9.80398V18.0785C36.5096 18.1569 35.7253 18.2354 35.2939 18.2354C33.7645 18.2354 33.3724 17.1373 33.3724 15.6471V9.76477C33.2939 8.31379 31.6469 7.92163 30.9802 7.96085V15.6863C30.9802 18.5099 32.392 20.1961 35.2939 20.1961C35.7253 20.1961 36.6273 20.0785 37.0194 20.0001V20.1569C37.3724 22.5099 34.5096 21.6471 32.9802 21.451C31.8429 21.451 31.0586 22.3922 30.8625 23.451C31.5292 23.6471 33.7253 23.9608 35.2547 24.0785C37.9998 24.0393 39.4116 22.5491 39.4116 20.0001Z" fill="black"/>
</svg>
