<svg width="190" height="48" viewBox="0 0 190 48" fill="none" xmlns="http://www.w3.org/2000/svg">
<path d="M23.572 47.144C36.5905 47.144 47.144 36.5905 47.144 23.572C47.144 10.5535 36.5905 0 23.572 0C10.5535 0 0 10.5535 0 23.572C0 36.5905 10.5535 47.144 23.572 47.144Z" fill="#919191"/>
<path d="M33.8783 8.72189C31.4843 8.80586 29.3926 10.1259 27.8384 11.9514C26.1145 13.9532 24.9691 16.3287 24.1428 18.7521C22.6658 17.5412 21.5263 15.9744 19.1567 15.2909C17.3237 14.7644 15.4008 14.981 13.6315 16.2993C12.7927 16.9257 12.2158 17.8721 11.9412 18.7613C11.2291 21.0739 12.6877 23.1319 13.3511 23.8717L14.7995 25.4218C15.0985 25.7266 15.8164 26.521 15.4662 27.6588C15.0859 28.8973 13.5946 29.6975 12.0638 29.2265C11.3803 29.0149 10.3978 28.5069 10.6187 27.7914C10.7094 27.4975 10.9193 27.2767 11.0326 27.0256C11.1359 26.8073 11.1846 26.6444 11.2157 26.5487C11.4953 25.6351 11.1133 24.4478 10.1358 24.1463C9.22309 23.8675 8.29103 24.0892 7.92912 25.2623C7.51767 26.5982 8.15668 29.0174 11.5768 30.0729C15.5838 31.3047 18.9737 29.1215 19.454 26.2766C19.7571 24.4948 18.951 23.1697 17.4773 21.466L16.2766 20.1384C15.5485 19.4104 15.2991 18.1719 16.0515 17.2205C16.6872 16.4169 17.5915 16.0743 19.0753 16.4765C21.2392 17.0626 22.204 18.5648 23.8128 19.7765C23.1486 21.9555 22.7137 24.1429 22.3215 26.1062L22.0806 27.5672C20.9293 33.6013 20.0518 36.9139 17.7695 38.8158C17.3102 39.1441 16.6519 39.6329 15.6619 39.6673C15.1421 39.6841 14.975 39.3264 14.9666 39.1702C14.9549 38.8058 15.263 38.6387 15.4671 38.4749C15.7719 38.3078 16.2329 38.0324 16.2018 37.1499C16.1674 36.1036 15.3025 35.1984 14.053 35.2412C13.1151 35.2723 11.6884 36.1531 11.7422 37.7687C11.7976 39.4347 13.351 40.685 15.6938 40.6044C16.9466 40.5632 19.7428 40.0535 22.4979 36.7779C25.7047 33.0219 26.6023 28.7168 27.2774 25.5662L28.0298 21.4072C28.4488 21.4568 28.8955 21.4912 29.3826 21.5021C33.377 21.5877 35.3746 19.5179 35.4057 18.0132C35.425 17.1021 34.8079 16.2061 33.943 16.2263C33.3249 16.2439 32.5474 16.6554 32.361 17.5102C32.1788 18.3499 33.6323 19.1073 32.4962 19.8437C31.6892 20.3668 30.2424 20.7346 28.2053 20.4357L28.5765 18.3877C29.3313 14.5049 30.2651 9.72869 33.8027 9.61365C34.0605 9.60022 35.0043 9.62541 35.0262 10.2485C35.032 10.4567 34.9808 10.5105 34.7373 10.9874C34.4879 11.3585 34.3947 11.6751 34.4056 12.0395C34.4409 13.0304 35.1941 13.682 36.2849 13.6434C37.7434 13.5955 38.1633 12.1756 38.1398 11.445C38.0793 9.72785 36.2706 8.64464 33.8783 8.72189Z" fill="#2B2B2B"/>
<path d="M142.923 16.9402C148.36 16.9402 152.003 20.8675 152.003 26.3003C152.003 31.4199 148.288 35.6596 142.923 35.6596C137.526 35.6596 133.811 31.4199 133.811 26.3003C133.811 20.8675 137.454 16.9402 142.923 16.9402ZM142.923 32.9994C146.78 32.9994 148.497 29.4928 148.497 26.3003C148.497 22.9012 146.428 19.6062 142.923 19.6062C139.383 19.6062 137.314 22.9012 137.314 26.3003C137.314 29.4928 139.033 32.9994 142.923 32.9994Z" fill="#919191"/>
<path d="M133.359 18.6044V17.3608H128.625V15.6613C128.625 13.2421 128.977 11.4166 131.814 11.4166C131.866 11.4166 131.922 11.4216 131.976 11.4241C131.982 11.4241 131.981 11.4149 131.987 11.4149C132.775 11.472 133.432 10.8313 133.475 10.0437L133.532 8.96383C132.867 8.85803 132.164 8.75391 131.324 8.75391C126.451 8.75391 125.33 11.5938 125.33 15.9417V17.3608H121.119V18.7488C121.227 19.4685 121.844 20.0235 122.595 20.0235C122.599 20.0235 122.603 20.0268 122.607 20.0268H125.33V35.2413H127.144C127.148 35.2413 127.146 35.2413 127.15 35.2413C127.906 35.2413 128.522 34.672 128.624 33.9474V20.0268H131.921C132.697 20.0008 133.321 19.3803 133.359 18.6044Z" fill="#919191"/>
<path d="M89.463 17.3608C89.458 17.3608 89.4538 17.365 89.4454 17.365C88.7518 17.365 88.0792 17.842 87.7853 18.4877L83.2517 32.1563H83.1812L78.7468 18.4944C78.4562 17.8453 77.7811 17.3642 77.0825 17.3642C77.0741 17.3642 77.0716 17.36 77.0649 17.36H74.7666L80.8317 34.0481C81.0433 34.6451 81.4649 35.5571 81.4649 35.9408C81.4649 36.2935 80.4824 40.3576 77.5359 40.3576C77.4637 40.3576 77.3898 40.3492 77.3184 40.3442C76.5669 40.303 75.9993 40.8278 75.8742 41.6365L75.7843 42.7776C76.3805 42.8826 76.9784 43.0237 78.0297 43.0237C82.3759 43.0237 83.6733 39.0594 84.9017 35.6251L91.4909 17.3591H89.463V17.3608Z" fill="#919191"/>
<path d="M68.5146 20.9925C65.794 19.6003 62.8156 18.654 62.7636 15.8527C62.772 12.8777 65.506 12.0959 67.612 12.0984C67.622 12.0968 67.6304 12.0968 67.6355 12.0968C68.5507 12.0968 69.2821 12.1875 69.9967 12.3445C70.0059 12.3445 70.0043 12.3327 70.0152 12.3327C70.7709 12.3881 71.4049 11.7978 71.493 11.0539L71.5535 9.97317C70.1722 9.63058 68.7288 9.45508 67.4726 9.45508C62.892 9.48363 59.4904 11.7886 59.4795 16.1878C59.4845 20.0336 62.0758 21.5241 64.8653 22.8743C67.5994 24.1893 70.5929 25.2741 70.6189 28.449C70.6038 31.76 67.4079 32.9801 65.2054 32.9851C63.9173 32.9801 62.5192 32.6601 61.3403 32.2881C60.6022 32.1664 59.9967 32.818 59.9002 33.6804L59.8011 34.6427C61.4209 35.1658 63.081 35.6234 64.7511 35.6234C64.7511 35.6234 64.7528 35.6234 64.7545 35.6234C64.7587 35.6234 64.7646 35.6234 64.7696 35.6234C69.9018 35.5856 73.8904 33.5393 73.9063 28.2248C73.9005 24.1254 71.2898 22.4032 68.5146 20.9925Z" fill="#919191"/>
<path d="M118.356 35.2413C118.359 35.2413 118.359 35.2413 118.36 35.2413C119.071 35.2413 119.665 34.7408 119.814 34.0749V23.7769C119.814 19.8849 118.17 16.9392 113.609 16.9392C111.997 16.9392 109.298 17.8528 108.071 20.4114C107.125 17.9922 105.056 16.9392 102.99 16.9392C100.359 16.9392 98.5703 17.8855 97.309 19.9554H97.2385V18.8436C97.2284 18.0249 96.5659 17.3641 95.7464 17.3641C95.7388 17.3641 95.7354 17.3599 95.7304 17.3599H94.1543V35.2404H95.9378C95.9403 35.2404 95.9403 35.2404 95.942 35.2404C96.7683 35.2404 97.4367 34.5695 97.4367 33.7449C97.4367 33.7222 97.4442 33.7139 97.4518 33.6987V26.2296C97.4518 22.9002 98.7827 19.6052 102.147 19.6052C104.81 19.6052 105.34 22.3737 105.34 24.583V35.2396H107.148C107.149 35.2396 107.149 35.2396 107.153 35.2396C107.934 35.2396 108.563 34.6392 108.632 33.8768V26.2296C108.632 22.9002 109.966 19.6052 113.33 19.6052C115.995 19.6052 116.521 22.3737 116.521 24.583V35.2396H118.356V35.2413Z" fill="#919191"/>
<path d="M169.283 35.2413C169.285 35.2413 169.285 35.2413 169.287 35.2413C170.091 35.2413 170.738 34.6065 170.776 33.8113V24.6182C170.776 19.816 168.705 16.9392 164.078 16.9392C161.589 16.9392 159.207 18.1677 158.222 20.2023H158.154V18.8663C158.154 18.8646 158.15 18.8646 158.15 18.8613C158.15 18.0325 157.479 17.3641 156.656 17.3641C156.647 17.3641 156.646 17.3599 156.64 17.3599H154.962V35.2404H156.773C156.773 35.2404 156.773 35.2404 156.776 35.2404C157.561 35.2404 158.196 34.63 158.257 33.8608V26.966C158.257 22.6198 159.941 19.6052 163.692 19.6052C166.57 19.7791 167.477 21.8111 167.477 25.9844V35.2396H169.283V35.2413Z" fill="#919191"/>
<path d="M187.024 17.3608C187.016 17.3608 187.012 17.365 187.006 17.365C186.311 17.365 185.638 17.842 185.345 18.4877L180.813 32.1563H180.739L176.304 18.4944C176.013 17.8453 175.338 17.3642 174.641 17.3642C174.635 17.3642 174.63 17.36 174.624 17.36H172.326L178.392 34.0481C178.602 34.6451 179.026 35.5571 179.026 35.9408C179.026 36.2935 178.043 40.3576 175.095 40.3576C175.024 40.3576 174.952 40.3492 174.878 40.3442C174.126 40.303 173.561 40.8278 173.432 41.6365L173.344 42.7776C173.939 42.8826 174.538 43.0237 175.59 43.0237C179.936 43.0237 181.233 39.0594 182.462 35.6251L189.053 17.3591H187.024V17.3608Z" fill="#919191"/>
</svg>
