<svg width="226" height="52" viewBox="0 0 226 52" fill="none" xmlns="http://www.w3.org/2000/svg">
<g clip-path="url(#clip0)">
<path d="M131.076 20.1838H122.179V21.1276C124.962 21.1276 125.41 21.724 125.41 25.2529V31.6148C125.41 35.1434 124.963 35.7896 122.179 35.7896C120.043 35.4916 118.601 34.3482 116.613 32.1614L114.327 29.6767C117.408 29.1292 119.048 27.1915 119.048 25.0043C119.048 22.2714 116.713 20.1838 112.339 20.1838H103.592V21.1276C106.375 21.1276 106.822 21.724 106.822 25.2529V31.6148C106.822 35.1434 106.375 35.7896 103.592 35.7896V36.7337H113.482V35.7896C110.699 35.7896 110.252 35.1434 110.252 31.6148V29.8261H111.096L116.613 36.7337H131.076C138.183 36.7337 141.264 32.957 141.264 28.4337C141.264 23.9112 138.183 20.1838 131.076 20.1838ZM110.252 28.2843V21.675H112.289C114.526 21.675 115.52 23.2156 115.52 25.0048C115.52 26.7445 114.526 28.2847 112.289 28.2847H110.252V28.2843ZM131.225 35.1932H130.877C129.088 35.1932 128.84 34.7462 128.84 32.4598V21.675C128.84 21.675 131.027 21.675 131.225 21.675C136.394 21.675 137.338 25.4517 137.338 28.3843C137.338 31.4156 136.394 35.1932 131.225 35.1932Z" fill="#919191"/>
<path d="M75.9103 30.1242L79.3396 19.9847C80.334 17.0526 79.8866 16.208 76.7059 16.208V15.2136H86.0493V16.208C82.9184 16.208 82.173 16.9534 80.9304 20.5815L75.2641 37.5788H74.6183L69.5484 22.0225L64.3801 37.5788H63.7339L58.2174 20.5815C57.0246 16.9534 56.2294 16.208 53.3467 16.208V15.2136H64.3801V16.208C61.4475 16.208 60.6519 16.9036 61.6961 19.9847L65.0259 30.1242L70.0456 15.2136H70.9902L75.9103 30.1242Z" fill="#919191"/>
<path d="M92.8075 37.3796C87.3408 37.3796 82.8677 33.3543 82.8677 28.4333C82.8677 23.563 87.3412 19.5369 92.8075 19.5369C98.2746 19.5369 102.747 23.563 102.747 28.4333C102.747 33.3543 98.2746 37.3796 92.8075 37.3796ZM92.8075 21.0787C88.2356 21.0787 86.6448 25.2032 86.6448 28.4337C86.6448 31.7145 88.2356 35.7896 92.8075 35.7896C97.43 35.7896 99.0204 31.7145 99.0204 28.4337C99.0204 25.2032 97.43 21.0787 92.8075 21.0787Z" fill="#919191"/>
<path d="M153.539 35.7398V36.7338H142.158V35.7398C145.488 35.7398 146.085 34.8952 146.085 29.9245V21.973C146.085 17.0023 145.488 16.2075 142.158 16.2075V15.2131H152.446C157.565 15.2131 160.398 17.8473 160.398 21.3767C160.398 24.806 157.565 27.4895 152.446 27.4895H149.613V29.9241C149.613 34.8952 150.209 35.7398 153.539 35.7398ZM152.446 17.0023H149.613V25.6506H152.446C155.229 25.6506 156.521 23.7124 156.521 21.3767C156.521 18.9911 155.229 17.0023 152.446 17.0023Z" fill="#919191"/>
<path d="M194.541 32.0622L194.292 32.9566C193.845 34.5968 193.298 35.1932 189.769 35.1932H189.073C186.489 35.1932 186.042 34.5968 186.042 31.0682V28.7823C189.919 28.7823 190.217 29.1297 190.217 31.7144H191.161V24.3088H190.217C190.217 26.8931 189.919 27.2409 186.042 27.2409V21.675H188.775C192.304 21.675 192.85 22.2714 193.298 23.9116L193.547 24.8553H194.342L193.994 20.1838H179.382V21.1276C182.165 21.1276 182.613 21.724 182.613 25.2529V31.6148C182.613 34.8429 182.233 35.656 180.038 35.772C177.953 35.4535 176.521 34.316 174.562 32.1614L172.276 29.6767C175.357 29.1292 176.997 27.1915 176.997 25.0043C176.997 22.2714 174.662 20.1838 170.288 20.1838H161.541V21.1276C164.324 21.1276 164.771 21.724 164.771 25.2529V31.6148C164.771 35.1434 164.324 35.7896 161.541 35.7896V36.7337H171.431V35.7896C168.649 35.7896 168.201 35.1434 168.201 31.6148V29.8261H169.046L174.562 36.7337H194.989L195.287 32.0626H194.541V32.0622ZM168.2 28.2843V21.675H170.238C172.474 21.675 173.469 23.2156 173.469 25.0048C173.469 26.7445 172.474 28.2847 170.238 28.2847H168.2V28.2843Z" fill="#919191"/>
<path d="M204.63 37.3796C202.642 37.3796 200.902 36.3363 200.157 35.6897C199.908 35.9387 199.461 36.6841 199.362 37.3796H198.417V30.5218H199.411C199.809 33.8017 202.095 35.7399 205.028 35.7399C206.618 35.7399 207.91 34.8455 207.91 33.3547C207.91 32.0628 206.767 31.0684 204.73 30.1242L201.897 28.7824C199.908 27.8374 198.417 26.1972 198.417 24.0109C198.417 21.6253 200.654 19.588 203.736 19.588C205.376 19.588 206.767 20.1844 207.612 20.88C207.861 20.6812 208.109 20.1342 208.259 19.5374H209.203V25.4025H208.159C207.811 23.0663 206.519 21.1281 203.885 21.1281C202.493 21.1281 201.201 21.9233 201.201 23.1663C201.201 24.4583 202.244 25.1539 204.63 26.2475L207.363 27.5892C209.749 28.7322 210.693 30.572 210.693 32.0628C210.693 35.1933 207.96 37.3796 204.63 37.3796Z" fill="#919191"/>
<path d="M219.937 37.3796C217.949 37.3796 216.209 36.3363 215.464 35.6897C215.215 35.9387 214.768 36.6841 214.669 37.3796H213.725V30.5218H214.719C215.116 33.8017 217.402 35.7399 220.335 35.7399C221.925 35.7399 223.217 34.8455 223.217 33.3547C223.217 32.0628 222.074 31.0684 220.036 30.1242L217.203 28.7824C215.215 27.8374 213.724 26.1972 213.724 24.0109C213.724 21.6253 215.961 19.588 219.042 19.588C220.682 19.588 222.074 20.1844 222.919 20.88C223.167 20.6812 223.416 20.1342 223.564 19.5374H224.509V25.4025H223.466C223.117 23.0663 221.825 21.1281 219.192 21.1281C217.8 21.1281 216.507 21.9233 216.507 23.1663C216.507 24.4583 217.551 25.1539 219.937 26.2475L222.67 27.5892C225.056 28.7322 226 30.572 226 32.0628C226 35.1933 223.266 37.3796 219.937 37.3796Z" fill="#919191"/>
<path d="M3.64502 25.6385C3.64502 34.3446 8.70449 41.8683 16.0411 45.4336L5.54928 16.6873C4.32888 19.4227 3.64502 22.4498 3.64502 25.6385Z" fill="#919191"/>
<path d="M40.4876 24.5286C40.4876 21.8103 39.5112 19.9278 38.6737 18.4626C37.5588 16.6508 36.5137 15.1165 36.5137 13.3048C36.5137 11.2829 38.0472 9.40083 40.2072 9.40083C40.3047 9.40083 40.3972 9.41297 40.4922 9.41841C36.579 5.83338 31.3655 3.64453 25.6394 3.64453C17.9554 3.64453 11.195 7.58698 7.26221 13.5584C7.77824 13.5739 8.26456 13.5848 8.67764 13.5848C10.9782 13.5848 14.5394 13.3056 14.5394 13.3056C15.7251 13.2357 15.8649 14.9772 14.6804 15.1174C14.6804 15.1174 13.4889 15.2576 12.1631 15.3271L20.1727 39.1512L24.986 24.7153L21.5592 15.3262C20.3748 15.2567 19.2528 15.1165 19.2528 15.1165C18.0675 15.0471 18.2065 13.2349 19.3917 13.3048C19.3917 13.3048 23.024 13.5839 25.1853 13.5839C27.4854 13.5839 31.047 13.3048 31.047 13.3048C32.2335 13.2349 32.3729 14.9763 31.1881 15.1165C31.1881 15.1165 29.994 15.2567 28.6707 15.3262L36.6192 38.97L38.8131 31.6388C39.7639 28.5966 40.4876 26.4115 40.4876 24.5286Z" fill="#919191"/>
<path d="M26.025 27.5623L19.4258 46.7384C21.3962 47.3176 23.48 47.6344 25.6391 47.6344C28.2004 47.6344 30.6567 47.1916 32.9431 46.3876C32.8841 46.2935 32.8305 46.1934 32.7866 46.0846L26.025 27.5623Z" fill="#919191"/>
<path d="M44.9385 15.0859C45.0331 15.7865 45.0867 16.5386 45.0867 17.3476C45.0867 19.5796 44.6698 22.0886 43.4143 25.2258L36.6958 44.6505C43.2347 40.8374 47.6329 33.7531 47.6329 25.6389C47.6334 21.8149 46.6565 18.219 44.9385 15.0859Z" fill="#919191"/>
<path d="M25.6393 0C11.5021 0 0 11.5013 0 25.6384C0 39.7773 11.5021 51.2781 25.6393 51.2781C39.776 51.2781 51.2798 39.7773 51.2798 25.6384C51.2794 11.5013 39.776 0 25.6393 0ZM25.6393 50.1029C12.1504 50.1029 1.17562 39.1281 1.17562 25.6384C1.17562 12.1496 12.15 1.17562 25.6393 1.17562C39.1277 1.17562 50.1017 12.1496 50.1017 25.6384C50.1017 39.1281 39.1277 50.1029 25.6393 50.1029Z" fill="#919191"/>
</g>
<defs>
<clipPath id="clip0">
<rect width="226" height="51.2781" fill="white"/>
</clipPath>
</defs>
</svg>
