<svg width="243" height="50" viewBox="0 0 243 50" fill="none" xmlns="http://www.w3.org/2000/svg">
<g clip-path="url(#clip0)">
<path d="M104.706 12.206V11.0295C104.706 10.7354 104.559 10.4412 103.971 10.4412C103.382 10.2942 102.059 10.2942 100.882 10.2942C97.6472 10.2942 95.5884 11.4707 95.5884 15.1471V35.8824C95.5884 36.3236 95.8825 36.6177 96.3237 36.6177H97.9413C98.3825 36.6177 98.6766 36.3236 98.6766 35.8824V19.853H104.118C104.559 19.853 104.706 19.5589 104.706 19.2648V18.0883C104.706 17.6471 104.412 17.5001 104.118 17.5001H98.5296V15.1471C98.5296 13.0883 98.9707 12.7942 100.882 12.7942H103.971C104.412 12.6471 104.706 12.5001 104.706 12.206ZM115.735 19.2648V17.6471C115.735 17.206 115.441 17.0589 115 17.0589C112.059 17.0589 109.706 17.206 107.794 18.0883C107.353 18.2354 107.206 18.5295 107.206 18.8236V35.5883C107.206 36.0295 107.5 36.3236 107.794 36.3236H109.559C110 36.3236 110.147 36.0295 110.147 35.5883V20.1471C111.471 19.853 112.647 19.853 115 19.853C115.735 19.853 115.735 19.706 115.735 19.2648ZM130.882 35.1471V18.8236C130.882 18.3824 130.735 18.2354 130.147 18.0883C128.235 17.6471 125.882 17.353 123.677 17.353C118.53 17.353 116.03 20.7354 116.03 25.8824V28.2354C116.03 33.3824 118.382 36.7648 123.677 36.7648C125.735 36.7648 128.235 36.4707 130.147 36.0295C130.735 35.7354 130.882 35.5883 130.882 35.1471ZM127.794 33.8236C126.765 33.9707 125.147 34.1177 123.677 34.1177C120.294 34.1177 119.118 31.7648 119.118 28.0883V25.7354C119.118 22.0589 120.147 19.706 123.677 19.706C125.147 19.706 126.765 19.853 127.794 20.0001V33.8236ZM156.03 35.7354V23.2354C156.03 19.706 153.971 17.206 149.853 17.206H149.118C147.059 17.206 145.588 17.5001 144.559 18.3824C143.53 17.353 142.059 17.206 140 17.206H139.265C135.147 17.206 133.088 19.706 133.088 23.2354V35.7354C133.088 36.1765 133.382 36.4707 133.677 36.4707H135.441C135.882 36.4707 136.03 36.1765 136.03 35.7354V23.2354C136.03 20.2942 137.353 19.853 139.118 19.853H139.853C142.059 19.853 142.794 20.2942 142.794 22.206V35.7354C142.794 36.1765 143.088 36.4707 143.382 36.4707H145.147C145.588 36.4707 145.735 36.1765 145.735 35.7354V22.206C145.735 20.2942 146.471 19.853 148.677 19.853H149.412C151.324 19.853 152.5 20.2942 152.5 23.2354V35.7354C152.5 36.1765 152.794 36.4707 153.088 36.4707H154.853C155.882 36.4707 156.03 36.1765 156.03 35.7354ZM173.088 27.206V25.2942C173.088 20.4413 170.441 17.206 165.441 17.206C160.441 17.206 157.647 20.2942 157.647 25.2942V28.3824C157.647 34.853 161.471 36.7648 165.588 36.7648C167.941 36.7648 169.853 36.6177 171.765 36.1765C172.353 36.0295 172.5 35.8824 172.5 35.4413V34.2648C172.5 33.9707 172.206 33.8236 171.912 33.8236H171.765C170.147 34.1177 167.647 34.2648 165.588 34.2648C162.353 34.2648 160.735 32.7942 160.735 28.6765V27.9412H172.353C172.794 27.9412 173.088 27.6471 173.088 27.206ZM170 25.5883H160.735V25.2942C160.735 21.6177 162.353 19.853 165.441 19.853C168.53 19.853 170 21.3236 170 25.2942V25.5883ZM198.382 28.9707V18.0883C198.382 17.6471 198.088 17.353 197.647 17.353H196.03C195.588 17.353 195.294 17.6471 195.294 18.0883V28.9707C195.294 32.7942 193.824 34.1177 191.03 34.1177C190.147 34.1177 189.265 33.9707 188.235 33.6765V18.0883C188.235 17.6471 187.941 17.353 187.5 17.353H185.735C185.294 17.353 185 17.6471 185 18.0883V33.6765C183.971 33.9707 183.088 34.1177 182.206 34.1177C179.265 34.1177 177.941 32.7942 177.941 28.9707V18.0883C177.941 17.6471 177.647 17.353 177.206 17.353H175.588C175.147 17.353 174.853 17.6471 174.853 18.0883V28.9707C174.853 35.1471 178.235 36.7648 181.912 36.7648C183.677 36.7648 185.147 36.4707 186.471 35.8824C187.941 36.4707 189.265 36.7648 191.03 36.7648C195 36.7648 198.382 35.1471 198.382 28.9707ZM216.177 28.2354V25.5883C216.177 20.4412 213.53 17.206 208.382 17.206C203.235 17.206 200.588 20.5883 200.588 25.5883V28.2354C200.588 33.3824 203.235 36.6177 208.382 36.6177C213.53 36.7648 216.177 33.3824 216.177 28.2354ZM213.088 28.2354C213.088 31.7648 211.618 33.9707 208.382 33.9707C205.147 33.9707 203.677 31.7648 203.677 28.2354V25.5883C203.677 22.0589 205.147 19.853 208.382 19.853C211.618 19.853 213.088 22.0589 213.088 25.5883V28.2354ZM227.059 19.2648V17.6471C227.059 17.206 226.765 17.0589 226.324 17.0589C223.382 17.0589 221.03 17.206 219.118 18.0883C218.677 18.2354 218.53 18.5295 218.53 18.8236V35.5883C218.53 36.0295 218.824 36.3236 219.118 36.3236H220.882C221.324 36.3236 221.471 36.0295 221.471 35.5883V20.1471C222.794 19.853 223.971 19.853 226.324 19.853C227.059 19.853 227.059 19.706 227.059 19.2648ZM242.647 36.0295C242.647 35.8824 242.647 35.7354 242.5 35.7354L234.706 26.4707L242.353 18.2354C242.5 18.0883 242.5 17.9412 242.5 17.7942C242.5 17.6471 242.353 17.353 241.912 17.353H239.706C239.412 17.353 239.265 17.353 238.971 17.6471L232.059 25.4412V11.1765C232.059 10.7354 231.765 10.4412 231.324 10.4412H229.706C229.265 10.4412 228.971 10.7354 228.971 11.1765V35.8824C228.971 36.3236 229.265 36.6177 229.706 36.6177H231.324C231.765 36.6177 232.059 36.3236 232.059 35.8824V27.6471L238.971 36.1765C239.265 36.4707 239.412 36.6177 239.706 36.6177H242.206C242.5 36.4707 242.647 36.3236 242.647 36.0295Z" fill="#919191"/>
<path d="M90.4413 35.5882V13.6764C90.4413 13.2352 90.1472 12.9411 89.7061 12.9411H86.4708C86.0296 12.9411 85.7355 13.2352 85.7355 13.6764V35.5882C85.7355 36.0294 86.0296 36.3235 86.4708 36.3235H89.7061C90.1472 36.1764 90.4413 35.8823 90.4413 35.5882ZM73.6766 36.1764V13.0882C71.9119 13.0882 69.1178 14.2646 69.1178 16.7646V32.4999C68.0884 32.647 66.6178 32.7941 65.7355 32.7941C62.7943 32.7941 62.059 30.7352 62.059 27.9411V16.6176C61.9119 13.8235 58.8237 13.0882 57.5002 13.0882V27.7941C57.5002 33.0882 60.1472 36.4705 65.7355 36.4705C66.6178 36.4705 68.3825 36.1764 69.1178 36.0294V36.3235C69.8531 40.8823 64.2649 39.1176 61.3237 38.8235C59.1178 38.8235 57.6472 40.5882 57.2061 42.647C58.5296 43.0882 62.6472 43.5294 65.5884 43.8235C70.8825 43.9705 73.6766 41.0294 73.6766 36.1764ZM82.059 35.5882V13.6764C82.059 13.2352 81.7649 12.9411 81.3237 12.9411H78.0884C77.6472 12.9411 77.3531 13.2352 77.3531 13.6764V35.5882C77.3531 36.0294 77.6472 36.3235 78.0884 36.3235H81.3237C81.7649 36.1764 82.059 35.8823 82.059 35.5882ZM79.7061 6.76465C81.0296 6.76465 82.059 7.79406 82.059 9.11759C82.059 10.4411 81.0296 11.4705 79.7061 11.4705C78.3825 11.4705 77.3531 10.4411 77.3531 9.11759C77.3531 7.94112 78.3825 6.76465 79.7061 6.76465ZM88.2355 6.76465C89.559 6.76465 90.5884 7.79406 90.5884 9.11759C90.5884 10.4411 89.559 11.4705 88.2355 11.4705C86.9119 11.4705 85.8825 10.4411 85.8825 9.11759C85.8825 7.94112 86.9119 6.76465 88.2355 6.76465Z" fill="#919191"/>
<path fill-rule="evenodd" clip-rule="evenodd" d="M29.6695 14.0397C27.3726 7.41002 34.0863 0.302769 39.6092 0.0907784C42.9185 1.81719 45.7599 6.35081 45.6178 12.503C45.1842 20.0825 39.8212 26.6148 33.9844 32.6331C33.6594 25.2945 32.1018 20.6166 29.6695 14.0397Z" fill="#919191"/>
<path fill-rule="evenodd" clip-rule="evenodd" d="M16.6493 49.9387C15.7247 42.5384 18.729 36.2256 21.711 32.3763C23.128 30.5688 24.2177 28.9197 25.0463 27.4009C26.6128 28.0792 30.8236 30.2884 33.1436 33.8751C32.8066 39.0781 28.9618 48.547 16.6485 49.9387" fill="#919191"/>
<path fill-rule="evenodd" clip-rule="evenodd" d="M11.9958 21.8319C2.19592 19.091 -0.221502 10.4812 0.215866 4.69202C9.73234 0.834549 19.9741 4.78574 25.8874 13.0214C30.0335 18.7934 32.6295 26.1937 33.1561 32.6523C30.3117 28.8983 26.719 26.7233 22.143 25.02C19.013 23.8559 16.1218 23.0845 11.9958 21.8319Z" fill="#919191"/>
</g>
<defs>
<clipPath id="clip0">
<rect width="242.647" height="50" fill="white"/>
</clipPath>
</defs>
</svg>
