<svg width="228" height="38" viewBox="0 0 228 38" fill="none" xmlns="http://www.w3.org/2000/svg">
<g clip-path="url(#clip0)">
<path d="M36.7124 10.8776C36.7124 10.8776 36.7124 0.552246 47.0378 0.552246H78.0563C78.0563 0.552246 78.0563 10.8776 67.731 10.8776H36.7124Z" fill="#919191"/>
<path d="M36.7124 24.0924C36.7124 24.0924 36.7124 13.7671 47.0378 13.7671H62.5471C62.5471 13.7671 62.5471 24.0924 52.2217 24.0924H36.7124Z" fill="#919191"/>
<path d="M36.7124 37.3073C36.7124 37.3073 36.7124 26.9819 47.0378 26.9819H52.2217C52.2217 26.9819 52.2217 37.3073 41.8963 37.3073H36.7124Z" fill="#919191"/>
<path d="M33.2706 29.2339V37.4772H0L21.4156 8.24329H3.01687V0H37.7322L16.4016 29.2339H33.2706Z" fill="#919191"/>
<path d="M96.1575 16.3165H85.3647V14.3619L93.6505 2.42186H85.7472V0.552246H95.9451V2.42186L87.5743 14.4469H96.1575V16.3165ZM107.928 14.4894V16.359H98.2396V0.552246H107.928V2.42186H100.322V6.75596H107.418V8.62557H100.322V14.4894H107.928ZM118.933 16.3165L112.092 2.7193V16.3165H110.18V0.552246H113.069L119.273 13.0447V0.552246H121.185V16.3165H118.933ZM135.759 12.3648C135.207 13.5121 134.442 14.4044 133.465 15.0842C132.7 15.5941 131.893 15.9341 131.085 16.104C130.278 16.274 129.258 16.359 127.983 16.359H124.414V0.552246H127.941C129.386 0.552246 130.533 0.67972 131.34 0.892176C132.148 1.10463 132.87 1.40207 133.465 1.82698C134.442 2.50684 135.249 3.39916 135.759 4.50393C136.312 5.6087 136.567 6.92592 136.567 8.4981C136.609 9.90031 136.312 11.2175 135.759 12.3648ZM133.847 5.31126C133.465 4.46143 132.87 3.78158 132.105 3.31417C131.553 2.97424 130.958 2.7193 130.363 2.59182C129.726 2.46435 128.961 2.37937 128.068 2.37937H126.496V14.5318H128.068C128.961 14.5318 129.768 14.4469 130.448 14.3194C131.128 14.1919 131.765 13.8945 132.318 13.5121C133.04 13.0022 133.55 12.3648 133.932 11.5575C134.272 10.7501 134.485 9.73034 134.485 8.4981C134.442 7.22336 134.272 6.20357 133.847 5.31126ZM90.2087 24.4748V27.4492H96.1575V30.4235H90.2087V37.2221H86.342V21.5004H96.7099V24.4748H90.2087ZM107.8 30.551L112.984 37.2646H108.268L103.976 31.4858H102.616V37.2646H98.7495V21.5004H104.953C105.803 21.5004 106.568 21.5429 107.205 21.6704C107.843 21.7978 108.437 22.0103 108.99 22.3502C109.542 22.6902 109.967 23.1576 110.307 23.7099C110.647 24.2623 110.774 24.9847 110.774 25.8345C110.774 27.0243 110.52 28.0015 109.967 28.7664C109.372 29.5312 108.692 30.1261 107.8 30.551ZM106.483 25.2821C106.355 24.9847 106.1 24.7722 105.761 24.6023C105.506 24.4748 105.251 24.4323 104.953 24.3898C104.656 24.3473 104.273 24.3473 103.848 24.3473H102.574V28.5964H103.678C104.231 28.5964 104.656 28.5539 105.038 28.5114C105.421 28.4265 105.718 28.299 105.973 28.0865C106.228 27.8741 106.398 27.6616 106.525 27.3642C106.653 27.1092 106.695 26.7268 106.695 26.2594C106.738 25.9195 106.653 25.5796 106.483 25.2821ZM123.139 37.2646L122.205 34.0778H117.318L116.383 37.2646H112.517L117.701 21.5004H121.95L127.176 37.2646H123.139ZM119.74 25.962L118.168 31.1884H121.355L119.74 25.962ZM140.561 37.2646V26.8118L137.756 33.5679H135.122L132.318 26.8543V37.3071H128.663V21.5004H133.125L136.524 29.2763L139.923 21.5004H144.385V37.2646H140.561ZM158.11 34.2902V37.2646H147.657V21.5004H158.11V24.4748H151.524V27.2367H157.6V30.2111H151.524V34.2477H158.11V34.2902ZM176.721 37.2646H172.472L169.965 27.5341L167.543 37.2646H163.294L159.384 21.5004H163.421L165.546 32.0807L168.138 21.5004H172.004L174.469 32.0807L176.721 21.5004H180.63L176.721 37.2646ZM194.61 35.395C193.292 36.8397 191.465 37.6046 189.128 37.6046C186.791 37.6046 184.964 36.8822 183.647 35.395C182.33 33.9078 181.65 31.9107 181.65 29.4038C181.65 26.8543 182.33 24.8572 183.647 23.37C184.964 21.8828 186.791 21.1605 189.128 21.1605C191.465 21.1605 193.292 21.8828 194.61 23.37C195.927 24.8147 196.607 26.8543 196.607 29.4038C196.607 31.9532 195.927 33.9503 194.61 35.395ZM192.315 26.9818C192.145 26.3019 191.89 25.792 191.55 25.3671C191.21 24.9422 190.828 24.6447 190.445 24.4323C190.021 24.2623 189.596 24.1349 189.128 24.1349C188.661 24.1349 188.236 24.2198 187.854 24.3898C187.471 24.5598 187.089 24.8572 186.749 25.3246C186.451 25.7495 186.154 26.2594 185.984 26.9393C185.771 27.6191 185.686 28.4265 185.686 29.3613C185.686 30.3386 185.771 31.1459 185.984 31.7833C186.154 32.4206 186.409 32.973 186.749 33.3979C187.089 33.8228 187.471 34.1628 187.896 34.3327C188.321 34.5027 188.746 34.6302 189.213 34.6302C189.681 34.6302 190.106 34.5452 190.53 34.3327C190.955 34.1203 191.338 33.8228 191.635 33.3979C191.975 32.9305 192.23 32.4206 192.4 31.7833C192.57 31.1884 192.655 30.3811 192.655 29.4038C192.613 28.4265 192.485 27.6616 192.315 26.9818ZM207.994 30.551L213.178 37.2646H208.462L204.17 31.4858H202.81V37.2646H198.944V21.5004H205.147C205.997 21.5004 206.762 21.5429 207.399 21.6704C208.037 21.7978 208.632 22.0103 209.184 22.3502C209.736 22.6902 210.161 23.1576 210.501 23.7099C210.841 24.2623 211.011 24.9847 211.011 25.8345C211.011 27.0243 210.756 28.0015 210.204 28.7664C209.609 29.5312 208.887 30.1261 207.994 30.551ZM206.72 25.2821C206.592 24.9847 206.337 24.7722 205.997 24.6023C205.742 24.4748 205.487 24.4323 205.19 24.3898C204.892 24.3473 204.51 24.3473 204.085 24.3473H202.81V28.5964H203.915C204.468 28.5964 204.892 28.5539 205.275 28.5114C205.657 28.4265 205.955 28.299 206.21 28.0865C206.465 27.8741 206.635 27.6616 206.762 27.3642C206.89 27.1092 206.932 26.7268 206.932 26.2594C206.932 25.9195 206.89 25.5796 206.72 25.2821ZM227.88 37.2646H223.206L219 30.8485L218.235 31.9107V37.2221H214.368V21.5004H218.235V28.5114L223.164 21.5004H227.668L222.144 28.8089L227.88 37.2646Z" fill="#919191"/>
</g>
<defs>
<clipPath id="clip0">
<rect width="227.88" height="37.6047" fill="white"/>
</clipPath>
</defs>
</svg>
