<svg width="595" height="400" viewBox="0 0 595 400" fill="none" xmlns="http://www.w3.org/2000/svg">
<g filter="url(#filter0_d)">
<rect x="41" y="61" width="513" height="278.006" rx="13.3908" fill="#2B2B2B"/>
</g>
<circle cx="69.5686" cy="117.895" r="6.9186" stroke="#BAB6B7" stroke-width="1.33908"/>
<circle cx="69.5686" cy="149.14" r="6.9186" stroke="#BAB6B7" stroke-width="1.33908"/>
<circle cx="69.5686" cy="180.833" r="6.9186" stroke="#B9B546" stroke-width="1.33908"/>
<circle cx="69.5686" cy="212.078" r="6.9186" stroke="#BAB6B7" stroke-width="1.33908"/>
<circle cx="69.5686" cy="243.323" r="6.9186" stroke="#BAB6B7" stroke-opacity="0.5" stroke-width="1.33908"/>
<mask id="path-8-inside-1" fill="white">
<rect x="62.4307" y="266.98" width="14.2836" height="14.2836" rx="0.892722"/>
</mask>
<rect x="62.4307" y="266.98" width="14.2836" height="14.2836" rx="0.892722" stroke="#BAB6B7" stroke-opacity="0.5" stroke-width="2.67817" mask="url(#path-8-inside-1)"/>
<mask id="path-9-inside-2" fill="white">
<path d="M67.9592 276.002L65.9126 273.956L65.2856 274.583L67.9592 277.256L73.3242 271.892L72.6972 271.265L67.9592 276.002Z"/>
</mask>
<path d="M67.9592 276.002L65.9126 273.956L65.2856 274.583L67.9592 277.256L73.3242 271.892L72.6972 271.265L67.9592 276.002Z" fill="#BAB6B7" fill-opacity="0.5"/>
<path d="M67.9592 276.002L67.0124 276.949L67.9592 277.896L68.9061 276.949L67.9592 276.002ZM65.9126 273.956L66.8595 273.009L65.9126 272.062L64.9658 273.009L65.9126 273.956ZM65.2856 274.583L64.3388 273.636L63.3919 274.583L64.3388 275.53L65.2856 274.583ZM67.9592 277.256L67.0124 278.203L67.9592 279.15L68.9061 278.203L67.9592 277.256ZM73.3242 271.892L74.2711 272.838L75.218 271.892L74.2711 270.945L73.3242 271.892ZM72.6972 271.265L73.6441 270.318L72.6972 269.371L71.7503 270.318L72.6972 271.265ZM68.9061 275.056L66.8595 273.009L64.9658 274.903L67.0124 276.949L68.9061 275.056ZM64.9658 273.009L64.3388 273.636L66.2325 275.53L66.8595 274.903L64.9658 273.009ZM64.3388 275.53L67.0124 278.203L68.9061 276.31L66.2325 273.636L64.3388 275.53ZM68.9061 278.203L74.2711 272.838L72.3773 270.945L67.0124 276.31L68.9061 278.203ZM74.2711 270.945L73.6441 270.318L71.7503 272.211L72.3773 272.838L74.2711 270.945ZM71.7503 270.318L67.0124 275.056L68.9061 276.949L73.6441 272.211L71.7503 270.318Z" fill="#BAB6B7" fill-opacity="0.5" mask="url(#path-9-inside-2)"/>
<path d="M83.0508 112.732H84.2426L86.1842 120.459L88.4339 112.732H89.2641L91.5138 120.485L93.4822 112.732H94.5669L92.0762 122.307H91.0049L88.8356 114.741L86.5993 122.307H85.5415L83.0508 112.732ZM96.3135 111.956H97.4249V116.415C97.5856 116.084 97.8534 115.799 98.2283 115.558C98.6122 115.308 99.0943 115.183 99.6746 115.183C100.032 115.183 100.362 115.236 100.665 115.343C100.969 115.442 101.228 115.607 101.442 115.839C101.665 116.062 101.835 116.352 101.951 116.709C102.076 117.066 102.138 117.499 102.138 118.008V122.307H101.027V117.928C101.027 117.312 100.893 116.861 100.625 116.575C100.357 116.29 99.9424 116.147 99.38 116.147C99.1211 116.147 98.8711 116.187 98.6301 116.267C98.398 116.348 98.1926 116.468 98.0141 116.629C97.8355 116.79 97.6927 116.99 97.5856 117.232C97.4785 117.473 97.4249 117.749 97.4249 118.062V122.307H96.3135V111.956ZM107.406 121.503C107.754 121.503 108.071 121.441 108.357 121.316C108.642 121.191 108.883 121.012 109.08 120.78C109.276 120.548 109.428 120.271 109.535 119.95C109.642 119.62 109.696 119.258 109.696 118.865V118.771C109.696 118.37 109.642 118.004 109.535 117.673C109.428 117.343 109.272 117.062 109.066 116.83C108.87 116.598 108.629 116.419 108.343 116.294C108.066 116.169 107.754 116.107 107.406 116.107C107.058 116.107 106.741 116.169 106.455 116.294C106.169 116.419 105.928 116.598 105.732 116.83C105.536 117.062 105.384 117.343 105.277 117.673C105.17 117.995 105.116 118.356 105.116 118.758V118.865C105.116 119.669 105.317 120.311 105.719 120.793C106.129 121.267 106.692 121.503 107.406 121.503ZM107.392 122.427C106.892 122.427 106.433 122.338 106.013 122.159C105.594 121.981 105.232 121.735 104.928 121.423C104.625 121.101 104.388 120.722 104.219 120.285C104.049 119.847 103.964 119.374 103.964 118.865V118.758C103.964 118.231 104.049 117.749 104.219 117.312C104.397 116.874 104.638 116.499 104.942 116.187C105.245 115.866 105.607 115.62 106.027 115.451C106.446 115.272 106.906 115.183 107.406 115.183C107.897 115.183 108.352 115.272 108.772 115.451C109.2 115.62 109.566 115.861 109.87 116.174C110.173 116.486 110.41 116.861 110.579 117.298C110.758 117.736 110.847 118.218 110.847 118.745V118.852C110.847 119.379 110.758 119.865 110.579 120.311C110.41 120.749 110.169 121.124 109.856 121.436C109.553 121.749 109.191 121.994 108.772 122.173C108.352 122.342 107.892 122.427 107.392 122.427ZM112.765 111.956H113.89V122.307H112.765V111.956ZM119.187 122.427C118.687 122.427 118.232 122.342 117.821 122.173C117.41 122.003 117.053 121.767 116.75 121.463C116.446 121.151 116.21 120.776 116.04 120.338C115.879 119.901 115.799 119.414 115.799 118.879V118.771C115.799 118.245 115.879 117.763 116.04 117.325C116.201 116.879 116.424 116.499 116.71 116.187C117.004 115.866 117.352 115.62 117.754 115.451C118.156 115.272 118.598 115.183 119.08 115.183C119.481 115.183 119.87 115.25 120.245 115.384C120.629 115.509 120.968 115.709 121.262 115.986C121.557 116.263 121.789 116.624 121.959 117.071C122.137 117.508 122.227 118.039 122.227 118.664V119.026H116.951C116.977 119.829 117.178 120.445 117.553 120.874C117.928 121.293 118.477 121.503 119.2 121.503C120.298 121.503 120.919 121.097 121.062 120.285H122.173C122.048 120.99 121.718 121.526 121.182 121.892C120.646 122.249 119.981 122.427 119.187 122.427ZM121.088 118.129C121.035 117.406 120.829 116.888 120.472 116.575C120.124 116.263 119.66 116.107 119.08 116.107C118.508 116.107 118.04 116.29 117.674 116.656C117.317 117.013 117.089 117.504 116.991 118.129H121.088ZM127.633 115.303H128.744V116.482C128.842 116.312 128.972 116.151 129.133 116C129.302 115.839 129.49 115.7 129.695 115.584C129.9 115.459 130.124 115.361 130.365 115.29C130.606 115.218 130.856 115.183 131.114 115.183C131.57 115.183 131.994 115.263 132.387 115.424C132.779 115.584 133.114 115.817 133.391 116.12C133.677 116.424 133.9 116.794 134.06 117.232C134.221 117.669 134.301 118.16 134.301 118.705V118.812C134.301 119.347 134.226 119.838 134.074 120.285C133.922 120.722 133.708 121.101 133.431 121.423C133.154 121.744 132.82 121.994 132.427 122.173C132.034 122.342 131.597 122.427 131.114 122.427C130.534 122.427 130.043 122.302 129.641 122.052C129.249 121.802 128.95 121.503 128.744 121.155V124.744H127.633V115.303ZM131.007 121.503C131.704 121.503 132.235 121.28 132.601 120.834C132.967 120.378 133.15 119.722 133.15 118.865V118.758C133.15 118.321 133.092 117.937 132.976 117.606C132.86 117.267 132.704 116.99 132.507 116.776C132.32 116.553 132.092 116.388 131.824 116.281C131.565 116.165 131.289 116.107 130.994 116.107C130.673 116.107 130.369 116.16 130.083 116.267C129.807 116.374 129.566 116.54 129.36 116.763C129.155 116.977 128.994 117.254 128.878 117.593C128.762 117.923 128.704 118.312 128.704 118.758V118.865C128.704 119.312 128.758 119.7 128.865 120.03C128.981 120.361 129.137 120.637 129.333 120.86C129.539 121.075 129.784 121.235 130.07 121.343C130.356 121.45 130.668 121.503 131.007 121.503ZM136.185 115.303H137.297V116.562C137.404 116.366 137.524 116.187 137.658 116.026C137.801 115.857 137.962 115.714 138.14 115.598C138.319 115.473 138.529 115.375 138.77 115.303C139.011 115.232 139.287 115.192 139.6 115.183V116.227C139.252 116.245 138.935 116.29 138.649 116.361C138.363 116.433 138.118 116.553 137.913 116.723C137.716 116.892 137.564 117.12 137.457 117.406C137.35 117.682 137.297 118.035 137.297 118.463V122.307H136.185V115.303ZM144.1 121.503C144.448 121.503 144.765 121.441 145.051 121.316C145.336 121.191 145.577 121.012 145.774 120.78C145.97 120.548 146.122 120.271 146.229 119.95C146.336 119.62 146.39 119.258 146.39 118.865V118.771C146.39 118.37 146.336 118.004 146.229 117.673C146.122 117.343 145.966 117.062 145.76 116.83C145.564 116.598 145.323 116.419 145.037 116.294C144.76 116.169 144.448 116.107 144.1 116.107C143.752 116.107 143.435 116.169 143.149 116.294C142.863 116.419 142.622 116.598 142.426 116.83C142.23 117.062 142.078 117.343 141.971 117.673C141.864 117.995 141.81 118.356 141.81 118.758V118.865C141.81 119.669 142.011 120.311 142.413 120.793C142.823 121.267 143.386 121.503 144.1 121.503ZM144.086 122.427C143.586 122.427 143.127 122.338 142.707 122.159C142.288 121.981 141.926 121.735 141.622 121.423C141.319 121.101 141.082 120.722 140.913 120.285C140.743 119.847 140.658 119.374 140.658 118.865V118.758C140.658 118.231 140.743 117.749 140.913 117.312C141.091 116.874 141.332 116.499 141.636 116.187C141.939 115.866 142.301 115.62 142.721 115.451C143.14 115.272 143.6 115.183 144.1 115.183C144.591 115.183 145.046 115.272 145.466 115.451C145.894 115.62 146.26 115.861 146.564 116.174C146.867 116.486 147.104 116.861 147.273 117.298C147.452 117.736 147.541 118.218 147.541 118.745V118.852C147.541 119.379 147.452 119.865 147.273 120.311C147.104 120.749 146.863 121.124 146.55 121.436C146.247 121.749 145.885 121.994 145.466 122.173C145.046 122.342 144.586 122.427 144.086 122.427ZM148.428 123.927C148.83 123.891 149.102 123.78 149.245 123.592C149.388 123.405 149.459 123.155 149.459 122.842V115.303H150.57V122.749C150.57 123.418 150.405 123.931 150.075 124.288C149.754 124.646 149.205 124.838 148.428 124.864V123.927ZM149.995 113.844C149.789 113.844 149.615 113.772 149.472 113.629C149.33 113.487 149.258 113.312 149.258 113.107C149.258 112.902 149.33 112.728 149.472 112.585C149.615 112.442 149.789 112.371 149.995 112.371C150.2 112.371 150.374 112.442 150.517 112.585C150.66 112.728 150.731 112.902 150.731 113.107C150.731 113.312 150.66 113.487 150.517 113.629C150.374 113.772 150.2 113.844 149.995 113.844ZM155.868 122.427C155.368 122.427 154.913 122.342 154.502 122.173C154.091 122.003 153.734 121.767 153.431 121.463C153.127 121.151 152.891 120.776 152.721 120.338C152.56 119.901 152.48 119.414 152.48 118.879V118.771C152.48 118.245 152.56 117.763 152.721 117.325C152.882 116.879 153.105 116.499 153.391 116.187C153.685 115.866 154.033 115.62 154.435 115.451C154.837 115.272 155.279 115.183 155.761 115.183C156.162 115.183 156.551 115.25 156.926 115.384C157.31 115.509 157.649 115.709 157.943 115.986C158.238 116.263 158.47 116.624 158.64 117.071C158.818 117.508 158.908 118.039 158.908 118.664V119.026H153.632C153.658 119.829 153.859 120.445 154.234 120.874C154.609 121.293 155.158 121.503 155.881 121.503C156.979 121.503 157.6 121.097 157.743 120.285H158.854C158.729 120.99 158.399 121.526 157.863 121.892C157.327 122.249 156.662 122.427 155.868 122.427ZM157.769 118.129C157.716 117.406 157.51 116.888 157.153 116.575C156.805 116.263 156.341 116.107 155.761 116.107C155.189 116.107 154.721 116.29 154.355 116.656C153.998 117.013 153.77 117.504 153.672 118.129H157.769ZM163.676 122.427C163.185 122.427 162.729 122.347 162.31 122.186C161.899 122.017 161.538 121.78 161.225 121.476C160.922 121.164 160.681 120.789 160.502 120.352C160.332 119.914 160.248 119.423 160.248 118.879V118.771C160.248 118.236 160.337 117.749 160.516 117.312C160.694 116.865 160.935 116.486 161.239 116.174C161.551 115.861 161.913 115.62 162.323 115.451C162.734 115.272 163.176 115.183 163.649 115.183C164.015 115.183 164.368 115.227 164.707 115.317C165.055 115.406 165.363 115.549 165.631 115.745C165.908 115.933 166.14 116.183 166.327 116.495C166.515 116.807 166.635 117.187 166.689 117.633H165.591C165.501 117.08 165.274 116.687 164.908 116.455C164.551 116.223 164.131 116.107 163.649 116.107C163.328 116.107 163.029 116.169 162.752 116.294C162.484 116.419 162.247 116.598 162.042 116.83C161.846 117.053 161.689 117.33 161.573 117.66C161.457 117.99 161.399 118.361 161.399 118.771V118.879C161.399 119.745 161.609 120.401 162.029 120.847C162.457 121.284 163.011 121.503 163.689 121.503C163.939 121.503 164.176 121.467 164.399 121.396C164.631 121.325 164.836 121.218 165.015 121.075C165.202 120.932 165.354 120.753 165.47 120.539C165.595 120.325 165.671 120.075 165.698 119.789H166.729C166.693 120.164 166.59 120.517 166.421 120.847C166.26 121.168 166.046 121.445 165.778 121.677C165.51 121.909 165.198 122.092 164.841 122.226C164.484 122.36 164.095 122.427 163.676 122.427ZM170.693 122.4C170.05 122.4 169.573 122.231 169.26 121.892C168.957 121.552 168.805 121.106 168.805 120.552V116.241H167.801V115.303H168.805V113.71H169.916V115.303H171.55V116.241H169.916V120.445C169.916 121.124 170.206 121.463 170.787 121.463C170.965 121.463 171.121 121.45 171.255 121.423C171.389 121.396 171.519 121.36 171.644 121.316V122.253C171.528 122.298 171.398 122.333 171.255 122.36C171.113 122.387 170.925 122.4 170.693 122.4Z" fill="white"/>
<path d="M87.1618 153.672C86.0548 153.672 85.2022 153.364 84.6041 152.748C84.0149 152.123 83.7203 151.226 83.7203 150.057V143.977H84.8853V149.923C84.8853 150.423 84.93 150.851 85.0192 151.208C85.1085 151.557 85.2469 151.842 85.4343 152.065C85.6218 152.289 85.8584 152.454 86.1441 152.561C86.4387 152.659 86.7868 152.708 87.1885 152.708C87.5724 152.708 87.9116 152.663 88.2062 152.574C88.5098 152.485 88.7642 152.329 88.9695 152.106C89.1838 151.882 89.3445 151.583 89.4516 151.208C89.5676 150.824 89.6257 150.338 89.6257 149.749V143.977H90.7907V149.909C90.7907 151.079 90.4916 151.998 89.8935 152.668C89.3043 153.338 88.3937 153.672 87.1618 153.672ZM93.1357 146.548H94.2472V147.66C94.4079 147.329 94.6757 147.044 95.0506 146.803C95.4345 146.553 95.9166 146.428 96.4968 146.428C96.8539 146.428 97.1842 146.481 97.4878 146.589C97.7913 146.687 98.0502 146.852 98.2644 147.084C98.4876 147.307 98.6572 147.597 98.7733 147.954C98.8983 148.311 98.9608 148.744 98.9608 149.253V153.552H97.8493V149.173C97.8493 148.557 97.7154 148.106 97.4476 147.82C97.1798 147.535 96.7647 147.392 96.2022 147.392C95.9434 147.392 95.6934 147.432 95.4524 147.512C95.2203 147.593 95.0149 147.713 94.8364 147.874C94.6578 148.035 94.515 148.236 94.4079 148.477C94.3007 148.718 94.2472 148.994 94.2472 149.307V153.552H93.1357V146.548ZM104.215 153.672C103.724 153.672 103.268 153.592 102.849 153.431C102.438 153.262 102.077 153.025 101.764 152.722C101.461 152.409 101.22 152.034 101.041 151.597C100.871 151.159 100.787 150.668 100.787 150.124V150.017C100.787 149.481 100.876 148.994 101.054 148.557C101.233 148.111 101.474 147.731 101.778 147.419C102.09 147.106 102.452 146.865 102.862 146.696C103.273 146.517 103.715 146.428 104.188 146.428C104.554 146.428 104.907 146.472 105.246 146.562C105.594 146.651 105.902 146.794 106.17 146.99C106.446 147.178 106.679 147.428 106.866 147.74C107.054 148.053 107.174 148.432 107.228 148.878H106.13C106.04 148.325 105.813 147.932 105.447 147.7C105.09 147.468 104.67 147.352 104.188 147.352C103.867 147.352 103.567 147.414 103.291 147.539C103.023 147.664 102.786 147.843 102.581 148.075C102.385 148.298 102.228 148.575 102.112 148.905C101.996 149.235 101.938 149.606 101.938 150.017V150.124C101.938 150.99 102.148 151.646 102.568 152.092C102.996 152.53 103.55 152.748 104.228 152.748C104.478 152.748 104.715 152.713 104.938 152.641C105.17 152.57 105.375 152.463 105.554 152.32C105.741 152.177 105.893 151.998 106.009 151.784C106.134 151.57 106.21 151.32 106.237 151.034H107.268C107.232 151.409 107.129 151.762 106.96 152.092C106.799 152.414 106.585 152.69 106.317 152.922C106.049 153.154 105.737 153.338 105.38 153.471C105.023 153.605 104.634 153.672 104.215 153.672ZM112.022 152.748C112.37 152.748 112.687 152.686 112.973 152.561C113.258 152.436 113.499 152.257 113.696 152.025C113.892 151.793 114.044 151.516 114.151 151.195C114.258 150.865 114.312 150.503 114.312 150.11V150.017C114.312 149.615 114.258 149.249 114.151 148.919C114.044 148.588 113.888 148.307 113.682 148.075C113.486 147.843 113.245 147.664 112.959 147.539C112.683 147.414 112.37 147.352 112.022 147.352C111.674 147.352 111.357 147.414 111.071 147.539C110.786 147.664 110.544 147.843 110.348 148.075C110.152 148.307 110 148.588 109.893 148.919C109.786 149.24 109.732 149.601 109.732 150.003V150.11C109.732 150.914 109.933 151.557 110.335 152.039C110.745 152.512 111.308 152.748 112.022 152.748ZM112.009 153.672C111.509 153.672 111.049 153.583 110.629 153.404C110.21 153.226 109.848 152.98 109.545 152.668C109.241 152.347 109.005 151.967 108.835 151.53C108.665 151.092 108.581 150.619 108.581 150.11V150.003C108.581 149.476 108.665 148.994 108.835 148.557C109.013 148.12 109.255 147.745 109.558 147.432C109.862 147.111 110.223 146.865 110.643 146.696C111.062 146.517 111.522 146.428 112.022 146.428C112.513 146.428 112.968 146.517 113.388 146.696C113.816 146.865 114.182 147.106 114.486 147.419C114.789 147.731 115.026 148.106 115.196 148.544C115.374 148.981 115.463 149.463 115.463 149.99V150.097C115.463 150.624 115.374 151.11 115.196 151.557C115.026 151.994 114.785 152.369 114.472 152.681C114.169 152.994 113.807 153.239 113.388 153.418C112.968 153.587 112.508 153.672 112.009 153.672ZM117.354 146.548H118.466V147.62C118.626 147.289 118.885 147.008 119.242 146.776C119.608 146.544 120.046 146.428 120.555 146.428C121.01 146.428 121.421 146.53 121.787 146.736C122.153 146.932 122.425 147.267 122.604 147.74C122.72 147.517 122.871 147.325 123.059 147.164C123.246 146.995 123.447 146.856 123.661 146.749C123.876 146.642 124.099 146.562 124.331 146.508C124.563 146.455 124.786 146.428 125 146.428C125.313 146.428 125.612 146.477 125.898 146.575C126.183 146.673 126.433 146.834 126.648 147.057C126.862 147.28 127.031 147.571 127.156 147.928C127.29 148.276 127.357 148.704 127.357 149.213V153.552H126.246V149.133C126.246 148.517 126.116 148.075 125.858 147.807C125.608 147.53 125.242 147.392 124.759 147.392C124.527 147.392 124.3 147.432 124.077 147.512C123.862 147.584 123.666 147.7 123.487 147.861C123.318 148.012 123.179 148.209 123.072 148.45C122.965 148.682 122.912 148.954 122.912 149.267V153.552H121.8V149.133C121.8 148.517 121.671 148.075 121.412 147.807C121.162 147.53 120.796 147.392 120.314 147.392C120.082 147.392 119.854 147.432 119.631 147.512C119.417 147.584 119.22 147.7 119.042 147.861C118.872 148.012 118.734 148.209 118.626 148.45C118.519 148.682 118.466 148.954 118.466 149.267V153.552H117.354V146.548ZM129.699 146.548H130.81V147.62C130.971 147.289 131.23 147.008 131.587 146.776C131.953 146.544 132.391 146.428 132.899 146.428C133.355 146.428 133.765 146.53 134.131 146.736C134.497 146.932 134.77 147.267 134.948 147.74C135.064 147.517 135.216 147.325 135.403 147.164C135.591 146.995 135.792 146.856 136.006 146.749C136.22 146.642 136.444 146.562 136.676 146.508C136.908 146.455 137.131 146.428 137.345 146.428C137.658 146.428 137.957 146.477 138.242 146.575C138.528 146.673 138.778 146.834 138.992 147.057C139.206 147.28 139.376 147.571 139.501 147.928C139.635 148.276 139.702 148.704 139.702 149.213V153.552H138.591V149.133C138.591 148.517 138.461 148.075 138.202 147.807C137.952 147.53 137.586 147.392 137.104 147.392C136.872 147.392 136.644 147.432 136.421 147.512C136.207 147.584 136.011 147.7 135.832 147.861C135.662 148.012 135.524 148.209 135.417 148.45C135.31 148.682 135.256 148.954 135.256 149.267V153.552H134.145V149.133C134.145 148.517 134.015 148.075 133.756 147.807C133.506 147.53 133.14 147.392 132.658 147.392C132.426 147.392 132.199 147.432 131.975 147.512C131.761 147.584 131.565 147.7 131.386 147.861C131.217 148.012 131.078 148.209 130.971 148.45C130.864 148.682 130.81 148.954 130.81 149.267V153.552H129.699V146.548ZM142.07 146.548H143.182V153.552H142.07V146.548ZM142.606 145.089C142.401 145.089 142.227 145.017 142.084 144.874C141.941 144.732 141.87 144.558 141.87 144.352C141.87 144.147 141.941 143.973 142.084 143.83C142.227 143.687 142.401 143.616 142.606 143.616C142.811 143.616 142.986 143.687 143.128 143.83C143.271 143.973 143.343 144.147 143.343 144.352C143.343 144.558 143.271 144.732 143.128 144.874C142.986 145.017 142.811 145.089 142.606 145.089ZM147.743 153.645C147.1 153.645 146.622 153.476 146.31 153.137C146.007 152.797 145.855 152.351 145.855 151.798V147.486H144.85V146.548H145.855V144.955H146.966V146.548H148.6V147.486H146.966V151.69C146.966 152.369 147.256 152.708 147.837 152.708C148.015 152.708 148.171 152.695 148.305 152.668C148.439 152.641 148.569 152.605 148.694 152.561V153.498C148.578 153.543 148.448 153.579 148.305 153.605C148.162 153.632 147.975 153.645 147.743 153.645ZM153.396 153.672C152.896 153.672 152.441 153.587 152.03 153.418C151.62 153.248 151.263 153.012 150.959 152.708C150.656 152.396 150.419 152.021 150.249 151.583C150.089 151.146 150.008 150.659 150.008 150.124V150.017C150.008 149.49 150.089 149.008 150.249 148.57C150.41 148.124 150.633 147.745 150.919 147.432C151.214 147.111 151.562 146.865 151.963 146.696C152.365 146.517 152.807 146.428 153.289 146.428C153.691 146.428 154.079 146.495 154.454 146.629C154.838 146.754 155.177 146.955 155.472 147.231C155.766 147.508 155.999 147.87 156.168 148.316C156.347 148.753 156.436 149.285 156.436 149.909V150.271H151.16C151.187 151.074 151.388 151.69 151.763 152.119C152.138 152.539 152.687 152.748 153.41 152.748C154.508 152.748 155.128 152.342 155.271 151.53H156.382C156.257 152.235 155.927 152.771 155.392 153.137C154.856 153.494 154.191 153.672 153.396 153.672ZM155.298 149.374C155.244 148.651 155.039 148.133 154.682 147.82C154.334 147.508 153.869 147.352 153.289 147.352C152.718 147.352 152.249 147.535 151.883 147.901C151.526 148.258 151.298 148.749 151.2 149.374H155.298ZM160.936 153.672C160.481 153.672 160.057 153.596 159.664 153.445C159.28 153.284 158.946 153.056 158.66 152.762C158.383 152.458 158.164 152.092 158.004 151.664C157.852 151.226 157.776 150.735 157.776 150.191V150.084C157.776 149.548 157.856 149.057 158.017 148.611C158.178 148.164 158.401 147.78 158.687 147.459C158.972 147.129 159.316 146.874 159.718 146.696C160.12 146.517 160.561 146.428 161.044 146.428C161.633 146.428 162.11 146.553 162.476 146.803C162.842 147.044 163.128 147.334 163.333 147.673V143.201H164.445V153.552H163.333V152.347C163.235 152.516 163.101 152.681 162.932 152.842C162.762 153.003 162.57 153.146 162.356 153.271C162.15 153.387 161.923 153.48 161.673 153.552C161.432 153.632 161.186 153.672 160.936 153.672ZM161.057 152.748C161.378 152.748 161.682 152.695 161.967 152.588C162.253 152.48 162.499 152.32 162.704 152.106C162.909 151.882 163.07 151.606 163.186 151.275C163.311 150.936 163.374 150.543 163.374 150.097V149.99C163.374 149.088 163.173 148.423 162.771 147.995C162.378 147.566 161.838 147.352 161.151 147.352C160.454 147.352 159.91 147.584 159.517 148.048C159.124 148.512 158.928 149.173 158.928 150.03V150.137C158.928 150.583 158.981 150.972 159.088 151.302C159.204 151.623 159.356 151.891 159.544 152.106C159.74 152.32 159.968 152.48 160.227 152.588C160.486 152.695 160.762 152.748 161.057 152.748ZM170.636 147.486H169.631V146.548H170.636V145.41C170.636 144.696 170.81 144.142 171.158 143.75C171.506 143.357 172.028 143.16 172.725 143.16C172.903 143.16 173.05 143.174 173.167 143.201C173.283 143.218 173.412 143.25 173.555 143.294V144.232C173.457 144.187 173.336 144.151 173.193 144.125C173.059 144.098 172.917 144.084 172.765 144.084C172.399 144.084 172.135 144.196 171.975 144.419C171.823 144.642 171.747 144.933 171.747 145.29V146.548H173.461V147.486H171.747V153.552H170.636V147.486ZM175.221 146.548H176.332V153.552H175.221V146.548ZM175.756 145.089C175.551 145.089 175.377 145.017 175.234 144.874C175.091 144.732 175.02 144.558 175.02 144.352C175.02 144.147 175.091 143.973 175.234 143.83C175.377 143.687 175.551 143.616 175.756 143.616C175.962 143.616 176.136 143.687 176.279 143.83C176.421 143.973 176.493 144.147 176.493 144.352C176.493 144.558 176.421 144.732 176.279 144.874C176.136 145.017 175.962 145.089 175.756 145.089ZM178.791 143.201H179.915V153.552H178.791V143.201ZM185.213 153.672C184.713 153.672 184.257 153.587 183.847 153.418C183.436 153.248 183.079 153.012 182.775 152.708C182.472 152.396 182.235 152.021 182.066 151.583C181.905 151.146 181.825 150.659 181.825 150.124V150.017C181.825 149.49 181.905 149.008 182.066 148.57C182.226 148.124 182.45 147.745 182.735 147.432C183.03 147.111 183.378 146.865 183.78 146.696C184.182 146.517 184.623 146.428 185.105 146.428C185.507 146.428 185.896 146.495 186.27 146.629C186.654 146.754 186.994 146.955 187.288 147.231C187.583 147.508 187.815 147.87 187.985 148.316C188.163 148.753 188.252 149.285 188.252 149.909V150.271H182.976C183.003 151.074 183.204 151.69 183.579 152.119C183.954 152.539 184.503 152.748 185.226 152.748C186.324 152.748 186.944 152.342 187.087 151.53H188.199C188.074 152.235 187.743 152.771 187.208 153.137C186.672 153.494 186.007 153.672 185.213 153.672ZM187.114 149.374C187.061 148.651 186.855 148.133 186.498 147.82C186.15 147.508 185.686 147.352 185.105 147.352C184.534 147.352 184.065 147.535 183.699 147.901C183.342 148.258 183.115 148.749 183.017 149.374H187.114ZM192.349 153.672C191.51 153.672 190.85 153.476 190.368 153.083C189.894 152.681 189.64 152.119 189.604 151.396H190.689C190.734 151.815 190.876 152.146 191.117 152.387C191.367 152.628 191.774 152.748 192.336 152.748C192.872 152.748 193.26 152.659 193.501 152.48C193.742 152.293 193.863 152.012 193.863 151.637C193.863 151.271 193.724 151.007 193.447 150.847C193.18 150.686 192.773 150.557 192.229 150.458C191.774 150.378 191.39 150.284 191.077 150.177C190.765 150.061 190.515 149.923 190.327 149.762C190.14 149.601 190.002 149.41 189.912 149.186C189.832 148.963 189.792 148.7 189.792 148.396C189.792 148.075 189.863 147.794 190.006 147.553C190.149 147.303 190.332 147.097 190.555 146.937C190.787 146.767 191.042 146.642 191.318 146.562C191.604 146.472 191.885 146.428 192.162 146.428C192.474 146.428 192.773 146.464 193.059 146.535C193.345 146.597 193.599 146.709 193.822 146.87C194.054 147.03 194.246 147.24 194.398 147.499C194.55 147.758 194.648 148.075 194.693 148.45H193.622C193.541 148.066 193.385 147.789 193.153 147.62C192.93 147.441 192.595 147.352 192.149 147.352C191.747 147.352 191.425 147.446 191.184 147.633C190.943 147.812 190.823 148.053 190.823 148.356C190.823 148.517 190.845 148.655 190.89 148.771C190.943 148.878 191.033 148.977 191.158 149.066C191.283 149.146 191.448 149.222 191.653 149.293C191.867 149.356 192.135 149.414 192.457 149.468C192.814 149.539 193.144 149.619 193.447 149.709C193.751 149.789 194.01 149.905 194.224 150.057C194.447 150.2 194.617 150.392 194.733 150.633C194.858 150.865 194.92 151.168 194.92 151.543C194.92 152.186 194.706 152.704 194.278 153.096C193.849 153.48 193.206 153.672 192.349 153.672Z" fill="white"/>
<path d="M84.2855 175.426H89.8829V176.376H85.4505V179.764H88.9054V180.715H85.4505V185H84.2855V175.426ZM91.5681 177.997H92.6796V185H91.5681V177.997ZM92.1038 176.537C91.8985 176.537 91.7244 176.466 91.5815 176.323C91.4387 176.18 91.3673 176.006 91.3673 175.8C91.3673 175.595 91.4387 175.421 91.5815 175.278C91.7244 175.135 91.8985 175.064 92.1038 175.064C92.3091 175.064 92.4832 175.135 92.626 175.278C92.7689 175.421 92.8403 175.595 92.8403 175.8C92.8403 176.006 92.7689 176.18 92.626 176.323C92.4832 176.466 92.3091 176.537 92.1038 176.537ZM95.1382 174.649H96.263V185H95.1382V174.649ZM101.56 185.121C101.06 185.121 100.605 185.036 100.194 184.866C99.7836 184.696 99.4265 184.46 99.123 184.156C98.8195 183.844 98.5829 183.469 98.4133 183.032C98.2526 182.594 98.1722 182.108 98.1722 181.572V181.465C98.1722 180.938 98.2526 180.456 98.4133 180.019C98.574 179.572 98.7971 179.193 99.0828 178.88C99.3774 178.559 99.7256 178.314 100.127 178.144C100.529 177.965 100.971 177.876 101.453 177.876C101.855 177.876 102.243 177.943 102.618 178.077C103.002 178.202 103.341 178.403 103.636 178.68C103.93 178.956 104.162 179.318 104.332 179.764C104.511 180.202 104.6 180.733 104.6 181.358V181.719H99.3238C99.3506 182.523 99.5515 183.139 99.9264 183.567C100.301 183.987 100.85 184.197 101.574 184.197C102.672 184.197 103.292 183.79 103.435 182.978H104.546C104.421 183.683 104.091 184.219 103.555 184.585C103.02 184.942 102.355 185.121 101.56 185.121ZM103.462 180.822C103.408 180.099 103.203 179.581 102.846 179.269C102.497 178.956 102.033 178.8 101.453 178.8C100.882 178.8 100.413 178.983 100.047 179.349C99.6899 179.706 99.4622 180.197 99.364 180.822H103.462ZM109.417 177.983L110.984 175.278L111.667 175.626L110.475 178.465L109.417 177.983ZM114.339 185.067C114.107 185.067 113.906 184.987 113.737 184.826C113.567 184.656 113.482 184.451 113.482 184.21C113.482 183.969 113.567 183.768 113.737 183.607C113.906 183.438 114.107 183.353 114.339 183.353C114.571 183.353 114.772 183.438 114.942 183.607C115.112 183.768 115.196 183.969 115.196 184.21C115.196 184.451 115.112 184.656 114.942 184.826C114.772 184.987 114.571 185.067 114.339 185.067ZM118.276 185.067C118.043 185.067 117.843 184.987 117.673 184.826C117.503 184.656 117.419 184.451 117.419 184.21C117.419 183.969 117.503 183.768 117.673 183.607C117.843 183.438 118.043 183.353 118.276 183.353C118.508 183.353 118.709 183.438 118.878 183.607C119.048 183.768 119.133 183.969 119.133 184.21C119.133 184.451 119.048 184.656 118.878 184.826C118.709 184.987 118.508 185.067 118.276 185.067ZM122.212 185.067C121.98 185.067 121.779 184.987 121.609 184.826C121.44 184.656 121.355 184.451 121.355 184.21C121.355 183.969 121.44 183.768 121.609 183.607C121.779 183.438 121.98 183.353 122.212 183.353C122.444 183.353 122.645 183.438 122.814 183.607C122.984 183.768 123.069 183.969 123.069 184.21C123.069 184.451 122.984 184.656 122.814 184.826C122.645 184.987 122.444 185.067 122.212 185.067ZM128.237 174.609H129.255L125.358 186.982H124.34L128.237 174.609ZM132.666 185.094C132.023 185.094 131.546 184.924 131.233 184.585C130.93 184.246 130.778 183.799 130.778 183.246V178.934H129.774V177.997H130.778V176.403H131.889V177.997H133.523V178.934H131.889V183.139C131.889 183.817 132.18 184.156 132.76 184.156C132.938 184.156 133.095 184.143 133.229 184.116C133.362 184.089 133.492 184.054 133.617 184.009V184.946C133.501 184.991 133.371 185.027 133.229 185.054C133.086 185.08 132.898 185.094 132.666 185.094ZM138.32 185.121C137.82 185.121 137.364 185.036 136.954 184.866C136.543 184.696 136.186 184.46 135.882 184.156C135.579 183.844 135.342 183.469 135.173 183.032C135.012 182.594 134.932 182.108 134.932 181.572V181.465C134.932 180.938 135.012 180.456 135.173 180.019C135.333 179.572 135.557 179.193 135.842 178.88C136.137 178.559 136.485 178.314 136.887 178.144C137.288 177.965 137.73 177.876 138.212 177.876C138.614 177.876 139.002 177.943 139.377 178.077C139.761 178.202 140.101 178.403 140.395 178.68C140.69 178.956 140.922 179.318 141.091 179.764C141.27 180.202 141.359 180.733 141.359 181.358V181.719H136.083C136.11 182.523 136.311 183.139 136.686 183.567C137.061 183.987 137.61 184.197 138.333 184.197C139.431 184.197 140.051 183.79 140.194 182.978H141.306C141.181 183.683 140.85 184.219 140.315 184.585C139.779 184.942 139.114 185.121 138.32 185.121ZM140.221 180.822C140.167 180.099 139.962 179.581 139.605 179.269C139.257 178.956 138.793 178.8 138.212 178.8C137.641 178.8 137.172 178.983 136.806 179.349C136.449 179.706 136.222 180.197 136.123 180.822H140.221ZM143.222 177.997H144.333V179.068C144.494 178.738 144.753 178.456 145.11 178.224C145.476 177.992 145.913 177.876 146.422 177.876C146.877 177.876 147.288 177.979 147.654 178.184C148.02 178.38 148.292 178.715 148.471 179.188C148.587 178.965 148.739 178.773 148.926 178.613C149.114 178.443 149.314 178.305 149.529 178.197C149.743 178.09 149.966 178.01 150.198 177.956C150.43 177.903 150.654 177.876 150.868 177.876C151.18 177.876 151.479 177.925 151.765 178.023C152.051 178.122 152.301 178.282 152.515 178.505C152.729 178.729 152.899 179.019 153.024 179.376C153.158 179.724 153.225 180.153 153.225 180.661V185H152.113V180.581C152.113 179.965 151.984 179.523 151.725 179.255C151.475 178.979 151.109 178.84 150.627 178.84C150.395 178.84 150.167 178.88 149.944 178.961C149.73 179.032 149.533 179.148 149.355 179.309C149.185 179.461 149.047 179.657 148.94 179.898C148.832 180.13 148.779 180.402 148.779 180.715V185H147.667V180.581C147.667 179.965 147.538 179.523 147.279 179.255C147.029 178.979 146.663 178.84 146.181 178.84C145.949 178.84 145.721 178.88 145.498 178.961C145.284 179.032 145.087 179.148 144.909 179.309C144.739 179.461 144.601 179.657 144.494 179.898C144.387 180.13 144.333 180.402 144.333 180.715V185H143.222V177.997ZM155.566 177.997H156.678V179.175C156.776 179.005 156.905 178.845 157.066 178.693C157.236 178.532 157.423 178.394 157.628 178.278C157.834 178.153 158.057 178.055 158.298 177.983C158.539 177.912 158.789 177.876 159.048 177.876C159.503 177.876 159.927 177.956 160.32 178.117C160.713 178.278 161.048 178.51 161.324 178.813C161.61 179.117 161.833 179.487 161.994 179.925C162.155 180.362 162.235 180.853 162.235 181.398V181.505C162.235 182.041 162.159 182.532 162.007 182.978C161.856 183.415 161.641 183.795 161.365 184.116C161.088 184.438 160.753 184.688 160.36 184.866C159.967 185.036 159.53 185.121 159.048 185.121C158.468 185.121 157.977 184.996 157.575 184.746C157.182 184.496 156.883 184.197 156.678 183.848V187.437H155.566V177.997ZM158.941 184.197C159.637 184.197 160.168 183.973 160.534 183.527C160.9 183.072 161.083 182.416 161.083 181.559V181.451C161.083 181.014 161.025 180.63 160.909 180.3C160.793 179.961 160.637 179.684 160.441 179.47C160.253 179.246 160.025 179.081 159.758 178.974C159.499 178.858 159.222 178.8 158.927 178.8C158.606 178.8 158.302 178.854 158.017 178.961C157.74 179.068 157.499 179.233 157.294 179.456C157.088 179.67 156.928 179.947 156.812 180.286C156.696 180.617 156.638 181.005 156.638 181.451V181.559C156.638 182.005 156.691 182.393 156.798 182.724C156.914 183.054 157.071 183.331 157.267 183.554C157.472 183.768 157.718 183.929 158.003 184.036C158.289 184.143 158.602 184.197 158.941 184.197ZM164.145 174.649H165.27V185H164.145V174.649ZM169.456 185.121C169.135 185.121 168.831 185.08 168.545 185C168.26 184.92 168.01 184.795 167.795 184.625C167.59 184.455 167.425 184.241 167.3 183.982C167.184 183.723 167.126 183.415 167.126 183.058C167.126 182.657 167.224 182.317 167.421 182.041C167.617 181.764 167.876 181.541 168.197 181.371C168.528 181.201 168.902 181.081 169.322 181.01C169.751 180.929 170.188 180.889 170.634 180.889H171.639V180.38C171.639 179.818 171.523 179.416 171.29 179.175C171.058 178.925 170.675 178.8 170.139 178.8C169.175 178.8 168.639 179.22 168.532 180.059H167.421C167.456 179.657 167.554 179.318 167.715 179.041C167.885 178.764 168.095 178.541 168.345 178.372C168.603 178.193 168.889 178.068 169.202 177.997C169.523 177.916 169.853 177.876 170.192 177.876C170.523 177.876 170.844 177.916 171.157 177.997C171.469 178.068 171.741 178.202 171.973 178.398C172.206 178.586 172.393 178.84 172.536 179.162C172.679 179.483 172.75 179.889 172.75 180.38V185H171.639V184.116C171.38 184.447 171.081 184.696 170.741 184.866C170.402 185.036 169.974 185.121 169.456 185.121ZM169.563 184.237C169.858 184.237 170.13 184.201 170.38 184.13C170.639 184.049 170.858 183.938 171.036 183.795C171.224 183.652 171.371 183.478 171.478 183.273C171.585 183.058 171.639 182.817 171.639 182.549V181.679H170.675C170.326 181.679 170.001 181.706 169.697 181.759C169.402 181.804 169.143 181.88 168.92 181.987C168.706 182.094 168.536 182.237 168.411 182.416C168.295 182.585 168.237 182.799 168.237 183.058C168.237 183.424 168.336 183.714 168.532 183.929C168.728 184.134 169.072 184.237 169.563 184.237ZM177.219 185.094C176.577 185.094 176.099 184.924 175.787 184.585C175.483 184.246 175.331 183.799 175.331 183.246V178.934H174.327V177.997H175.331V176.403H176.443V177.997H178.076V178.934H176.443V183.139C176.443 183.817 176.733 184.156 177.313 184.156C177.492 184.156 177.648 184.143 177.782 184.116C177.916 184.089 178.045 184.054 178.17 184.009V184.946C178.054 184.991 177.925 185.027 177.782 185.054C177.639 185.08 177.451 185.094 177.219 185.094ZM182.873 185.121C182.373 185.121 181.918 185.036 181.507 184.866C181.096 184.696 180.739 184.46 180.436 184.156C180.132 183.844 179.896 183.469 179.726 183.032C179.565 182.594 179.485 182.108 179.485 181.572V181.465C179.485 180.938 179.565 180.456 179.726 180.019C179.887 179.572 180.11 179.193 180.396 178.88C180.69 178.559 181.038 178.314 181.44 178.144C181.842 177.965 182.284 177.876 182.766 177.876C183.167 177.876 183.556 177.943 183.931 178.077C184.315 178.202 184.654 178.403 184.948 178.68C185.243 178.956 185.475 179.318 185.645 179.764C185.823 180.202 185.913 180.733 185.913 181.358V181.719H180.637C180.663 182.523 180.864 183.139 181.239 183.567C181.614 183.987 182.163 184.197 182.886 184.197C183.984 184.197 184.605 183.79 184.748 182.978H185.859C185.734 183.683 185.404 184.219 184.868 184.585C184.332 184.942 183.667 185.121 182.873 185.121ZM184.774 180.822C184.721 180.099 184.515 179.581 184.158 179.269C183.81 178.956 183.346 178.8 182.766 178.8C182.194 178.8 181.726 178.983 181.36 179.349C181.003 179.706 180.775 180.197 180.677 180.822H184.774ZM190.01 185.121C189.17 185.121 188.51 184.924 188.028 184.531C187.555 184.13 187.3 183.567 187.265 182.844H188.349C188.394 183.264 188.537 183.594 188.778 183.835C189.028 184.076 189.434 184.197 189.996 184.197C190.532 184.197 190.92 184.107 191.161 183.929C191.402 183.741 191.523 183.46 191.523 183.085C191.523 182.719 191.384 182.456 191.108 182.295C190.84 182.134 190.434 182.005 189.889 181.907C189.434 181.826 189.05 181.733 188.738 181.626C188.425 181.509 188.175 181.371 187.988 181.21C187.8 181.05 187.662 180.858 187.572 180.635C187.492 180.411 187.452 180.148 187.452 179.845C187.452 179.523 187.523 179.242 187.666 179.001C187.809 178.751 187.992 178.546 188.215 178.385C188.447 178.215 188.702 178.09 188.979 178.01C189.264 177.921 189.545 177.876 189.822 177.876C190.135 177.876 190.434 177.912 190.719 177.983C191.005 178.046 191.259 178.157 191.483 178.318C191.715 178.479 191.907 178.688 192.058 178.947C192.21 179.206 192.308 179.523 192.353 179.898H191.282C191.201 179.514 191.045 179.237 190.813 179.068C190.59 178.889 190.255 178.8 189.809 178.8C189.407 178.8 189.086 178.894 188.845 179.081C188.604 179.26 188.483 179.501 188.483 179.804C188.483 179.965 188.505 180.103 188.55 180.219C188.604 180.327 188.693 180.425 188.818 180.514C188.943 180.594 189.108 180.67 189.313 180.742C189.528 180.804 189.795 180.862 190.117 180.916C190.474 180.987 190.804 181.068 191.108 181.157C191.411 181.237 191.67 181.353 191.884 181.505C192.108 181.648 192.277 181.84 192.393 182.081C192.518 182.313 192.581 182.616 192.581 182.991C192.581 183.634 192.366 184.152 191.938 184.545C191.509 184.929 190.867 185.121 190.01 185.121ZM197.153 174.609H198.17L194.274 186.982H193.256L197.153 174.609ZM203.34 185.121C202.768 185.121 202.282 184.996 201.88 184.746C201.478 184.496 201.175 184.197 200.97 183.848V185H199.858V174.649H200.97V179.175C201.068 179.005 201.197 178.845 201.358 178.693C201.527 178.532 201.715 178.394 201.92 178.278C202.126 178.153 202.349 178.055 202.59 177.983C202.831 177.912 203.081 177.876 203.34 177.876C203.795 177.876 204.219 177.956 204.612 178.117C205.005 178.278 205.339 178.51 205.616 178.813C205.902 179.117 206.125 179.487 206.286 179.925C206.446 180.362 206.527 180.853 206.527 181.398V181.505C206.527 182.041 206.451 182.532 206.299 182.978C206.147 183.415 205.933 183.795 205.656 184.116C205.38 184.438 205.045 184.688 204.652 184.866C204.259 185.036 203.822 185.121 203.34 185.121ZM203.233 184.197C203.929 184.197 204.46 183.973 204.826 183.527C205.192 183.072 205.375 182.416 205.375 181.559V181.451C205.375 181.014 205.317 180.63 205.201 180.3C205.085 179.961 204.929 179.684 204.732 179.47C204.545 179.246 204.317 179.081 204.049 178.974C203.791 178.858 203.514 178.8 203.219 178.8C202.898 178.8 202.594 178.854 202.309 178.961C202.032 179.068 201.791 179.233 201.585 179.456C201.38 179.67 201.219 179.947 201.103 180.286C200.987 180.617 200.929 181.005 200.929 181.451V181.559C200.929 182.005 200.983 182.393 201.09 182.724C201.206 183.054 201.362 183.331 201.559 183.554C201.764 183.768 202.01 183.929 202.295 184.036C202.581 184.143 202.893 184.197 203.233 184.197ZM210.165 185.121C209.843 185.121 209.54 185.08 209.254 185C208.968 184.92 208.718 184.795 208.504 184.625C208.299 184.455 208.134 184.241 208.009 183.982C207.893 183.723 207.835 183.415 207.835 183.058C207.835 182.657 207.933 182.317 208.129 182.041C208.326 181.764 208.585 181.541 208.906 181.371C209.236 181.201 209.611 181.081 210.031 181.01C210.459 180.929 210.897 180.889 211.343 180.889H212.347V180.38C212.347 179.818 212.231 179.416 211.999 179.175C211.767 178.925 211.383 178.8 210.848 178.8C209.883 178.8 209.348 179.22 209.241 180.059H208.129C208.165 179.657 208.263 179.318 208.424 179.041C208.593 178.764 208.803 178.541 209.053 178.372C209.312 178.193 209.598 178.068 209.91 177.997C210.232 177.916 210.562 177.876 210.901 177.876C211.231 177.876 211.553 177.916 211.865 177.997C212.178 178.068 212.45 178.202 212.682 178.398C212.914 178.586 213.102 178.84 213.245 179.162C213.387 179.483 213.459 179.889 213.459 180.38V185H212.347V184.116C212.088 184.447 211.789 184.696 211.45 184.866C211.111 185.036 210.682 185.121 210.165 185.121ZM210.272 184.237C210.566 184.237 210.839 184.201 211.089 184.13C211.347 184.049 211.566 183.938 211.745 183.795C211.932 183.652 212.08 183.478 212.187 183.273C212.294 183.058 212.347 182.817 212.347 182.549V181.679H211.383C211.035 181.679 210.709 181.706 210.406 181.759C210.111 181.804 209.852 181.88 209.629 181.987C209.415 182.094 209.245 182.237 209.12 182.416C209.004 182.585 208.946 182.799 208.946 183.058C208.946 183.424 209.044 183.714 209.241 183.929C209.437 184.134 209.781 184.237 210.272 184.237ZM217.968 185.121C217.129 185.121 216.468 184.924 215.986 184.531C215.513 184.13 215.259 183.567 215.223 182.844H216.308C216.352 183.264 216.495 183.594 216.736 183.835C216.986 184.076 217.392 184.197 217.955 184.197C218.49 184.197 218.879 184.107 219.12 183.929C219.361 183.741 219.481 183.46 219.481 183.085C219.481 182.719 219.343 182.456 219.066 182.295C218.798 182.134 218.392 182.005 217.848 181.907C217.392 181.826 217.009 181.733 216.696 181.626C216.384 181.509 216.134 181.371 215.946 181.21C215.759 181.05 215.62 180.858 215.531 180.635C215.451 180.411 215.411 180.148 215.411 179.845C215.411 179.523 215.482 179.242 215.625 179.001C215.768 178.751 215.951 178.546 216.174 178.385C216.406 178.215 216.66 178.09 216.937 178.01C217.223 177.921 217.504 177.876 217.781 177.876C218.093 177.876 218.392 177.912 218.678 177.983C218.964 178.046 219.218 178.157 219.441 178.318C219.673 178.479 219.865 178.688 220.017 178.947C220.169 179.206 220.267 179.523 220.312 179.898H219.24C219.16 179.514 219.004 179.237 218.772 179.068C218.548 178.889 218.214 178.8 217.767 178.8C217.366 178.8 217.044 178.894 216.803 179.081C216.562 179.26 216.442 179.501 216.442 179.804C216.442 179.965 216.464 180.103 216.509 180.219C216.562 180.327 216.651 180.425 216.776 180.514C216.901 180.594 217.067 180.67 217.272 180.742C217.486 180.804 217.754 180.862 218.075 180.916C218.432 180.987 218.763 181.068 219.066 181.157C219.37 181.237 219.629 181.353 219.843 181.505C220.066 181.648 220.236 181.84 220.352 182.081C220.477 182.313 220.539 182.616 220.539 182.991C220.539 183.634 220.325 184.152 219.897 184.545C219.468 184.929 218.825 185.121 217.968 185.121ZM225.255 185.121C224.755 185.121 224.3 185.036 223.889 184.866C223.479 184.696 223.122 184.46 222.818 184.156C222.515 183.844 222.278 183.469 222.109 183.032C221.948 182.594 221.867 182.108 221.867 181.572V181.465C221.867 180.938 221.948 180.456 222.109 180.019C222.269 179.572 222.492 179.193 222.778 178.88C223.073 178.559 223.421 178.314 223.823 178.144C224.224 177.965 224.666 177.876 225.148 177.876C225.55 177.876 225.938 177.943 226.313 178.077C226.697 178.202 227.036 178.403 227.331 178.68C227.626 178.956 227.858 179.318 228.027 179.764C228.206 180.202 228.295 180.733 228.295 181.358V181.719H223.019C223.046 182.523 223.247 183.139 223.622 183.567C223.997 183.987 224.546 184.197 225.269 184.197C226.367 184.197 226.987 183.79 227.13 182.978H228.242C228.117 183.683 227.786 184.219 227.251 184.585C226.715 184.942 226.05 185.121 225.255 185.121ZM227.157 180.822C227.103 180.099 226.898 179.581 226.541 179.269C226.193 178.956 225.728 178.8 225.148 178.8C224.577 178.8 224.108 178.983 223.742 179.349C223.385 179.706 223.157 180.197 223.059 180.822H227.157ZM230.855 185.067C230.623 185.067 230.422 184.987 230.253 184.826C230.083 184.656 229.998 184.451 229.998 184.21C229.998 183.969 230.083 183.768 230.253 183.607C230.422 183.438 230.623 183.353 230.855 183.353C231.087 183.353 231.288 183.438 231.458 183.607C231.628 183.768 231.712 183.969 231.712 184.21C231.712 184.451 231.628 184.656 231.458 184.826C231.288 184.987 231.087 185.067 230.855 185.067ZM234.028 174.649H235.14V179.108C235.3 178.778 235.568 178.492 235.943 178.251C236.327 178.001 236.809 177.876 237.389 177.876C237.746 177.876 238.077 177.93 238.38 178.037C238.684 178.135 238.943 178.3 239.157 178.532C239.38 178.755 239.55 179.046 239.666 179.403C239.791 179.76 239.853 180.193 239.853 180.702V185H238.742V180.621C238.742 180.005 238.608 179.554 238.34 179.269C238.072 178.983 237.657 178.84 237.095 178.84C236.836 178.84 236.586 178.88 236.345 178.961C236.113 179.041 235.907 179.162 235.729 179.322C235.55 179.483 235.407 179.684 235.3 179.925C235.193 180.166 235.14 180.443 235.14 180.755V185H234.028V174.649ZM244.331 185.094C243.688 185.094 243.21 184.924 242.898 184.585C242.594 184.246 242.442 183.799 242.442 183.246V178.934H241.438V177.997H242.442V176.403H243.554V177.997H245.188V178.934H243.554V183.139C243.554 183.817 243.844 184.156 244.424 184.156C244.603 184.156 244.759 184.143 244.893 184.116C245.027 184.089 245.156 184.054 245.281 184.009V184.946C245.165 184.991 245.036 185.027 244.893 185.054C244.75 185.08 244.563 185.094 244.331 185.094ZM247.118 177.997H248.23V179.068C248.39 178.738 248.649 178.456 249.006 178.224C249.372 177.992 249.81 177.876 250.319 177.876C250.774 177.876 251.185 177.979 251.551 178.184C251.917 178.38 252.189 178.715 252.368 179.188C252.484 178.965 252.635 178.773 252.823 178.613C253.01 178.443 253.211 178.305 253.425 178.197C253.64 178.09 253.863 178.01 254.095 177.956C254.327 177.903 254.55 177.876 254.764 177.876C255.077 177.876 255.376 177.925 255.662 178.023C255.947 178.122 256.197 178.282 256.412 178.505C256.626 178.729 256.795 179.019 256.92 179.376C257.054 179.724 257.121 180.153 257.121 180.661V185H256.01V180.581C256.01 179.965 255.88 179.523 255.621 179.255C255.372 178.979 255.006 178.84 254.523 178.84C254.291 178.84 254.064 178.88 253.841 178.961C253.626 179.032 253.43 179.148 253.251 179.309C253.082 179.461 252.943 179.657 252.836 179.898C252.729 180.13 252.676 180.402 252.676 180.715V185H251.564V180.581C251.564 179.965 251.435 179.523 251.176 179.255C250.926 178.979 250.56 178.84 250.078 178.84C249.846 178.84 249.618 178.88 249.395 178.961C249.18 179.032 248.984 179.148 248.806 179.309C248.636 179.461 248.498 179.657 248.39 179.898C248.283 180.13 248.23 180.402 248.23 180.715V185H247.118V177.997ZM259.49 174.649H260.615V185H259.49V174.649ZM263.809 185.067C263.577 185.067 263.376 184.987 263.207 184.826C263.037 184.656 262.952 184.451 262.952 184.21C262.952 183.969 263.037 183.768 263.207 183.607C263.376 183.438 263.577 183.353 263.809 183.353C264.041 183.353 264.242 183.438 264.412 183.607C264.582 183.768 264.666 183.969 264.666 184.21C264.666 184.451 264.582 184.656 264.412 184.826C264.242 184.987 264.041 185.067 263.809 185.067ZM268.706 185.094C268.063 185.094 267.586 184.924 267.273 184.585C266.97 184.246 266.818 183.799 266.818 183.246V178.934H265.814V177.997H266.818V176.403H267.929V177.997H269.563V178.934H267.929V183.139C267.929 183.817 268.219 184.156 268.8 184.156C268.978 184.156 269.135 184.143 269.268 184.116C269.402 184.089 269.532 184.054 269.657 184.009V184.946C269.541 184.991 269.411 185.027 269.268 185.054C269.126 185.08 268.938 185.094 268.706 185.094ZM270.744 177.997H271.949L273.583 183.634L275.283 177.997H276.248L277.841 183.634L279.488 177.997H280.626L278.444 185H277.212L275.752 179.751L274.118 185H272.9L270.744 177.997ZM282.309 177.997H283.421V185H282.309V177.997ZM282.845 176.537C282.639 176.537 282.465 176.466 282.322 176.323C282.18 176.18 282.108 176.006 282.108 175.8C282.108 175.595 282.18 175.421 282.322 175.278C282.465 175.135 282.639 175.064 282.845 175.064C283.05 175.064 283.224 175.135 283.367 175.278C283.51 175.421 283.581 175.595 283.581 175.8C283.581 176.006 283.51 176.18 283.367 176.323C283.224 176.466 283.05 176.537 282.845 176.537ZM288.651 187.558C288.133 187.558 287.682 187.5 287.299 187.384C286.924 187.268 286.607 187.111 286.348 186.915C286.098 186.727 285.901 186.5 285.759 186.232C285.616 185.973 285.522 185.696 285.477 185.402H286.616C286.776 186.214 287.45 186.62 288.638 186.62C289.325 186.62 289.87 186.446 290.271 186.098C290.682 185.759 290.887 185.214 290.887 184.464V183.447C290.789 183.616 290.655 183.781 290.486 183.942C290.325 184.103 290.137 184.246 289.923 184.371C289.718 184.487 289.495 184.585 289.254 184.665C289.013 184.737 288.767 184.772 288.517 184.772C288.062 184.772 287.638 184.692 287.245 184.531C286.852 184.362 286.513 184.13 286.227 183.835C285.951 183.54 285.732 183.192 285.571 182.791C285.41 182.38 285.33 181.933 285.33 181.451V181.358C285.33 180.885 285.41 180.438 285.571 180.019C285.732 179.59 285.955 179.22 286.241 178.907C286.526 178.586 286.87 178.336 287.272 178.157C287.674 177.97 288.115 177.876 288.597 177.876C289.187 177.876 289.664 178.001 290.03 178.251C290.396 178.492 290.682 178.782 290.887 179.121V177.997H291.999V184.531C291.999 185.04 291.914 185.482 291.744 185.857C291.575 186.241 291.343 186.558 291.048 186.808C290.753 187.058 290.401 187.245 289.99 187.37C289.588 187.495 289.142 187.558 288.651 187.558ZM288.638 183.848C288.959 183.848 289.258 183.795 289.535 183.688C289.82 183.572 290.066 183.411 290.271 183.206C290.477 182.991 290.637 182.732 290.753 182.429C290.869 182.117 290.927 181.764 290.927 181.371V181.277C290.927 180.492 290.727 179.885 290.325 179.456C289.932 179.019 289.392 178.8 288.705 178.8C288.356 178.8 288.044 178.863 287.767 178.988C287.49 179.112 287.258 179.287 287.071 179.51C286.883 179.724 286.736 179.987 286.629 180.3C286.531 180.603 286.482 180.938 286.482 181.304V181.411C286.482 181.795 286.54 182.139 286.656 182.442C286.772 182.737 286.924 182.991 287.111 183.206C287.307 183.411 287.535 183.572 287.794 183.688C288.062 183.795 288.343 183.848 288.638 183.848ZM293.909 178.117L295.101 175.278L296.159 175.76L294.592 178.465L293.909 178.117Z" fill="white"/>
<path d="M86.7247 215.539C87.3407 215.539 87.8764 215.45 88.3316 215.271C88.7959 215.093 89.1797 214.838 89.4833 214.508C89.7957 214.178 90.0278 213.78 90.1796 213.316C90.3403 212.843 90.4206 212.312 90.4206 211.723V211.615C90.4206 211.062 90.3492 210.558 90.2064 210.102C90.0724 209.638 89.8537 209.241 89.5502 208.911C89.2556 208.571 88.8717 208.312 88.3986 208.134C87.9344 207.946 87.372 207.853 86.7113 207.853H85.4124V215.539H86.7247ZM84.2474 206.915H86.7783C87.5996 206.915 88.3138 207.036 88.9208 207.277C89.5279 207.518 90.0323 207.848 90.434 208.268C90.8357 208.687 91.1348 209.183 91.3312 209.754C91.5276 210.325 91.6258 210.946 91.6258 211.615V211.736C91.6258 212.397 91.5276 213.017 91.3312 213.597C91.1437 214.178 90.8491 214.682 90.4474 215.11C90.0457 215.539 89.5368 215.878 88.9208 216.128C88.3138 216.369 87.5907 216.49 86.7515 216.49H84.2474V206.915ZM93.6747 209.486H94.7861V216.49H93.6747V209.486ZM94.2103 208.027C94.005 208.027 93.8309 207.955 93.6881 207.812C93.5452 207.67 93.4738 207.496 93.4738 207.29C93.4738 207.085 93.5452 206.911 93.6881 206.768C93.8309 206.625 94.005 206.554 94.2103 206.554C94.4156 206.554 94.5897 206.625 94.7326 206.768C94.8754 206.911 94.9468 207.085 94.9468 207.29C94.9468 207.496 94.8754 207.67 94.7326 207.812C94.5897 207.955 94.4156 208.027 94.2103 208.027ZM97.2179 209.486H98.3294V210.745C98.4365 210.549 98.557 210.37 98.6909 210.209C98.8338 210.04 98.9944 209.897 99.173 209.781C99.3515 209.656 99.5613 209.558 99.8024 209.486C100.043 209.415 100.32 209.375 100.633 209.366V210.41C100.284 210.428 99.9675 210.473 99.6818 210.544C99.3962 210.616 99.1507 210.736 98.9453 210.906C98.7489 211.075 98.5972 211.303 98.4901 211.589C98.3829 211.865 98.3294 212.218 98.3294 212.647V216.49H97.2179V209.486ZM105.079 216.61C104.579 216.61 104.124 216.525 103.713 216.356C103.302 216.186 102.945 215.95 102.642 215.646C102.338 215.334 102.102 214.959 101.932 214.521C101.771 214.084 101.691 213.597 101.691 213.062V212.955C101.691 212.428 101.771 211.946 101.932 211.508C102.093 211.062 102.316 210.683 102.602 210.37C102.896 210.049 103.244 209.803 103.646 209.634C104.048 209.455 104.49 209.366 104.972 209.366C105.374 209.366 105.762 209.433 106.137 209.567C106.521 209.692 106.86 209.893 107.155 210.169C107.449 210.446 107.681 210.808 107.851 211.254C108.029 211.691 108.119 212.223 108.119 212.847V213.209H102.843C102.869 214.012 103.07 214.628 103.445 215.057C103.82 215.477 104.369 215.686 105.092 215.686C106.19 215.686 106.811 215.28 106.954 214.468H108.065C107.94 215.173 107.61 215.709 107.074 216.075C106.539 216.432 105.873 216.61 105.079 216.61ZM106.98 212.312C106.927 211.589 106.722 211.071 106.364 210.758C106.016 210.446 105.552 210.29 104.972 210.29C104.401 210.29 103.932 210.473 103.566 210.839C103.209 211.196 102.981 211.687 102.883 212.312H106.98ZM112.887 216.61C112.396 216.61 111.941 216.53 111.521 216.369C111.11 216.2 110.749 215.963 110.436 215.66C110.133 215.347 109.892 214.972 109.713 214.535C109.544 214.097 109.459 213.606 109.459 213.062V212.955C109.459 212.419 109.548 211.932 109.727 211.495C109.905 211.049 110.146 210.669 110.45 210.357C110.762 210.044 111.124 209.803 111.534 209.634C111.945 209.455 112.387 209.366 112.86 209.366C113.226 209.366 113.579 209.41 113.918 209.5C114.266 209.589 114.574 209.732 114.842 209.928C115.119 210.116 115.351 210.366 115.538 210.678C115.726 210.991 115.846 211.37 115.9 211.816H114.802C114.712 211.263 114.485 210.87 114.119 210.638C113.762 210.406 113.342 210.29 112.86 210.29C112.539 210.29 112.24 210.352 111.963 210.477C111.695 210.602 111.459 210.781 111.253 211.013C111.057 211.236 110.901 211.513 110.785 211.843C110.668 212.173 110.61 212.544 110.61 212.955V213.062C110.61 213.928 110.82 214.584 111.24 215.03C111.668 215.468 112.222 215.686 112.9 215.686C113.15 215.686 113.387 215.651 113.61 215.579C113.842 215.508 114.047 215.401 114.226 215.258C114.413 215.115 114.565 214.936 114.681 214.722C114.806 214.508 114.882 214.258 114.909 213.972H115.94C115.904 214.347 115.802 214.7 115.632 215.03C115.471 215.352 115.257 215.628 114.989 215.86C114.721 216.092 114.409 216.275 114.052 216.409C113.695 216.543 113.306 216.61 112.887 216.61ZM119.904 216.583C119.261 216.583 118.784 216.414 118.471 216.075C118.168 215.735 118.016 215.289 118.016 214.736V210.424H117.012V209.486H118.016V207.893H119.127V209.486H120.761V210.424H119.127V214.628C119.127 215.307 119.418 215.646 119.998 215.646C120.176 215.646 120.333 215.633 120.467 215.606C120.6 215.579 120.73 215.543 120.855 215.499V216.436C120.739 216.481 120.609 216.517 120.467 216.543C120.324 216.57 120.136 216.583 119.904 216.583ZM125.611 215.686C125.959 215.686 126.276 215.624 126.562 215.499C126.848 215.374 127.089 215.195 127.285 214.963C127.481 214.731 127.633 214.454 127.74 214.133C127.847 213.803 127.901 213.441 127.901 213.048V212.955C127.901 212.553 127.847 212.187 127.74 211.857C127.633 211.526 127.477 211.245 127.272 211.013C127.075 210.781 126.834 210.602 126.548 210.477C126.272 210.352 125.959 210.29 125.611 210.29C125.263 210.29 124.946 210.352 124.66 210.477C124.375 210.602 124.134 210.781 123.937 211.013C123.741 211.245 123.589 211.526 123.482 211.857C123.375 212.178 123.321 212.539 123.321 212.941V213.048C123.321 213.852 123.522 214.495 123.924 214.977C124.335 215.45 124.897 215.686 125.611 215.686ZM125.598 216.61C125.098 216.61 124.638 216.521 124.218 216.342C123.799 216.164 123.437 215.918 123.134 215.606C122.83 215.285 122.594 214.905 122.424 214.468C122.254 214.03 122.17 213.557 122.17 213.048V212.941C122.17 212.414 122.254 211.932 122.424 211.495C122.603 211.058 122.844 210.683 123.147 210.37C123.451 210.049 123.812 209.803 124.232 209.634C124.651 209.455 125.111 209.366 125.611 209.366C126.102 209.366 126.557 209.455 126.977 209.634C127.405 209.803 127.771 210.044 128.075 210.357C128.379 210.669 128.615 211.044 128.785 211.482C128.963 211.919 129.053 212.401 129.053 212.928V213.035C129.053 213.562 128.963 214.048 128.785 214.495C128.615 214.932 128.374 215.307 128.062 215.619C127.758 215.932 127.397 216.177 126.977 216.356C126.557 216.525 126.098 216.61 125.598 216.61ZM130.943 209.486H132.055V210.745C132.162 210.549 132.283 210.37 132.416 210.209C132.559 210.04 132.72 209.897 132.899 209.781C133.077 209.656 133.287 209.558 133.528 209.486C133.769 209.415 134.046 209.375 134.358 209.366V210.41C134.01 210.428 133.693 210.473 133.407 210.544C133.122 210.616 132.876 210.736 132.671 210.906C132.474 211.075 132.323 211.303 132.216 211.589C132.108 211.865 132.055 212.218 132.055 212.647V216.49H130.943V209.486ZM138.155 215.767L135.41 209.486H136.602L138.745 214.508L140.686 209.486H141.825L137.955 218.927H136.83L138.155 215.767ZM146.4 209.473L147.966 206.768L148.649 207.116L147.458 209.955L146.4 209.473ZM151.322 216.557C151.09 216.557 150.889 216.476 150.72 216.316C150.55 216.146 150.465 215.941 150.465 215.7C150.465 215.459 150.55 215.258 150.72 215.097C150.889 214.927 151.09 214.843 151.322 214.843C151.554 214.843 151.755 214.927 151.925 215.097C152.094 215.258 152.179 215.459 152.179 215.7C152.179 215.941 152.094 216.146 151.925 216.316C151.755 216.476 151.554 216.557 151.322 216.557ZM155.258 216.557C155.026 216.557 154.825 216.476 154.656 216.316C154.486 216.146 154.401 215.941 154.401 215.7C154.401 215.459 154.486 215.258 154.656 215.097C154.825 214.927 155.026 214.843 155.258 214.843C155.491 214.843 155.691 214.927 155.861 215.097C156.031 215.258 156.115 215.459 156.115 215.7C156.115 215.941 156.031 216.146 155.861 216.316C155.691 216.476 155.491 216.557 155.258 216.557ZM159.195 216.557C158.962 216.557 158.762 216.476 158.592 216.316C158.422 216.146 158.338 215.941 158.338 215.7C158.338 215.459 158.422 215.258 158.592 215.097C158.762 214.927 158.962 214.843 159.195 214.843C159.427 214.843 159.628 214.927 159.797 215.097C159.967 215.258 160.052 215.459 160.052 215.7C160.052 215.941 159.967 216.146 159.797 216.316C159.628 216.476 159.427 216.557 159.195 216.557ZM165.22 206.098H166.237L162.341 218.472H161.323L165.22 206.098ZM169.649 216.583C169.006 216.583 168.529 216.414 168.216 216.075C167.913 215.735 167.761 215.289 167.761 214.736V210.424H166.757V209.486H167.761V207.893H168.872V209.486H170.506V210.424H168.872V214.628C168.872 215.307 169.162 215.646 169.743 215.646C169.921 215.646 170.077 215.633 170.211 215.606C170.345 215.579 170.475 215.543 170.6 215.499V216.436C170.484 216.481 170.354 216.517 170.211 216.543C170.069 216.57 169.881 216.583 169.649 216.583ZM175.302 216.61C174.802 216.61 174.347 216.525 173.937 216.356C173.526 216.186 173.169 215.95 172.865 215.646C172.562 215.334 172.325 214.959 172.156 214.521C171.995 214.084 171.915 213.597 171.915 213.062V212.955C171.915 212.428 171.995 211.946 172.156 211.508C172.316 211.062 172.539 210.683 172.825 210.37C173.12 210.049 173.468 209.803 173.87 209.634C174.271 209.455 174.713 209.366 175.195 209.366C175.597 209.366 175.985 209.433 176.36 209.567C176.744 209.692 177.083 209.893 177.378 210.169C177.673 210.446 177.905 210.808 178.074 211.254C178.253 211.691 178.342 212.223 178.342 212.847V213.209H173.066C173.093 214.012 173.294 214.628 173.669 215.057C174.044 215.477 174.593 215.686 175.316 215.686C176.414 215.686 177.034 215.28 177.177 214.468H178.289C178.164 215.173 177.833 215.709 177.298 216.075C176.762 216.432 176.097 216.61 175.302 216.61ZM177.204 212.312C177.15 211.589 176.945 211.071 176.588 210.758C176.24 210.446 175.776 210.29 175.195 210.29C174.624 210.29 174.155 210.473 173.789 210.839C173.432 211.196 173.205 211.687 173.106 212.312H177.204ZM180.204 209.486H181.316V210.558C181.477 210.227 181.736 209.946 182.093 209.714C182.459 209.482 182.896 209.366 183.405 209.366C183.86 209.366 184.271 209.468 184.637 209.674C185.003 209.87 185.275 210.205 185.454 210.678C185.57 210.455 185.722 210.263 185.909 210.102C186.096 209.933 186.297 209.794 186.512 209.687C186.726 209.58 186.949 209.5 187.181 209.446C187.413 209.393 187.636 209.366 187.851 209.366C188.163 209.366 188.462 209.415 188.748 209.513C189.034 209.611 189.283 209.772 189.498 209.995C189.712 210.218 189.882 210.509 190.007 210.866C190.14 211.214 190.207 211.642 190.207 212.151V216.49H189.096V212.071C189.096 211.455 188.967 211.013 188.708 210.745C188.458 210.468 188.092 210.33 187.61 210.33C187.378 210.33 187.15 210.37 186.927 210.45C186.712 210.522 186.516 210.638 186.338 210.799C186.168 210.95 186.03 211.147 185.922 211.388C185.815 211.62 185.762 211.892 185.762 212.205V216.49H184.65V212.071C184.65 211.455 184.521 211.013 184.262 210.745C184.012 210.468 183.646 210.33 183.164 210.33C182.932 210.33 182.704 210.37 182.481 210.45C182.267 210.522 182.07 210.638 181.892 210.799C181.722 210.95 181.584 211.147 181.477 211.388C181.369 211.62 181.316 211.892 181.316 212.205V216.49H180.204V209.486ZM192.549 209.486H193.661V210.665C193.759 210.495 193.888 210.334 194.049 210.183C194.219 210.022 194.406 209.884 194.611 209.768C194.817 209.643 195.04 209.544 195.281 209.473C195.522 209.402 195.772 209.366 196.031 209.366C196.486 209.366 196.91 209.446 197.303 209.607C197.696 209.768 198.03 210 198.307 210.303C198.593 210.607 198.816 210.977 198.977 211.415C199.137 211.852 199.218 212.343 199.218 212.888V212.995C199.218 213.53 199.142 214.021 198.99 214.468C198.838 214.905 198.624 215.285 198.347 215.606C198.071 215.927 197.736 216.177 197.343 216.356C196.95 216.525 196.513 216.61 196.031 216.61C195.451 216.61 194.96 216.485 194.558 216.235C194.165 215.985 193.866 215.686 193.661 215.338V218.927H192.549V209.486ZM195.924 215.686C196.62 215.686 197.151 215.463 197.517 215.017C197.883 214.561 198.066 213.905 198.066 213.048V212.941C198.066 212.504 198.008 212.12 197.892 211.79C197.776 211.45 197.62 211.174 197.423 210.959C197.236 210.736 197.008 210.571 196.741 210.464C196.482 210.348 196.205 210.29 195.91 210.29C195.589 210.29 195.285 210.343 195 210.45C194.723 210.558 194.482 210.723 194.277 210.946C194.071 211.16 193.911 211.437 193.795 211.776C193.678 212.106 193.62 212.495 193.62 212.941V213.048C193.62 213.495 193.674 213.883 193.781 214.213C193.897 214.544 194.053 214.82 194.25 215.044C194.455 215.258 194.701 215.418 194.986 215.526C195.272 215.633 195.584 215.686 195.924 215.686ZM201.128 206.139H202.253V216.49H201.128V206.139ZM206.439 216.61C206.117 216.61 205.814 216.57 205.528 216.49C205.243 216.409 204.993 216.284 204.778 216.115C204.573 215.945 204.408 215.731 204.283 215.472C204.167 215.213 204.109 214.905 204.109 214.548C204.109 214.146 204.207 213.807 204.403 213.53C204.6 213.254 204.859 213.03 205.18 212.861C205.51 212.691 205.885 212.571 206.305 212.499C206.733 212.419 207.171 212.379 207.617 212.379H208.622V211.87C208.622 211.307 208.505 210.906 208.273 210.665C208.041 210.415 207.657 210.29 207.122 210.29C206.158 210.29 205.622 210.709 205.515 211.549H204.403C204.439 211.147 204.537 210.808 204.698 210.531C204.868 210.254 205.077 210.031 205.327 209.861C205.586 209.683 205.872 209.558 206.184 209.486C206.506 209.406 206.836 209.366 207.175 209.366C207.506 209.366 207.827 209.406 208.139 209.486C208.452 209.558 208.724 209.692 208.956 209.888C209.188 210.076 209.376 210.33 209.519 210.651C209.662 210.973 209.733 211.379 209.733 211.87V216.49H208.622V215.606C208.363 215.936 208.064 216.186 207.724 216.356C207.385 216.525 206.957 216.61 206.439 216.61ZM206.546 215.726C206.841 215.726 207.113 215.691 207.363 215.619C207.622 215.539 207.84 215.427 208.019 215.285C208.206 215.142 208.354 214.968 208.461 214.762C208.568 214.548 208.622 214.307 208.622 214.039V213.169H207.657C207.309 213.169 206.983 213.196 206.68 213.249C206.385 213.294 206.126 213.37 205.903 213.477C205.689 213.584 205.519 213.727 205.394 213.905C205.278 214.075 205.22 214.289 205.22 214.548C205.22 214.914 205.318 215.204 205.515 215.418C205.711 215.624 206.055 215.726 206.546 215.726ZM214.202 216.583C213.56 216.583 213.082 216.414 212.769 216.075C212.466 215.735 212.314 215.289 212.314 214.736V210.424H211.31V209.486H212.314V207.893H213.426V209.486H215.059V210.424H213.426V214.628C213.426 215.307 213.716 215.646 214.296 215.646C214.475 215.646 214.631 215.633 214.765 215.606C214.899 215.579 215.028 215.543 215.153 215.499V216.436C215.037 216.481 214.908 216.517 214.765 216.543C214.622 216.57 214.434 216.583 214.202 216.583ZM219.856 216.61C219.356 216.61 218.9 216.525 218.49 216.356C218.079 216.186 217.722 215.95 217.419 215.646C217.115 215.334 216.878 214.959 216.709 214.521C216.548 214.084 216.468 213.597 216.468 213.062V212.955C216.468 212.428 216.548 211.946 216.709 211.508C216.87 211.062 217.093 210.683 217.378 210.37C217.673 210.049 218.021 209.803 218.423 209.634C218.825 209.455 219.267 209.366 219.749 209.366C220.15 209.366 220.539 209.433 220.914 209.567C221.297 209.692 221.637 209.893 221.931 210.169C222.226 210.446 222.458 210.808 222.628 211.254C222.806 211.691 222.895 212.223 222.895 212.847V213.209H217.619C217.646 214.012 217.847 214.628 218.222 215.057C218.597 215.477 219.146 215.686 219.869 215.686C220.967 215.686 221.588 215.28 221.73 214.468H222.842C222.717 215.173 222.387 215.709 221.851 216.075C221.315 216.432 220.65 216.61 219.856 216.61ZM221.757 212.312C221.704 211.589 221.498 211.071 221.141 210.758C220.793 210.446 220.329 210.29 219.749 210.29C219.177 210.29 218.709 210.473 218.343 210.839C217.985 211.196 217.758 211.687 217.66 212.312H221.757ZM226.993 216.61C226.153 216.61 225.493 216.414 225.011 216.021C224.538 215.619 224.283 215.057 224.247 214.334H225.332C225.377 214.753 225.52 215.084 225.761 215.325C226.011 215.566 226.417 215.686 226.979 215.686C227.515 215.686 227.903 215.597 228.144 215.418C228.385 215.231 228.506 214.95 228.506 214.575C228.506 214.209 228.367 213.945 228.091 213.785C227.823 213.624 227.417 213.495 226.872 213.396C226.417 213.316 226.033 213.222 225.72 213.115C225.408 212.999 225.158 212.861 224.97 212.7C224.783 212.539 224.645 212.348 224.555 212.124C224.475 211.901 224.435 211.638 224.435 211.334C224.435 211.013 224.506 210.732 224.649 210.491C224.792 210.241 224.975 210.035 225.198 209.875C225.43 209.705 225.685 209.58 225.961 209.5C226.247 209.41 226.528 209.366 226.805 209.366C227.117 209.366 227.417 209.402 227.702 209.473C227.988 209.535 228.242 209.647 228.465 209.808C228.698 209.968 228.89 210.178 229.041 210.437C229.193 210.696 229.291 211.013 229.336 211.388H228.265C228.184 211.004 228.028 210.727 227.796 210.558C227.573 210.379 227.238 210.29 226.792 210.29C226.39 210.29 226.069 210.384 225.827 210.571C225.586 210.75 225.466 210.991 225.466 211.294C225.466 211.455 225.488 211.593 225.533 211.709C225.586 211.816 225.676 211.915 225.801 212.004C225.926 212.084 226.091 212.16 226.296 212.231C226.51 212.294 226.778 212.352 227.1 212.406C227.457 212.477 227.787 212.557 228.091 212.647C228.394 212.727 228.653 212.843 228.867 212.995C229.09 213.138 229.26 213.33 229.376 213.571C229.501 213.803 229.564 214.106 229.564 214.481C229.564 215.124 229.349 215.642 228.921 216.034C228.492 216.418 227.85 216.61 226.993 216.61ZM230.788 209.607L231.98 206.768L233.037 207.25L231.471 209.955L230.788 209.607Z" fill="white"/>
<rect x="381.578" y="294.654" width="71.4178" height="22.3181" rx="4.46361" fill="#727272"/>
<rect x="461.921" y="294.654" width="71.4178" height="22.3181" rx="4.46361" fill="#B9B546"/>
<path d="M400.412 310.345C399.715 310.345 399.09 310.234 398.537 310.01C397.992 309.778 397.524 309.452 397.131 309.033C396.747 308.604 396.452 308.095 396.247 307.506C396.042 306.908 395.939 306.239 395.939 305.498V305.391C395.939 304.685 396.051 304.034 396.274 303.435C396.497 302.837 396.809 302.32 397.211 301.882C397.613 301.445 398.086 301.105 398.631 300.864C399.184 300.623 399.787 300.503 400.438 300.503C400.938 300.503 401.411 300.57 401.858 300.704C402.304 300.838 402.701 301.034 403.05 301.293C403.398 301.552 403.683 301.878 403.907 302.27C404.13 302.663 404.268 303.119 404.322 303.636H403.17C403.045 302.904 402.764 302.355 402.326 301.989C401.898 301.614 401.273 301.427 400.452 301.427C399.952 301.427 399.497 301.521 399.086 301.708C398.684 301.896 398.34 302.159 398.055 302.498C397.769 302.837 397.546 303.252 397.385 303.743C397.225 304.234 397.144 304.779 397.144 305.377V305.484C397.144 306.091 397.22 306.64 397.372 307.131C397.524 307.613 397.738 308.024 398.015 308.363C398.3 308.694 398.644 308.948 399.046 309.127C399.456 309.305 399.921 309.394 400.438 309.394C401.224 309.394 401.871 309.202 402.38 308.819C402.889 308.426 403.206 307.837 403.331 307.051H404.415C404.246 308.158 403.804 308.984 403.09 309.528C402.376 310.073 401.483 310.345 400.412 310.345ZM408.151 310.345C407.829 310.345 407.526 310.305 407.24 310.225C406.955 310.144 406.705 310.019 406.49 309.85C406.285 309.68 406.12 309.466 405.995 309.207C405.879 308.948 405.821 308.64 405.821 308.283C405.821 307.881 405.919 307.542 406.115 307.265C406.312 306.988 406.571 306.765 406.892 306.596C407.222 306.426 407.597 306.306 408.017 306.234C408.445 306.154 408.883 306.114 409.329 306.114H410.334V305.605C410.334 305.042 410.217 304.641 409.985 304.4C409.753 304.15 409.369 304.025 408.834 304.025C407.87 304.025 407.334 304.444 407.227 305.283H406.115C406.151 304.882 406.249 304.542 406.41 304.266C406.58 303.989 406.789 303.766 407.039 303.596C407.298 303.418 407.584 303.293 407.896 303.221C408.218 303.141 408.548 303.101 408.887 303.101C409.218 303.101 409.539 303.141 409.851 303.221C410.164 303.293 410.436 303.427 410.668 303.623C410.9 303.81 411.088 304.065 411.231 304.386C411.374 304.708 411.445 305.114 411.445 305.605V310.225H410.334V309.341C410.075 309.671 409.776 309.921 409.436 310.091C409.097 310.26 408.669 310.345 408.151 310.345ZM408.258 309.461C408.553 309.461 408.825 309.426 409.075 309.354C409.334 309.274 409.552 309.162 409.731 309.019C409.918 308.877 410.066 308.703 410.173 308.497C410.28 308.283 410.334 308.042 410.334 307.774V306.904H409.369C409.021 306.904 408.695 306.93 408.392 306.984C408.097 307.029 407.838 307.105 407.615 307.212C407.401 307.319 407.231 307.462 407.106 307.64C406.99 307.81 406.932 308.024 406.932 308.283C406.932 308.649 407.03 308.939 407.227 309.153C407.423 309.359 407.767 309.461 408.258 309.461ZM413.785 303.221H414.897V304.333C415.057 304.002 415.325 303.717 415.7 303.476C416.084 303.226 416.566 303.101 417.146 303.101C417.503 303.101 417.834 303.154 418.137 303.261C418.441 303.36 418.7 303.525 418.914 303.757C419.137 303.98 419.307 304.27 419.423 304.627C419.548 304.984 419.61 305.417 419.61 305.926V310.225H418.499V305.846C418.499 305.23 418.365 304.779 418.097 304.493C417.829 304.208 417.414 304.065 416.852 304.065C416.593 304.065 416.343 304.105 416.102 304.185C415.87 304.266 415.664 304.386 415.486 304.547C415.307 304.708 415.164 304.908 415.057 305.149C414.95 305.391 414.897 305.667 414.897 305.98V310.225H413.785V303.221ZM424.864 310.345C424.373 310.345 423.918 310.265 423.498 310.104C423.088 309.934 422.726 309.698 422.414 309.394C422.11 309.082 421.869 308.707 421.69 308.27C421.521 307.832 421.436 307.341 421.436 306.797V306.689C421.436 306.154 421.525 305.667 421.704 305.23C421.882 304.783 422.123 304.404 422.427 304.092C422.739 303.779 423.101 303.538 423.512 303.369C423.922 303.19 424.364 303.101 424.837 303.101C425.203 303.101 425.556 303.145 425.895 303.235C426.243 303.324 426.551 303.467 426.819 303.663C427.096 303.851 427.328 304.101 427.515 304.413C427.703 304.725 427.823 305.105 427.877 305.551H426.779C426.69 304.998 426.462 304.605 426.096 304.373C425.739 304.141 425.319 304.025 424.837 304.025C424.516 304.025 424.217 304.087 423.94 304.212C423.672 304.337 423.436 304.516 423.23 304.748C423.034 304.971 422.878 305.248 422.762 305.578C422.646 305.908 422.588 306.279 422.588 306.689V306.797C422.588 307.662 422.797 308.319 423.217 308.765C423.646 309.202 424.199 309.421 424.877 309.421C425.127 309.421 425.364 309.385 425.587 309.314C425.819 309.243 426.025 309.135 426.203 308.993C426.391 308.85 426.542 308.671 426.658 308.457C426.783 308.243 426.859 307.993 426.886 307.707H427.917C427.881 308.082 427.779 308.435 427.609 308.765C427.449 309.086 427.234 309.363 426.966 309.595C426.699 309.827 426.386 310.01 426.029 310.144C425.672 310.278 425.284 310.345 424.864 310.345ZM432.618 310.345C432.118 310.345 431.663 310.26 431.252 310.091C430.841 309.921 430.484 309.685 430.181 309.381C429.877 309.069 429.641 308.694 429.471 308.256C429.31 307.819 429.23 307.332 429.23 306.797V306.689C429.23 306.163 429.31 305.681 429.471 305.243C429.632 304.797 429.855 304.417 430.14 304.105C430.435 303.784 430.783 303.538 431.185 303.369C431.587 303.19 432.029 303.101 432.511 303.101C432.912 303.101 433.301 303.168 433.676 303.302C434.06 303.427 434.399 303.627 434.693 303.904C434.988 304.181 435.22 304.542 435.39 304.989C435.568 305.426 435.658 305.957 435.658 306.582V306.944H430.382C430.408 307.747 430.609 308.363 430.984 308.792C431.359 309.211 431.908 309.421 432.631 309.421C433.729 309.421 434.35 309.015 434.492 308.203H435.604C435.479 308.908 435.149 309.443 434.613 309.809C434.077 310.167 433.412 310.345 432.618 310.345ZM434.519 306.047C434.466 305.324 434.26 304.806 433.903 304.493C433.555 304.181 433.091 304.025 432.511 304.025C431.939 304.025 431.471 304.208 431.105 304.574C430.748 304.931 430.52 305.422 430.422 306.047H434.519ZM437.547 299.873H438.671V310.225H437.547V299.873Z" fill="white"/>
<path d="M493.473 309.381C494.009 309.381 494.487 309.287 494.906 309.1C495.335 308.903 495.696 308.636 495.991 308.296C496.286 307.948 496.513 307.533 496.674 307.051C496.835 306.569 496.915 306.038 496.915 305.457V305.35C496.915 304.815 496.835 304.31 496.674 303.837C496.522 303.364 496.299 302.953 496.004 302.605C495.71 302.257 495.348 301.98 494.92 301.775C494.491 301.57 494 301.467 493.447 301.467C492.893 301.467 492.398 301.565 491.96 301.762C491.523 301.949 491.152 302.217 490.849 302.565C490.554 302.913 490.327 303.328 490.166 303.81C490.014 304.284 489.938 304.806 489.938 305.377V305.484C489.938 306.065 490.028 306.596 490.206 307.078C490.394 307.551 490.644 307.962 490.956 308.31C491.277 308.649 491.652 308.912 492.081 309.1C492.509 309.287 492.974 309.381 493.473 309.381ZM493.473 310.345C492.768 310.345 492.121 310.22 491.532 309.97C490.952 309.711 490.452 309.363 490.032 308.926C489.621 308.488 489.3 307.975 489.068 307.386C488.845 306.797 488.733 306.167 488.733 305.498V305.391C488.733 304.712 488.845 304.078 489.068 303.489C489.3 302.891 489.621 302.373 490.032 301.936C490.452 301.498 490.947 301.155 491.518 300.905C492.099 300.655 492.741 300.53 493.447 300.53C494.152 300.53 494.79 300.655 495.362 300.905C495.933 301.155 496.424 301.498 496.835 301.936C497.245 302.373 497.562 302.886 497.785 303.476C498.008 304.065 498.12 304.694 498.12 305.364V305.471C498.12 306.149 498.008 306.783 497.785 307.372C497.562 307.962 497.245 308.479 496.835 308.926C496.433 309.363 495.946 309.711 495.375 309.97C494.804 310.22 494.17 310.345 493.473 310.345ZM500.226 300.65H501.391V305.257L505.555 300.637H506.854L502.596 305.297L507.068 310.225H505.662L501.391 305.551V310.225H500.226V300.65Z" fill="white"/>
<circle cx="188.302" cy="243.323" r="6.9186" stroke="#BAB6B7" stroke-opacity="0.5" stroke-width="1.33908"/>
<rect x="82.5151" y="269.211" width="43.297" height="9.81995" fill="#BAB6B7" fill-opacity="0.5"/>
<rect x="82.5151" y="238.414" width="45.9752" height="9.81995" fill="#BAB6B7" fill-opacity="0.5"/>
<rect x="130.277" y="269.211" width="22.3181" height="9.81995" fill="#BAB6B7" fill-opacity="0.5"/>
<rect x="132.953" y="238.414" width="37.048" height="9.81995" fill="#BAB6B7" fill-opacity="0.5"/>
<rect x="202.141" y="238.414" width="24.1035" height="9.81995" fill="#BAB6B7" fill-opacity="0.5"/>
<rect x="230.708" y="238.414" width="24.1035" height="9.81995" fill="#BAB6B7" fill-opacity="0.5"/>
<rect x="259.273" y="238.414" width="82.5768" height="9.81995" fill="#BAB6B7" fill-opacity="0.5"/>
<rect x="346.312" y="238.414" width="41.0652" height="9.81995" fill="#BAB6B7" fill-opacity="0.5"/>
<rect x="176.252" y="231.717" width="230.769" height="23.2108" rx="2.67817" stroke="#BAB6B7" stroke-opacity="0.5" stroke-width="0.892722"/>
<rect x="157.059" y="269.211" width="47.3143" height="9.81995" fill="#BAB6B7" fill-opacity="0.5"/>
<circle cx="188.302" cy="243.323" r="2.23181" fill="#A4A14A" fill-opacity="0.5"/>
<circle cx="69.5712" cy="180.832" r="2.23181" fill="#BAB6B7"/>
<path d="M41 74.3908C41 66.9953 46.9953 61 54.3908 61H540.609C548.005 61 554 66.9953 554 74.3908V98.7669H41V74.3908Z" fill="black" fill-opacity="0.2"/>
<path d="M226.844 85.1852C226.193 85.1852 225.63 85.1093 225.157 84.9575C224.693 84.7968 224.304 84.5826 223.992 84.3148C223.688 84.038 223.456 83.7122 223.296 83.3372C223.135 82.9534 223.037 82.5338 223.001 82.0785H224.715C224.742 82.3195 224.791 82.5472 224.862 82.7614C224.943 82.9757 225.059 83.1632 225.211 83.3239C225.371 83.4845 225.581 83.614 225.84 83.7122C226.108 83.8015 226.442 83.8461 226.844 83.8461C227.38 83.8461 227.813 83.7122 228.143 83.4444C228.482 83.1766 228.652 82.8195 228.652 82.3731C228.652 82.1499 228.621 81.9624 228.558 81.8107C228.496 81.65 228.389 81.5161 228.237 81.409C228.085 81.2929 227.88 81.1947 227.621 81.1144C227.362 81.034 227.041 80.9626 226.657 80.9001C226.085 80.8198 225.585 80.7171 225.157 80.5921C224.737 80.4582 224.389 80.2841 224.112 80.0699C223.836 79.8467 223.626 79.5744 223.483 79.253C223.349 78.9317 223.282 78.5478 223.282 78.1014C223.282 77.7086 223.363 77.3471 223.523 77.0168C223.684 76.6775 223.907 76.3874 224.193 76.1464C224.487 75.8964 224.84 75.7045 225.251 75.5706C225.661 75.4277 226.117 75.3563 226.617 75.3563C227.652 75.3563 228.465 75.5884 229.054 76.0526C229.652 76.5168 230 77.2087 230.098 78.1282H228.465C228.375 77.6194 228.183 77.2533 227.889 77.0302C227.594 76.807 227.17 76.6954 226.617 76.6954C226.072 76.6954 225.661 76.8114 225.385 77.0435C225.108 77.2757 224.969 77.5792 224.969 77.9541C224.969 78.1505 224.992 78.3246 225.036 78.4764C225.09 78.6192 225.188 78.7486 225.331 78.8647C225.483 78.9718 225.684 79.0656 225.934 79.1459C226.193 79.2263 226.532 79.2977 226.951 79.3602C227.514 79.4405 228.005 79.5432 228.424 79.6682C228.853 79.7931 229.21 79.9672 229.496 80.1904C229.79 80.4136 230.009 80.6903 230.152 81.0206C230.295 81.342 230.366 81.7437 230.366 82.2258C230.366 82.6454 230.281 83.0337 230.112 83.3908C229.942 83.7479 229.701 84.0603 229.388 84.3282C229.085 84.596 228.714 84.8058 228.277 84.9575C227.849 85.1093 227.371 85.1852 226.844 85.1852ZM232.009 78.0479H233.629V79.1727C233.727 79.0031 233.852 78.8424 234.004 78.6906C234.156 78.5389 234.33 78.405 234.526 78.2889C234.731 78.1728 234.95 78.0791 235.182 78.0077C235.414 77.9363 235.66 77.9006 235.919 77.9006C236.356 77.9006 236.762 77.9809 237.137 78.1416C237.521 78.3023 237.852 78.5344 238.128 78.8379C238.405 79.1414 238.624 79.5164 238.784 79.9628C238.945 80.4002 239.025 80.9001 239.025 81.4625V81.5697C239.025 82.1321 238.945 82.6365 238.784 83.0828C238.633 83.5292 238.418 83.9086 238.142 84.221C237.874 84.5335 237.548 84.7745 237.164 84.9441C236.789 85.1048 236.374 85.1852 235.919 85.1852C235.356 85.1852 234.879 85.0647 234.486 84.8236C234.102 84.5826 233.816 84.2925 233.629 83.9532V87.4482H232.009V78.0479ZM235.517 83.8997C236.115 83.8997 236.57 83.7077 236.883 83.3239C237.204 82.9311 237.365 82.3552 237.365 81.5964V81.4893C237.365 81.1054 237.316 80.7707 237.218 80.485C237.128 80.1904 236.999 79.9449 236.829 79.7485C236.66 79.5521 236.463 79.4093 236.24 79.32C236.017 79.2218 235.772 79.1727 235.504 79.1727C234.941 79.1727 234.477 79.3646 234.111 79.7485C233.754 80.1234 233.575 80.7037 233.575 81.4893V81.5964C233.575 82.382 233.749 82.9623 234.098 83.3372C234.455 83.7122 234.928 83.8997 235.517 83.8997ZM243.615 85.1852C243.097 85.1852 242.619 85.1048 242.182 84.9441C241.753 84.7745 241.378 84.538 241.057 84.2344C240.745 83.922 240.499 83.547 240.321 83.1096C240.151 82.6722 240.066 82.1767 240.066 81.6232V81.5161C240.066 80.9715 240.151 80.4805 240.321 80.0431C240.499 79.5967 240.745 79.2173 241.057 78.9049C241.37 78.5835 241.736 78.338 242.155 78.1684C242.584 77.9898 243.048 77.9006 243.548 77.9006C243.985 77.9006 244.4 77.9675 244.793 78.1014C245.195 78.2353 245.548 78.4451 245.851 78.7308C246.155 79.0165 246.396 79.3825 246.574 79.8288C246.762 80.2752 246.855 80.8108 246.855 81.4357V81.9044H241.727C241.753 82.574 241.928 83.0873 242.249 83.4444C242.579 83.8015 243.048 83.98 243.655 83.98C244.146 83.98 244.521 83.8863 244.78 83.6988C245.039 83.5113 245.199 83.248 245.262 82.9087H246.829C246.713 83.6497 246.373 84.2166 245.811 84.6094C245.248 84.9932 244.516 85.1852 243.615 85.1852ZM245.248 80.8198C245.204 80.2127 245.034 79.7708 244.74 79.4941C244.454 79.2173 244.057 79.079 243.548 79.079C243.057 79.079 242.655 79.2352 242.343 79.5476C242.03 79.8512 241.834 80.2752 241.753 80.8198H245.248ZM251.421 85.1852C250.921 85.1852 250.453 85.1048 250.015 84.9441C249.587 84.7835 249.212 84.5513 248.891 84.2478C248.578 83.9443 248.333 83.5738 248.154 83.1364C247.976 82.6989 247.886 82.199 247.886 81.6366V81.5295C247.886 80.976 247.976 80.4761 248.154 80.0297C248.342 79.5833 248.596 79.2039 248.917 78.8915C249.239 78.5701 249.614 78.3246 250.042 78.155C250.471 77.9854 250.93 77.9006 251.421 77.9006C251.805 77.9006 252.18 77.9497 252.546 78.0479C252.912 78.1371 253.238 78.2844 253.524 78.4898C253.818 78.6951 254.064 78.9674 254.26 79.3066C254.457 79.6369 254.577 80.0431 254.622 80.5252H253.055C252.984 80.052 252.805 79.7128 252.519 79.5075C252.234 79.3021 251.877 79.1995 251.448 79.1995C251.171 79.1995 250.917 79.253 250.685 79.3602C250.453 79.4584 250.252 79.6101 250.082 79.8155C249.913 80.0119 249.779 80.2529 249.681 80.5386C249.591 80.8242 249.547 81.1456 249.547 81.5027V81.6098C249.547 82.3776 249.721 82.9578 250.069 83.3506C250.417 83.7434 250.89 83.9398 251.488 83.9398C251.703 83.9398 251.903 83.9086 252.091 83.8461C252.287 83.7836 252.461 83.6899 252.613 83.5649C252.765 83.4399 252.89 83.2837 252.988 83.0962C253.086 82.9087 253.149 82.69 253.176 82.4401H254.662C254.635 82.8418 254.537 83.2123 254.367 83.5515C254.207 83.8818 253.988 84.1719 253.711 84.4219C253.435 84.6629 253.1 84.8504 252.707 84.9843C252.323 85.1182 251.895 85.1852 251.421 85.1852ZM256.15 78.0479H257.77V85.0513H256.15V78.0479ZM256.94 76.8962C256.672 76.8962 256.444 76.807 256.257 76.6284C256.069 76.4499 255.976 76.2312 255.976 75.9723C255.976 75.7045 256.069 75.4813 256.257 75.3027C256.444 75.1242 256.672 75.0349 256.94 75.0349C257.208 75.0349 257.435 75.1242 257.623 75.3027C257.81 75.4813 257.904 75.7045 257.904 75.9723C257.904 76.2312 257.81 76.4499 257.623 76.6284C257.435 76.807 257.208 76.8962 256.94 76.8962ZM260.078 79.2664H259.128V78.0479H260.078V77.1105C260.078 76.3338 260.279 75.7446 260.681 75.3429C261.092 74.9412 261.676 74.7403 262.435 74.7403C262.632 74.7403 262.797 74.7537 262.931 74.7805C263.065 74.7984 263.207 74.8296 263.359 74.8742V76.133C263.261 76.0973 263.149 76.0705 263.024 76.0526C262.908 76.0258 262.775 76.0125 262.623 76.0125C262.292 76.0125 262.056 76.1107 261.913 76.3071C261.77 76.4945 261.699 76.74 261.699 77.0435V78.0479H263.292V79.2664H261.699V85.0513H260.078V79.2664ZM266.881 84.3416L264.109 78.0479H265.863L267.724 82.5606L269.438 78.0479H271.018L267.202 87.4482H265.609L266.881 84.3416ZM275.569 78.0479H277.189V85.0513H275.569V78.0479ZM276.359 76.8962C276.091 76.8962 275.864 76.807 275.676 76.6284C275.489 76.4499 275.395 76.2312 275.395 75.9723C275.395 75.7045 275.489 75.4813 275.676 75.3027C275.864 75.1242 276.091 75.0349 276.359 75.0349C276.627 75.0349 276.855 75.1242 277.042 75.3027C277.23 75.4813 277.323 75.7045 277.323 75.9723C277.323 76.2312 277.23 76.4499 277.042 76.6284C276.855 76.807 276.627 76.8962 276.359 76.8962ZM280.703 77.2444L278.681 78.6237V77.0569L280.904 75.4768H282.497V85.0513H280.703V77.2444ZM288.12 85.1852C287.646 85.1852 287.191 85.1272 286.754 85.0111C286.325 84.8861 285.946 84.7076 285.615 84.4755C285.285 84.2344 285.022 83.9398 284.825 83.5917C284.629 83.2346 284.531 82.8195 284.531 82.3463C284.531 81.7303 284.696 81.217 285.026 80.8064C285.357 80.3957 285.79 80.0967 286.325 79.9092C285.879 79.7306 285.531 79.4762 285.281 79.1459C285.031 78.8067 284.906 78.396 284.906 77.914C284.906 77.5122 284.995 77.1507 285.174 76.8293C285.352 76.5079 285.589 76.2401 285.883 76.0258C286.187 75.8027 286.53 75.633 286.914 75.517C287.298 75.4009 287.7 75.3429 288.12 75.3429C288.548 75.3429 288.954 75.4009 289.338 75.517C289.731 75.633 290.07 75.8027 290.356 76.0258C290.65 76.2401 290.883 76.5079 291.052 76.8293C291.231 77.1417 291.32 77.4944 291.32 77.8872C291.32 78.3782 291.19 78.7888 290.932 79.1191C290.673 79.4494 290.329 79.7083 289.901 79.8958C290.463 80.1011 290.9 80.4046 291.213 80.8064C291.525 81.2081 291.681 81.7036 291.681 82.2928C291.681 82.7659 291.583 83.1855 291.387 83.5515C291.199 83.9086 290.945 84.2076 290.624 84.4487C290.302 84.6897 289.923 84.8727 289.485 84.9977C289.057 85.1227 288.602 85.1852 288.12 85.1852ZM288.12 83.8461C288.628 83.8461 289.052 83.7033 289.392 83.4176C289.731 83.1319 289.901 82.7213 289.901 82.1856C289.901 81.9178 289.856 81.6857 289.767 81.4893C289.677 81.284 289.552 81.1144 289.392 80.9805C289.231 80.8376 289.043 80.7305 288.829 80.6591C288.615 80.5877 288.383 80.5519 288.133 80.5519C287.892 80.5519 287.66 80.5877 287.437 80.6591C287.222 80.7305 287.03 80.8376 286.861 80.9805C286.7 81.1144 286.571 81.284 286.472 81.4893C286.374 81.6946 286.325 81.9312 286.325 82.199C286.325 82.4668 286.374 82.7034 286.472 82.9087C286.571 83.1141 286.7 83.2881 286.861 83.431C287.021 83.5649 287.209 83.6675 287.423 83.739C287.646 83.8104 287.878 83.8461 288.12 83.8461ZM288.146 79.3869C288.584 79.3869 288.941 79.2664 289.218 79.0254C289.494 78.7754 289.633 78.4317 289.633 77.9943C289.633 77.5836 289.485 77.2533 289.191 77.0034C288.905 76.7534 288.548 76.6284 288.12 76.6284C287.691 76.6284 287.329 76.7534 287.035 77.0034C286.749 77.2444 286.606 77.5792 286.606 78.0077C286.606 78.2219 286.647 78.4183 286.727 78.5969C286.807 78.7665 286.919 78.9093 287.062 79.0254C287.204 79.1414 287.37 79.2307 287.557 79.2932C287.745 79.3557 287.941 79.3869 288.146 79.3869ZM293.327 78.0479H294.947V79.1593C295.117 78.8201 295.389 78.5255 295.764 78.2755C296.148 78.0255 296.63 77.9006 297.21 77.9006C297.558 77.9006 297.88 77.9541 298.174 78.0613C298.469 78.1684 298.723 78.3335 298.937 78.5567C299.152 78.771 299.317 79.0522 299.433 79.4003C299.549 79.7485 299.607 80.1636 299.607 80.6457V85.0513H297.987V80.793C297.987 80.2573 297.875 79.869 297.652 79.628C297.429 79.378 297.076 79.253 296.594 79.253C296.139 79.253 295.75 79.3959 295.429 79.6815C295.108 79.9583 294.947 80.3734 294.947 80.9269V85.0513H293.327V78.0479ZM307.367 75.4768H309.697L312.857 85.0513H311.009L310.246 82.6811H306.59L305.84 85.0513H304.166L307.367 75.4768ZM307.005 81.3822H309.831L308.425 76.9364L307.005 81.3822ZM314.277 74.8073H315.897V85.0513H314.277V74.8073ZM317.965 74.8073H319.585V85.0513H317.965V74.8073ZM323.661 84.3416L320.889 78.0479H322.643L324.505 82.5606L326.219 78.0479H327.799L323.982 87.4482H322.389L323.661 84.3416ZM335.697 85.1852C335.045 85.1852 334.483 85.1093 334.01 84.9575C333.546 84.7968 333.157 84.5826 332.845 84.3148C332.541 84.038 332.309 83.7122 332.148 83.3372C331.988 82.9534 331.89 82.5338 331.854 82.0785H333.568C333.595 82.3195 333.644 82.5472 333.715 82.7614C333.796 82.9757 333.912 83.1632 334.063 83.3239C334.224 83.4845 334.434 83.614 334.693 83.7122C334.961 83.8015 335.295 83.8461 335.697 83.8461C336.233 83.8461 336.666 83.7122 336.996 83.4444C337.335 83.1766 337.505 82.8195 337.505 82.3731C337.505 82.1499 337.474 81.9624 337.411 81.8107C337.349 81.65 337.241 81.5161 337.09 81.409C336.938 81.2929 336.733 81.1947 336.474 81.1144C336.215 81.034 335.893 80.9626 335.51 80.9001C334.938 80.8198 334.438 80.7171 334.01 80.5921C333.59 80.4582 333.242 80.2841 332.965 80.0699C332.689 79.8467 332.479 79.5744 332.336 79.253C332.202 78.9317 332.135 78.5478 332.135 78.1014C332.135 77.7086 332.215 77.3471 332.376 77.0168C332.537 76.6775 332.76 76.3874 333.046 76.1464C333.34 75.8964 333.693 75.7045 334.104 75.5706C334.514 75.4277 334.97 75.3563 335.469 75.3563C336.505 75.3563 337.317 75.5884 337.907 76.0526C338.505 76.5168 338.853 77.2087 338.951 78.1282H337.317C337.228 77.6194 337.036 77.2533 336.742 77.0302C336.447 76.807 336.023 76.6954 335.469 76.6954C334.925 76.6954 334.514 76.8114 334.237 77.0435C333.961 77.2757 333.822 77.5792 333.822 77.9541C333.822 78.1505 333.845 78.3246 333.889 78.4764C333.943 78.6192 334.041 78.7486 334.184 78.8647C334.336 78.9718 334.537 79.0656 334.786 79.1459C335.045 79.2263 335.385 79.2977 335.804 79.3602C336.367 79.4405 336.858 79.5432 337.277 79.6682C337.706 79.7931 338.063 79.9672 338.348 80.1904C338.643 80.4136 338.862 80.6903 339.005 81.0206C339.147 81.342 339.219 81.7437 339.219 82.2258C339.219 82.6454 339.134 83.0337 338.964 83.3908C338.795 83.7479 338.554 84.0603 338.241 84.3282C337.938 84.596 337.567 84.8058 337.13 84.9575C336.701 85.1093 336.224 85.1852 335.697 85.1852ZM343.928 85.1852C343.428 85.1852 342.959 85.1048 342.522 84.9441C342.093 84.7835 341.719 84.5513 341.397 84.2478C341.085 83.9443 340.839 83.5738 340.661 83.1364C340.482 82.6989 340.393 82.199 340.393 81.6366V81.5295C340.393 80.976 340.482 80.4761 340.661 80.0297C340.848 79.5833 341.103 79.2039 341.424 78.8915C341.745 78.5701 342.12 78.3246 342.549 78.155C342.977 77.9854 343.437 77.9006 343.928 77.9006C344.312 77.9006 344.687 77.9497 345.053 78.0479C345.419 78.1371 345.745 78.2844 346.03 78.4898C346.325 78.6951 346.57 78.9674 346.767 79.3066C346.963 79.6369 347.084 80.0431 347.128 80.5252H345.562C345.49 80.052 345.312 79.7128 345.026 79.5075C344.74 79.3021 344.383 79.1995 343.955 79.1995C343.678 79.1995 343.424 79.253 343.192 79.3602C342.959 79.4584 342.759 79.6101 342.589 79.8155C342.419 80.0119 342.285 80.2529 342.187 80.5386C342.098 80.8242 342.053 81.1456 342.053 81.5027V81.6098C342.053 82.3776 342.227 82.9578 342.576 83.3506C342.924 83.7434 343.397 83.9398 343.995 83.9398C344.209 83.9398 344.41 83.9086 344.598 83.8461C344.794 83.7836 344.968 83.6899 345.12 83.5649C345.272 83.4399 345.397 83.2837 345.495 83.0962C345.593 82.9087 345.655 82.69 345.682 82.4401H347.169C347.142 82.8418 347.044 83.2123 346.874 83.5515C346.713 83.8818 346.495 84.1719 346.218 84.4219C345.941 84.6629 345.606 84.8504 345.214 84.9843C344.83 85.1182 344.401 85.1852 343.928 85.1852ZM351.75 83.9264C352.357 83.9264 352.83 83.7211 353.169 83.3105C353.508 82.8909 353.678 82.3195 353.678 81.5964V81.5027C353.678 80.7796 353.508 80.2127 353.169 79.8021C352.83 79.3825 352.357 79.1727 351.75 79.1727C351.143 79.1727 350.665 79.378 350.317 79.7887C349.978 80.1993 349.808 80.7662 349.808 81.4893V81.5964C349.808 82.3195 349.978 82.8909 350.317 83.3105C350.656 83.7211 351.134 83.9264 351.75 83.9264ZM351.736 85.1852C351.218 85.1852 350.741 85.1004 350.303 84.9308C349.866 84.7611 349.487 84.5201 349.165 84.2076C348.844 83.8952 348.594 83.5203 348.415 83.0828C348.237 82.6454 348.148 82.1588 348.148 81.6232V81.5161C348.148 80.9715 348.237 80.4805 348.415 80.0431C348.603 79.5967 348.857 79.2173 349.179 78.9049C349.5 78.5835 349.879 78.338 350.317 78.1684C350.754 77.9898 351.232 77.9006 351.75 77.9006C352.258 77.9006 352.732 77.9854 353.169 78.155C353.607 78.3246 353.986 78.5701 354.307 78.8915C354.629 79.2039 354.879 79.5789 355.057 80.0163C355.245 80.4537 355.338 80.9403 355.338 81.4759V81.583C355.338 82.1276 355.245 82.6231 355.057 83.0694C354.879 83.5069 354.629 83.8863 354.307 84.2076C353.986 84.5201 353.607 84.7611 353.169 84.9308C352.732 85.1004 352.254 85.1852 351.736 85.1852ZM356.855 78.0479H358.475V79.1727C358.573 79.0031 358.698 78.8424 358.85 78.6906C359.002 78.5389 359.176 78.405 359.372 78.2889C359.577 78.1728 359.796 78.0791 360.028 78.0077C360.26 77.9363 360.506 77.9006 360.765 77.9006C361.202 77.9006 361.608 77.9809 361.983 78.1416C362.367 78.3023 362.698 78.5344 362.974 78.8379C363.251 79.1414 363.47 79.5164 363.63 79.9628C363.791 80.4002 363.871 80.9001 363.871 81.4625V81.5697C363.871 82.1321 363.791 82.6365 363.63 83.0828C363.479 83.5292 363.264 83.9086 362.988 84.221C362.72 84.5335 362.394 84.7745 362.01 84.9441C361.635 85.1048 361.22 85.1852 360.765 85.1852C360.202 85.1852 359.725 85.0647 359.332 84.8236C358.948 84.5826 358.662 84.2925 358.475 83.9532V87.4482H356.855V78.0479ZM360.363 83.8997C360.961 83.8997 361.417 83.7077 361.729 83.3239C362.05 82.9311 362.211 82.3552 362.211 81.5964V81.4893C362.211 81.1054 362.162 80.7707 362.064 80.485C361.974 80.1904 361.845 79.9449 361.675 79.7485C361.506 79.5521 361.309 79.4093 361.086 79.32C360.863 79.2218 360.618 79.1727 360.35 79.1727C359.787 79.1727 359.323 79.3646 358.957 79.7485C358.6 80.1234 358.421 80.7037 358.421 81.4893V81.5964C358.421 82.382 358.595 82.9623 358.944 83.3372C359.301 83.7122 359.774 83.8997 360.363 83.8997ZM368.461 85.1852C367.943 85.1852 367.465 85.1048 367.028 84.9441C366.599 84.7745 366.225 84.538 365.903 84.2344C365.591 83.922 365.345 83.547 365.167 83.1096C364.997 82.6722 364.912 82.1767 364.912 81.6232V81.5161C364.912 80.9715 364.997 80.4805 365.167 80.0431C365.345 79.5967 365.591 79.2173 365.903 78.9049C366.216 78.5835 366.582 78.338 367.001 78.1684C367.43 77.9898 367.894 77.9006 368.394 77.9006C368.831 77.9006 369.246 77.9675 369.639 78.1014C370.041 78.2353 370.394 78.4451 370.697 78.7308C371.001 79.0165 371.242 79.3825 371.42 79.8288C371.608 80.2752 371.701 80.8108 371.701 81.4357V81.9044H366.573C366.599 82.574 366.774 83.0873 367.095 83.4444C367.425 83.8015 367.894 83.98 368.501 83.98C368.992 83.98 369.367 83.8863 369.626 83.6988C369.885 83.5113 370.045 83.248 370.108 82.9087H371.675C371.559 83.6497 371.219 84.2166 370.657 84.6094C370.094 84.9932 369.362 85.1852 368.461 85.1852ZM370.094 80.8198C370.05 80.2127 369.88 79.7708 369.586 79.4941C369.3 79.2173 368.903 79.079 368.394 79.079C367.903 79.079 367.501 79.2352 367.189 79.5476C366.876 79.8512 366.68 80.2752 366.599 80.8198H370.094Z" fill="white"/>
<circle opacity="0.3" cx="58.8556" cy="79.7467" r="6.69542" fill="#C4C4C4"/>
<circle opacity="0.3" cx="78.9415" cy="79.7467" r="6.69542" fill="#C4C4C4"/>
<circle opacity="0.3" cx="99.027" cy="79.7467" r="6.69542" fill="#C4C4C4"/>
<defs>
<filter id="filter0_d" x="28.411" y="48.411" width="538.178" height="303.184" filterUnits="userSpaceOnUse" color-interpolation-filters="sRGB">
<feFlood flood-opacity="0" result="BackgroundImageFix"/>
<feColorMatrix in="SourceAlpha" type="matrix" values="0 0 0 0 0 0 0 0 0 0 0 0 0 0 0 0 0 0 127 0" result="hardAlpha"/>
<feOffset/>
<feGaussianBlur stdDeviation="6.29448"/>
<feColorMatrix type="matrix" values="0 0 0 0 0 0 0 0 0 0 0 0 0 0 0 0 0 0 0.2 0"/>
<feBlend mode="normal" in2="BackgroundImageFix" result="effect1_dropShadow"/>
<feBlend mode="normal" in="SourceGraphic" in2="effect1_dropShadow" result="shape"/>
</filter>
</defs>
</svg>
