<svg xmlns="http://www.w3.org/2000/svg" viewBox="0 0 600 177.34">
  <defs>
    <style>.cls-1{fill:#fff;}.cls-2{fill:#a4a049;}</style>
  </defs>
  <g id="Layer_2" data-name="Layer 2">
    <g id="Layer_1-2" data-name="Layer 1" style="shape-rendering: geometricprecision;">
      <path class="cls-1" d="M112.32,98.52h11.82a27.7,27.7,0,0,1-5.42,9.86A30.75,30.75,0,0,1,112.32,98.52Z"/>
      <polygon class="cls-1" points="43.84 29.56 47.78 43.35 39.41 43.35 43.84 29.56"/>
      <path class="cls-1" d="M136.46,92.12H119.71l3-1a30.07,30.07,0,0,0-2.46-5.92l-5.91,2a20.41,20.41,0,0,1,2,4.93H100V98h6.41a45.21,45.21,0,0,0,7.88,13.3,33.18,33.18,0,0,1-14.78,6.41,20.38,20.38,0,0,1,3.45,5.42,46.58,46.58,0,0,0,15.76-7.39,42,42,0,0,0,14.78,7.39,19.41,19.41,0,0,1,3.94-4.93,41.27,41.27,0,0,1-14.28-6.4,44.35,44.35,0,0,0,7.39-13.31h5.91Zm12.8-13.3v68h-.49l-18.22-16.25H88.18V78.82Z"/>
      <path class="cls-1" d="M74.88,65H32L13.79,81.28V13.79H74.88ZM51.73,55.17h7.38L48.77,23.65H39.41L29.06,55.17H36l2-6.89H49.75Z"/>
      <path d="M118.72,108.38a27.7,27.7,0,0,0,5.42-9.86H112.32A30.75,30.75,0,0,0,118.72,108.38Zm1-16.26h16.75v6.4h-5.91a44.35,44.35,0,0,1-7.39,13.31,41.27,41.27,0,0,0,14.28,6.4,19.41,19.41,0,0,0-3.94,4.93,42,42,0,0,1-14.78-7.39A46.58,46.58,0,0,1,103,123.16a20.38,20.38,0,0,0-3.45-5.42,33.18,33.18,0,0,0,14.78-6.41A45.21,45.21,0,0,1,106.41,98H100V92.12h16.26a20.41,20.41,0,0,0-2-4.93l5.91-2a30.07,30.07,0,0,1,2.46,5.92Z"/>
      <path d="M47.78,43.35,43.84,29.56,39.41,43.35Zm1-19.7L59.11,55.17H51.73l-2-6.89H37.93l-2,6.89h-6.9L39.41,23.65Z"/>
      <path class="cls-2" d="M74.88,65V13.79H13.79V81.28L32,65Zm74.38,81.77v-68H88.18v51.73h42.37l18.22,16.25ZM162.57,65V177.34l-36.95-33H74.39V78.82H37L0,112.32V0H88.18V65Z"/>
      <g style="fill: var(--main-text-color);">
        <path d="M206.8,91h14.55v54.49H206.8ZM204.92,74.5A9.2,9.2,0,0,1,214,65.24a9.32,9.32,0,0,1,9.26,9.26,9.21,9.21,0,0,1-9.26,9,9.09,9.09,0,0,1-9.05-9"/>
        <polygon points="247.38 89.94 233.71 99.21 232.16 99.21 232.16 85.97 257.97 68.33 263.04 68.33 263.04 145.53 247.38 145.53 247.38 89.94"/>
        <path d="M310.6,88.29c0-5.07-3.42-8.93-8.93-8.93s-8.93,3.86-8.93,8.93,3.42,8.93,8.93,8.93,8.93-3.86,8.93-8.93m2.76,33.52a11.69,11.69,0,1,0-11.69,12,11.7,11.7,0,0,0,11.69-12M275,123.47c0-10.37,5-15.88,11.58-19.63-5.73-4.63-8.82-9.71-8.82-16.76,0-11.14,9.92-20.3,23.93-20.3s23.93,9.16,23.93,20.3c0,7-3.08,12.13-8.82,16.76,6.62,3.75,11.58,9.26,11.58,19.63,0,10.81-9.6,23.6-26.69,23.6S275,134.28,275,123.47"/>
        <path d="M339.17,91h14.56v6.73c3.86-5,10.69-8.27,17.86-8.27,11.47,0,19.41,6.18,19.41,18.86v37.17H376.45v-32c0-7.28-4.41-10.58-10.37-10.58-6.95,0-12.35,5.4-12.35,14.44v28.13H339.17Z"/>
        <path d="M468.87,118.29c0-8.39-5.63-15.33-14.89-15.33s-14.89,6.94-14.89,15.33,5.62,15.33,14.89,15.33,14.89-7,14.89-15.33m-44.34,0c0-15.89,12.13-28.79,27.35-28.79,7.17,0,13.24,2.65,16.33,6.51V91h14.55v54.49H468.21v-5c-4,3.75-8.5,6.51-17.21,6.51-13,0-26.47-10.81-26.47-28.78"/>
        <rect x="493.35" y="66.12" width="14.56" height="79.41"/>
        <rect x="520.71" y="66.12" width="14.56" height="79.41"/>
        <polygon points="584.34 91.05 571 118.51 558.2 91.05 542.76 91.05 563.16 134.72 545.74 170.45 561.4 170.45 600 91.05 584.34 91.05"/>
      </g>
    </g>
  </g>
</svg>