<svg width="177" height="52" viewBox="0 0 177 52" fill="none" xmlns="http://www.w3.org/2000/svg">
<g clip-path="url(#clip0)">
<path d="M29.7544 19.6206C29.8616 23.1052 25.5729 24.499 23.6966 21.8722C21.2842 18.4948 23.7502 14.9031 24.0719 11.3649C24.5007 6.91546 21.9812 2.5732 18.7647 0C20.5337 3.10928 18.2286 7.18351 16.3523 9.43505C14.5832 11.633 12.3853 13.5093 10.4018 15.4928C8.25744 17.6371 6.22033 19.9423 4.50486 22.4619C1.07394 27.501 -1.01679 33.8804 0.537854 40.2062C2.09249 46.532 7.13167 50.5526 12.7605 51.9464C9.9193 50.6062 7.23889 47.1753 7.23889 43.6907C7.23889 39.8845 9.43682 36.6144 12.2245 34.5237C11.9028 35.9175 11.6884 37.1505 12.5461 38.3835C13.2966 39.5093 14.6368 40.0454 15.9234 39.7773C18.8719 39.0804 19.0327 35.5423 17.2636 33.4515C15.5482 31.4144 13.8327 29.1093 14.5296 26.1608C14.8513 24.6598 15.709 23.266 16.7812 22.301C15.977 24.6598 18.2822 26.9113 19.7832 28.0907C22.41 30.0742 25.3049 31.5753 27.7708 33.934C30.344 36.4 32.2203 39.7237 31.8451 43.5299C31.4162 47.7113 28.4141 50.6062 24.9832 52.0536C32.1131 50.2309 39.5647 44.1732 39.6719 35.4351C39.8327 28.3052 35.3296 22.7835 29.7544 19.6206Z" fill="#919191"/>
<path d="M59.4515 27.93H56.3423V27.8764C56.3423 26.0001 55.5917 24.9279 53.233 24.9279C49.8021 24.9279 48.7299 27.2331 48.1402 31.2537C48.033 32.165 47.9258 33.0764 47.9258 33.8269C47.9258 36.1856 48.6763 37.7403 51.3567 37.7403C53.0722 37.7403 54.6268 37.1506 56.0742 34.8454L58.2722 36.3465C56.9856 38.598 54.734 40.4207 50.9278 40.4207C45.9423 40.4207 44.6021 37.2042 44.6021 33.666C44.6021 32.8619 44.6557 32.0578 44.8165 31.2537C45.6742 25.2496 47.9794 22.0867 53.6082 22.0867C57.7361 22.0867 59.3979 24.499 59.3979 27.2867C59.5052 27.5011 59.5051 27.7155 59.4515 27.93Z" fill="#919191"/>
<path d="M66.2603 29.2164C64.2768 29.2164 63.3118 30.235 62.8294 33.5587C62.7221 34.202 62.6685 34.7917 62.6685 35.2741C62.6685 37.2576 63.4727 37.9009 65.0273 37.9009C67.0108 37.9009 68.0294 36.8824 68.5118 33.5587C68.6191 32.9154 68.6727 32.3793 68.6727 31.8968C68.6727 29.8597 67.8685 29.2164 66.2603 29.2164ZM71.7819 33.5051C71.1386 38.0082 69.1551 40.4205 64.652 40.4205C60.7923 40.4205 59.3984 38.0618 59.3984 35.1133C59.3984 34.5772 59.452 34.0411 59.5057 33.5051C60.149 28.8948 62.1325 26.5896 66.5819 26.5896C70.3881 26.5896 71.8356 28.8411 71.8356 31.8432C71.8892 32.3793 71.8356 32.9154 71.7819 33.5051Z" fill="#919191"/>
<path d="M79.3941 29.1094C77.7858 29.1094 76.5528 29.8063 75.9632 33.6661C75.8559 34.363 75.8023 35.0063 75.8023 35.596C75.8023 37.097 76.2848 38.0083 78.0539 38.0083C78.6972 38.0083 79.7693 37.8475 80.8951 37.2042L81.9673 29.699C81.2704 29.2702 80.4662 29.1094 79.3941 29.1094ZM83.7363 40.0454H81.3776L81.1095 39.0805C80.1446 39.8846 78.9652 40.4207 77.6786 40.4207C74.7302 40.4207 72.5322 39.0269 72.5322 35.2743C72.5322 34.7382 72.5322 34.2021 72.6394 33.6124C73.39 28.5197 75.6415 26.5898 79.6621 26.5898C80.5199 26.5898 81.7528 26.7506 82.5034 27.2867C82.3425 26.9114 82.3425 26.697 82.3961 26.2681L83.1467 21.0681H86.3632L83.7363 40.0454Z" fill="#919191"/>
<path d="M93.1712 29.2165C91.3485 29.2165 90.4372 29.9134 89.9011 32.2186H95.2619C95.3156 31.9505 95.3156 31.6825 95.3156 31.4144C95.3156 29.967 94.6187 29.2165 93.1712 29.2165ZM98.264 34.4701H89.4722C89.4186 34.8454 89.4186 35.2206 89.4186 35.5423C89.4186 37.1505 90.1692 37.901 91.9382 37.901C93.6001 37.901 94.565 37.1505 95.2619 36.0784L97.7279 37.0969C96.6022 39.2949 94.4578 40.4742 91.563 40.4742C87.864 40.4742 86.2021 38.4907 86.2021 35.2206C86.2021 34.6845 86.2558 34.1485 86.3094 33.5588C87.0063 28.7876 89.097 26.6433 93.5465 26.6433C97.5671 26.6433 98.5321 29.4845 98.5321 31.8969C98.5321 32.6474 98.3712 33.6124 98.264 34.4701Z" fill="#919191"/>
<path d="M107.86 24.6061H106.091L104.108 38.0082H105.93L105.662 40.0453H98.8003L99.0683 38.0082H100.891L102.821 24.6061H100.998L101.32 22.5154H108.182L107.86 24.6061Z" fill="#919191"/>
<path d="M114.829 29.1628C113.007 29.1628 111.935 30.2349 111.935 32.004C111.935 33.237 112.685 33.7195 114.132 33.7195C115.955 33.7195 116.974 32.7545 116.974 30.9318C116.974 29.7524 116.277 29.1628 114.829 29.1628ZM115.097 40.0988L110.541 39.2411C109.79 39.9916 109.469 40.5277 109.469 41.5999C109.469 42.8329 110.326 43.4226 112.685 43.4226C114.24 43.4226 116.33 43.1545 116.33 41.2246C116.384 40.6349 116.062 40.2597 115.097 40.0988ZM121.798 29.4844H120.994C120.78 29.4844 120.244 29.4844 119.815 29.27C120.083 29.8597 120.137 30.503 120.137 31.039C120.137 34.8452 117.135 36.2927 113.757 36.2927C113.007 36.2927 112.256 36.239 111.666 36.0782C111.559 36.0782 111.452 36.0246 111.345 36.0246C110.97 36.0246 110.755 36.239 110.755 36.5607C110.755 36.8287 110.862 36.9896 111.398 37.0968L116.116 37.9545C118.743 38.437 119.601 39.5628 119.601 41.0102C119.601 45.1916 115.687 45.9957 112.363 45.9957C109.737 45.9957 106.306 45.2988 106.306 42.0287C106.306 40.3133 107.217 38.8659 108.664 38.0081C108.396 37.6329 108.236 37.204 108.236 36.8287C108.236 35.971 108.879 35.2741 109.576 34.8988C109.093 34.3091 108.718 33.3978 108.718 32.3256C108.718 28.5195 111.666 26.6968 115.151 26.6968C116.384 26.6968 117.671 26.9112 118.582 27.5009L120.297 26.6968H122.656L121.798 29.4844Z" fill="#919191"/>
<path d="M134.182 31.8432L133.002 40.0453H129.786L130.965 31.8432C131.019 31.5752 131.019 31.2535 131.019 30.9855C131.019 29.8597 130.59 29.1628 129.357 29.1628C128.338 29.1628 127.212 29.6989 126.248 30.2886L124.854 40.0453H121.637L123.513 26.9649H126.194L126.408 28.1442C127.909 26.9649 129.142 26.5896 130.483 26.5896C133.217 26.5896 134.289 28.3051 134.289 30.6102C134.289 31.0391 134.235 31.4143 134.182 31.8432Z" fill="#919191"/>
<path d="M142.223 24.3917C142.223 24.6061 142.223 24.6061 142.009 24.6061H138.846C138.631 24.6061 138.631 24.6061 138.685 24.3917L139.114 21.3896C139.114 21.1216 139.114 21.1216 139.328 21.1216H142.491C142.706 21.1216 142.706 21.1216 142.652 21.3896L142.223 24.3917ZM141.58 40.2597H139.918C138.042 40.2597 137.077 39.4556 137.077 37.7401C137.077 37.4721 137.077 37.2041 137.13 36.8824L138.095 30.1278C138.095 29.9133 138.256 29.6453 138.417 29.4309H136.058L136.38 26.9649H141.741L140.454 36.8824C140.454 36.9896 140.454 37.0968 140.454 37.2041C140.454 37.4721 140.561 37.5793 140.936 37.5793H142.009L141.58 40.2597Z" fill="#919191"/>
<path d="M152.677 29.4845H148.978L147.959 36.4536C147.959 36.5608 147.959 36.7216 147.959 36.7752C147.959 37.5257 148.334 37.8474 149.139 37.8474C150.264 37.8474 150.747 37.5257 151.497 37.0432L152.998 38.8659C151.819 39.8845 150.264 40.4206 148.388 40.4206C146.351 40.4206 144.635 39.5092 144.635 37.2041C144.635 36.936 144.635 36.668 144.689 36.3999L145.547 30.3958C145.547 30.1278 145.815 29.7525 146.029 29.4309H143.724L144.046 26.9649H146.029L146.619 22.7298L150.05 21.7649L149.299 26.9649H153.749L152.677 29.4845Z" fill="#919191"/>
<path d="M160.557 29.217C158.734 29.217 157.823 29.9139 157.287 32.2191H162.648C162.701 31.951 162.701 31.683 162.701 31.4149C162.701 29.9675 162.004 29.217 160.557 29.217ZM165.65 34.4706H156.858C156.804 34.8459 156.804 35.2211 156.804 35.5428C156.804 37.151 157.555 37.9015 159.324 37.9015C160.986 37.9015 161.951 37.151 162.648 36.0789L165.114 37.0974C163.988 39.2953 161.844 40.4747 158.949 40.4747C155.25 40.4747 153.588 38.4912 153.588 35.2211C153.588 34.685 153.642 34.149 153.695 33.5593C154.392 28.7881 156.483 26.6438 160.932 26.6438C164.953 26.6438 165.918 29.485 165.918 31.8974C165.918 32.6479 165.811 33.6129 165.65 34.4706Z" fill="#919191"/>
<path d="M175.889 29.5382C175.353 29.4846 174.817 29.431 174.227 29.431C173.316 29.431 172.351 29.5918 171.493 30.0743L170.046 40.0454H166.776L168.652 26.965H171.333L171.547 27.9836C172.619 26.965 173.745 26.5361 174.924 26.5361C175.407 26.5361 175.889 26.5897 176.372 26.697L175.889 29.5382Z" fill="#919191"/>
</g>
<defs>
<clipPath id="clip0">
<rect width="176.318" height="52" fill="white"/>
</clipPath>
</defs>
</svg>
