<svg width="173" height="50" viewBox="0 0 173 50" fill="none" xmlns="http://www.w3.org/2000/svg">
<g clip-path="url(#clip0)">
<path fill-rule="evenodd" clip-rule="evenodd" d="M65.7422 11.493V33.9901H73.9402V37.8705H61.3774V11.493H65.7422ZM89.348 22.6842V20.3117H93.4843V37.8705H89.3471V35.496C88.7912 36.3754 88 37.0666 86.9745 37.5685C85.951 38.0705 84.9196 38.3215 83.8823 38.3215C82.5412 38.3215 81.3137 38.0764 80.201 37.5872C79.1177 37.1188 78.1423 36.4327 77.3353 35.5715C76.5376 34.7164 75.9071 33.7195 75.4765 32.6323C75.0291 31.5053 74.8034 30.3026 74.8118 29.0901C74.8118 27.8597 75.0333 26.6852 75.4765 25.5666C75.9043 24.4726 76.5349 23.4694 77.3353 22.6097C78.1423 21.7483 79.1177 21.0619 80.201 20.593C81.3137 20.1028 82.5412 19.8577 83.8823 19.8577C84.9196 19.8577 85.951 20.1097 86.9755 20.6127C88 21.1146 88.7912 21.8058 89.348 22.6842ZM88.9677 31.2381C89.2223 30.5511 89.3511 29.8238 89.348 29.0911C89.348 28.3362 89.2206 27.6205 88.9677 26.9421C88.73 26.2895 88.3696 25.6885 87.9059 25.1715C87.4418 24.6631 86.8804 24.253 86.2549 23.9656C85.6088 23.6646 84.8941 23.5136 84.1098 23.5136C83.3255 23.5136 82.6167 23.6646 81.9843 23.9656C81.352 24.2676 80.8078 24.6695 80.3529 25.1715C79.8903 25.686 79.5356 26.288 79.3098 26.9421C79.067 27.632 78.9449 28.3587 78.949 29.0901C78.949 29.844 79.0686 30.5607 79.3098 31.2372C79.5353 31.8916 79.8901 32.494 80.3529 33.0087C80.812 33.5142 81.3664 33.924 81.9843 34.2146C82.6167 34.5166 83.3255 34.6666 84.1098 34.6666C84.8941 34.6666 85.6098 34.5166 86.2549 34.2156C86.8805 33.9284 87.442 33.5183 87.9059 33.0097C88.3698 32.4925 88.7302 31.8911 88.9677 31.2381ZM96.748 37.8695V20.3107H107.982V24.3519H100.884V37.8695H96.748ZM122.974 22.6842V20.3117H127.11V37.8705H122.973V35.496C122.416 36.3754 121.625 37.0666 120.6 37.5685C119.576 38.0705 118.545 38.3215 117.508 38.3215C116.166 38.3215 114.939 38.0764 113.826 37.5872C112.743 37.1188 111.768 36.4327 110.961 35.5715C110.163 34.7164 109.533 33.7195 109.102 32.6323C108.655 31.5053 108.429 30.3026 108.437 29.0901C108.437 27.8597 108.658 26.6852 109.102 25.5666C109.53 24.4726 110.16 23.4694 110.961 22.6097C111.768 21.7483 112.743 21.0619 113.826 20.593C114.939 20.1028 116.166 19.8577 117.508 19.8577C118.545 19.8577 119.576 20.1097 120.601 20.6127C121.625 21.1146 122.416 21.8058 122.974 22.6842ZM122.593 31.2381C122.847 30.551 122.976 29.8237 122.973 29.0911C122.973 28.3362 122.845 27.6205 122.593 26.9421C122.355 26.2894 121.994 25.6884 121.53 25.1715C121.066 24.6631 120.505 24.253 119.879 23.9656C119.234 23.6646 118.52 23.5136 117.735 23.5136C116.951 23.5136 116.242 23.6646 115.61 23.9656C114.977 24.2676 114.433 24.6695 113.978 25.1715C113.515 25.6859 113.16 26.288 112.934 26.9421C112.691 27.632 112.569 28.3587 112.574 29.0901C112.574 29.844 112.693 30.5607 112.934 31.2372C113.16 31.8917 113.515 32.4941 113.978 33.0087C114.438 33.5142 114.992 33.924 115.61 34.2146C116.242 34.5166 116.951 34.6666 117.735 34.6666C118.52 34.6666 119.235 34.5166 119.879 34.2156C120.505 33.9284 121.067 33.5183 121.53 33.0097C121.995 32.4926 122.355 31.8912 122.593 31.2381ZM143.694 20.3107H147.884L141.094 37.8695H135.896L129.106 20.3107H133.296L138.495 33.7568L143.694 20.3107ZM156.906 19.8597C162.539 19.8597 166.38 24.8156 165.659 30.6166H151.935C151.935 32.1313 153.475 35.0597 157.133 35.0597C160.28 35.0597 162.388 32.3117 162.39 32.3097L165.184 34.4568C162.686 37.1058 160.64 38.3225 157.436 38.3225C151.711 38.3225 147.831 34.7264 147.831 29.0911C147.831 23.993 151.841 19.8597 156.906 19.8597ZM151.946 27.5646H161.86C161.829 27.2264 161.292 23.1215 156.874 23.1215C152.455 23.1215 151.978 27.2264 151.946 27.5646ZM168.353 37.8695V11.493H172.49V37.8695H168.353ZM48.7882 11.2872C48.8063 11.3536 48.8155 11.4222 48.8157 11.4911V22.2009C48.8155 22.3386 48.7788 22.4739 48.7094 22.5928C48.64 22.7118 48.5404 22.8103 48.4206 22.8783L39.3676 28.0538V38.3117C39.3673 38.4492 39.3305 38.5843 39.2611 38.7031C39.1917 38.8219 39.0922 38.9202 38.9725 38.9881L20.0765 49.7911C20.0333 49.8166 19.9853 49.8313 19.9392 49.8479C19.9206 49.8538 19.9039 49.8646 19.8863 49.8695C19.7539 49.9042 19.6148 49.9042 19.4824 49.8695C19.4608 49.8636 19.4412 49.8519 19.4206 49.844C19.3765 49.8293 19.3324 49.8146 19.2912 49.7911L0.394118 38.9901C0.274372 38.9219 0.174825 38.8232 0.1056 38.704C0.0363743 38.5849 -6.04781e-05 38.4495 7.53554e-08 38.3117V6.18226C0.000155704 6.11338 0.00938544 6.04481 0.0274511 5.97834C0.0333334 5.95481 0.0470589 5.93422 0.054902 5.91265C0.0705883 5.87148 0.0843138 5.82932 0.105882 5.79108C0.120588 5.76559 0.142157 5.74501 0.158824 5.72246C0.182353 5.69108 0.201961 5.65775 0.229412 5.6303C0.251961 5.60775 0.281373 5.59108 0.306863 5.57148C0.335294 5.54991 0.360784 5.52442 0.393137 5.50579L0.394118 5.50481L9.84314 0.103829C9.96269 0.0359366 10.0978 0.000244141 10.2353 0.000244141C10.3728 0.000244141 10.5079 0.0359366 10.6275 0.103829L20.0765 5.50481H20.0784C20.1098 5.52442 20.1353 5.54991 20.1647 5.57148C20.1902 5.59108 20.2186 5.60775 20.2412 5.6303C20.2686 5.65775 20.2882 5.69108 20.3118 5.72148C20.3294 5.74501 20.351 5.76559 20.3657 5.79108C20.3873 5.82932 20.401 5.87148 20.4167 5.91265C20.4245 5.93422 20.4373 5.95481 20.4441 5.97834C20.4619 6.04486 20.4708 6.11342 20.4706 6.18226V26.2499L28.3451 21.7489V11.4911C28.3449 11.4222 28.3538 11.3537 28.3716 11.2872C28.3784 11.2636 28.3912 11.244 28.4 11.2215C28.4147 11.1803 28.4284 11.1381 28.45 11.0999C28.4647 11.0744 28.4863 11.0538 28.5039 11.0313C28.5275 10.9999 28.5471 10.9666 28.5745 10.9401C28.5971 10.9176 28.6255 10.9009 28.651 10.8813C28.6804 10.8587 28.7059 10.8323 28.7382 10.8146V10.8136L38.1873 5.41265C38.3069 5.34439 38.4422 5.30849 38.5799 5.30849C38.7176 5.30849 38.8529 5.34439 38.9725 5.41265L48.4206 10.8136H48.4216C48.4549 10.8332 48.4804 10.8587 48.5098 10.8803C48.5343 10.8999 48.5637 10.9176 48.5863 10.9391C48.6137 10.9666 48.6333 10.9999 48.6559 11.0303C48.6735 11.0538 48.6951 11.0744 48.7098 11.0999C48.7323 11.1381 48.7451 11.1803 48.7608 11.2215C48.7696 11.244 48.7824 11.2636 48.7882 11.2872ZM47.2412 21.7489V12.843L43.9343 14.7332L39.3676 17.344V26.2499L47.2402 21.7489H47.2412ZM37.7931 37.8597V28.9479L33.299 31.495L20.4706 38.7646V47.7597L37.7931 37.8578V37.8597ZM1.57451 7.53422V37.8597L18.8961 47.7617V38.7676L9.84706 33.6832L9.8451 33.6803L9.84118 33.6793C9.8098 33.6617 9.78529 33.6362 9.75686 33.6146C9.73137 33.595 9.70392 33.5793 9.68137 33.5578L9.67941 33.5548C9.65392 33.5303 9.63627 33.4999 9.61471 33.4725C9.5951 33.447 9.57157 33.4244 9.55588 33.397L9.5549 33.394C9.53726 33.3646 9.52647 33.3293 9.51373 33.296C9.50098 33.2676 9.48431 33.2401 9.47647 33.2087V33.2078C9.46569 33.1705 9.46471 33.1313 9.4598 33.093C9.45686 33.0636 9.44804 33.0352 9.44804 33.0048V12.0342L4.88235 9.42442L1.57451 7.53422ZM10.2353 1.68324L2.36569 6.18324L10.2353 10.6813L18.1059 6.18226L10.2353 1.68324ZM14.3294 29.7597L18.8961 27.1499V7.53422L15.5902 9.42442L11.0225 12.0352V31.6499L14.3294 29.7597ZM38.5804 6.99304L30.7098 11.4911L38.5804 15.9901L46.45 11.4911L38.5804 6.99304ZM37.7931 17.344L33.2255 14.7332L29.9196 12.843V21.7489L34.4863 24.3597L37.7931 26.2499V17.343V17.344ZM19.6824 37.4127L31.2265 30.8695L36.9971 27.5989L29.1324 23.1028L20.0765 28.2793L11.8235 32.997L19.6824 37.4127Z" fill="#919191"/>
</g>
<defs>
<clipPath id="clip0">
<rect width="172.549" height="50" fill="white"/>
</clipPath>
</defs>
</svg>
