<svg width="121" height="28" viewBox="0 0 121 28" fill="none" xmlns="http://www.w3.org/2000/svg">
<path d="M23.4912 6.57967V6.55565L23.4886 6.55641C23.4314 5.94681 22.8984 5.49123 22.2846 5.53354C21.6613 5.57739 21.1916 6.1176 21.2347 6.73979H21.2339V22.6958C21.2339 23.5231 20.9381 24.2334 20.3453 24.8258C19.7528 25.4186 19.0612 25.7148 18.2713 25.7148C17.359 25.7148 16.6068 25.4186 16.014 24.8258C15.4307 24.252 15.1299 23.5284 15.1112 22.6527V16.0127H15.1074C15.1074 16.0058 15.1082 15.999 15.1082 15.9917C15.0807 15.3703 14.5546 14.8876 13.9324 14.9139C13.3343 14.9403 12.8665 15.4279 12.855 16.018H12.8535V22.6958C12.8535 24.1434 13.3712 25.3946 14.4055 26.4484C15.4215 27.483 16.6815 28 18.1867 28C19.6541 28 20.9049 27.483 21.9396 26.4484C22.9739 25.4133 23.4912 24.1632 23.4912 22.6958V6.73216C23.4943 6.68298 23.4954 6.63342 23.4916 6.5831C23.4916 6.58233 23.4916 6.58081 23.4912 6.57967Z" fill="black"/>
<path d="M46.0436 4.22284C46.4283 4.22284 46.7558 4.08407 47.0265 3.80614C47.2972 3.52822 47.4325 3.19769 47.4325 2.81263C47.4325 2.4211 47.2972 2.0898 47.0265 1.8195C46.7489 1.54158 46.4211 1.40281 46.0436 1.40281C45.659 1.40281 45.3311 1.54158 45.0608 1.8195C44.7894 2.09667 44.6548 2.42796 44.6548 2.81263C44.6548 3.20493 44.7894 3.53737 45.0608 3.81186C45.3311 4.08597 45.659 4.22284 46.0436 4.22284Z" fill="black"/>
<path d="M22.3347 1.40281C21.95 1.40281 21.6221 1.54158 21.3514 1.8195C21.0808 2.09667 20.9458 2.42796 20.9458 2.81263C20.9458 3.20493 21.0808 3.53737 21.3514 3.81186C21.6221 4.08597 21.95 4.22284 22.3347 4.22284C22.7193 4.22284 23.0468 4.08407 23.3175 3.80614C23.5886 3.52822 23.7235 3.19769 23.7235 2.81263C23.7235 2.4211 23.5886 2.0898 23.3175 1.8195C23.04 1.54158 22.7121 1.40281 22.3347 1.40281Z" fill="black"/>
<path d="M33.0241 17.0106C33.005 17.8852 32.7038 18.6095 32.1209 19.1825C31.5189 19.7753 30.8232 20.0716 30.0329 20.0716C29.2151 20.0716 28.4862 19.7753 27.8461 19.1825C27.2163 18.6 26.901 17.8756 26.901 17.0106V11.8185C26.9101 11.0095 27.2067 10.3137 27.79 9.73006C28.3825 9.138 29.0737 8.84177 29.8636 8.84177C30.7668 8.84177 31.5189 9.138 32.1209 9.73006C32.7038 10.3042 33.005 11.0282 33.0241 11.9031V17.0106ZM29.9486 6.55586C28.4812 6.55586 27.2304 7.07358 26.1961 8.10827C25.161 9.14295 24.644 10.3934 24.644 11.8608V17.0525C24.644 18.5199 25.161 19.7712 26.1961 20.8058C27.2304 21.8405 28.4812 22.3575 29.9486 22.3575C31.4152 22.3575 32.671 21.8405 33.7153 20.8058C34.7591 19.7712 35.2814 18.5199 35.2814 17.0525V11.8608C35.2814 10.3934 34.7591 9.14295 33.7153 8.10827C32.671 7.07358 31.4152 6.55586 29.9486 6.55586Z" fill="black"/>
<path d="M89.0264 14.4423V11.8609C89.0264 11.0333 89.3226 10.3226 89.9154 9.73018C90.5075 9.13774 91.199 8.84189 91.9886 8.84189C92.8925 8.84189 93.6443 9.1385 94.2467 9.73247C94.7919 10.2696 95.0873 10.9345 95.135 11.7264L89.0264 14.4423ZM97.406 11.8609C97.406 10.3367 96.8837 9.08627 95.8406 8.10801C94.7404 7.07332 93.4842 6.5556 92.0736 6.5556C90.6066 6.5556 89.3554 7.07332 88.3203 8.10801C87.286 9.14269 86.769 10.3932 86.769 11.8609V17.0527C86.769 18.5197 87.286 19.7713 88.3203 20.8056C89.3554 21.8403 90.6066 22.3576 92.0736 22.3576C93.5402 22.3576 94.7541 21.849 95.7141 20.8334C96.8418 19.6295 97.406 18.3691 97.406 17.0527V16.1686C97.3991 15.5483 96.8955 15.047 96.2733 15.047C95.7057 15.047 95.2368 15.4648 95.1536 16.0092L95.1491 16.0081V16.0447C95.1437 16.0893 95.1399 16.1342 95.1399 16.18C95.1399 16.2265 95.1437 16.2711 95.1491 16.3161V17.0103C95.13 17.8849 94.8292 18.6096 94.2467 19.1826C93.6443 19.7751 92.9482 20.0717 92.1582 20.0717C91.2555 20.0717 90.5075 19.7686 89.9154 19.1617C89.3226 18.5551 89.0264 17.8056 89.0264 16.9124L97.406 13.1869V11.8609Z" fill="black"/>
<path d="M83.6145 17.0106C83.5955 17.8852 83.2939 18.6095 82.7117 19.1825C82.1094 19.7753 81.4136 20.0716 80.6241 20.0716C79.8055 20.0716 79.0766 19.7753 78.4365 19.1825C77.8067 18.6 77.491 17.8756 77.491 17.0106V11.8185C77.501 11.0095 77.7972 10.3137 78.3805 9.73006C78.9733 9.13799 79.6645 8.84177 80.4544 8.84177C81.3572 8.84177 82.1094 9.13799 82.7117 9.73006C83.2939 10.3042 83.5955 11.0282 83.6145 11.9031V17.0106ZM84.7537 0.217749C84.1402 0.217749 83.642 0.704592 83.6225 1.31229L83.6145 1.31267V7.51582C82.7209 6.8761 81.6961 6.55586 80.5391 6.55586C79.0717 6.55586 77.8216 7.07358 76.7865 8.10827C75.7518 9.14295 75.2349 10.3934 75.2349 11.8608V17.0525C75.2349 18.5199 75.7518 19.7712 76.7865 20.8058C77.8216 21.8405 79.0717 22.3575 80.5391 22.3575C82.0061 22.3575 83.2622 21.8405 84.3057 20.8058C85.3499 19.7712 85.8722 18.5199 85.8722 17.0525V1.52387C85.8806 1.46707 85.8867 1.40989 85.8867 1.35079C85.8867 0.725178 85.3793 0.217749 84.7537 0.217749Z" fill="black"/>
<path d="M72.0348 17.0106C72.0157 17.8852 71.7153 18.6095 71.132 19.1825C70.5297 19.7753 69.8347 20.0716 69.0443 20.0716C68.2258 20.0716 67.4969 19.7753 66.8568 19.1825C66.227 18.6 65.9113 17.8756 65.9113 17.0106V16.1585C65.9125 16.1315 65.9159 16.1059 65.9159 16.0792V14.9081L65.9113 14.9096V11.8185C65.9212 11.0095 66.2175 10.3137 66.8008 9.73006C67.3936 9.138 68.0848 8.84177 68.8747 8.84177C69.7782 8.84177 70.5297 9.138 71.132 9.73006C71.7153 10.3042 72.0157 11.0282 72.0348 11.9031V17.0106ZM68.9593 6.55586C67.4919 6.55586 66.2419 7.07358 65.2068 8.10827C64.1721 9.14295 63.6555 10.3934 63.6555 11.8608V16.1936C63.638 17.2904 63.2365 18.2268 62.4455 18.9991C61.6365 19.7994 60.6723 20.1981 59.553 20.1981C58.415 20.1981 57.4459 19.7994 56.6464 18.9991C55.9179 18.271 55.5252 17.4078 55.4604 16.4128V15.9241L55.4478 15.9256V7.27602C55.4478 6.14717 55.847 5.18568 56.6464 4.3908C57.4459 3.59591 58.415 3.19866 59.553 3.19866C60.6723 3.19866 61.6365 3.5982 62.4455 4.39766C62.7745 4.72362 63.1264 5.26079 63.4142 5.77317C63.7203 6.30005 64.3951 6.47885 64.9228 6.1731C65.4165 5.88602 65.604 5.27451 65.373 4.76518L65.3757 4.76365C65.0684 4.08809 64.6277 3.46248 64.0532 2.88833C62.8305 1.65578 61.3307 1.04008 59.553 1.04008C57.794 1.04008 56.2938 1.6535 55.0529 2.88071C53.8112 4.1083 53.1901 5.58751 53.1901 7.31758V16.0792C53.1901 16.1703 53.1989 16.2573 53.2023 16.3472C53.192 17.8478 52.8966 18.4845 52.3144 19.112C51.7223 19.7521 51.0308 20.0716 50.2405 20.0716C49.3377 20.0716 48.5851 19.7753 47.9831 19.1825C47.4002 18.6095 47.0994 17.8852 47.0804 17.0106V6.55586L47.0743 6.55662C47.0739 6.55167 47.0747 6.54747 47.0743 6.5429C47.048 5.92186 46.5234 5.43921 45.9027 5.46552C45.2809 5.49182 44.799 6.01679 44.825 6.63783C44.825 6.64202 44.8261 6.64583 44.8261 6.65041H44.8234V16.9073L44.8139 16.9115C44.8139 17.7395 44.5177 18.4727 43.9248 19.112C43.3324 19.7521 42.6408 20.0716 41.8509 20.0716C40.9477 20.0716 40.1959 19.7753 39.5936 19.1825C39.0107 18.6095 38.7095 17.8852 38.6912 17.0106V1.20135C38.6923 1.17771 38.6946 1.15446 38.6946 1.13044C38.6946 0.505966 38.1883 6.29425e-05 37.5642 6.29425e-05C36.9394 6.29425e-05 36.4339 0.505966 36.4339 1.13044V1.13387H36.4331V17.0525C36.4331 18.5199 36.9554 19.7712 37.9996 20.8058C39.0438 21.8405 40.2993 22.3575 41.7663 22.3575C43.2333 22.3575 44.4841 21.8405 45.5192 20.8058C45.6766 20.648 45.8185 20.4825 45.9519 20.3156C46.0872 20.4825 46.2298 20.648 46.3892 20.8058C47.433 21.8405 48.6888 22.3575 50.1562 22.3575C51.6236 22.3575 52.8741 21.8405 53.9088 20.8058C54.1638 20.5508 54.3868 20.282 54.579 20.001C54.7261 20.1795 54.8821 20.3544 55.0529 20.5233C56.2843 21.746 57.7848 22.3575 59.553 22.3575C61.3117 22.3575 62.8118 21.7433 64.0532 20.5161C64.2247 20.3464 64.3814 20.1707 64.5293 19.9915C64.7234 20.2759 64.9491 20.5474 65.2068 20.8058C66.2419 21.8405 67.4919 22.3575 68.9593 22.3575C70.4263 22.3575 71.6825 21.8405 72.7267 20.8058C73.7702 19.7712 74.2925 18.5199 74.2925 17.0525V11.8608C74.2925 10.3934 73.7702 9.14295 72.7267 8.10827C71.6825 7.07358 70.4263 6.55586 68.9593 6.55586Z" fill="black"/>
<path d="M112.068 23.168C111.805 23.168 111.542 23.0681 111.342 22.8676C110.941 22.4658 110.941 21.8154 111.342 21.4147L118.145 14.6111L111.342 7.80709C110.941 7.40564 110.941 6.75525 111.342 6.35418C111.743 5.95274 112.393 5.95274 112.795 6.35418L120.325 13.8844C120.518 14.077 120.626 14.3385 120.626 14.6111C120.626 14.8837 120.518 15.1452 120.325 15.3373L112.795 22.8676C112.594 23.0681 112.331 23.168 112.068 23.168Z" fill="black"/>
<path d="M8.55769 22.9005C8.29501 22.9005 8.03234 22.8002 7.83143 22.5997L0.300798 15.0694C0.107891 14.8769 0 14.6157 0 14.3431C0 14.0709 0.107891 13.8094 0.300798 13.6165L7.83105 6.08626C8.23249 5.68481 8.88289 5.68481 9.28395 6.08626C9.6854 6.48732 9.6854 7.1381 9.28395 7.53916L2.47996 14.3431L9.28395 21.1467C9.6854 21.5474 9.6854 22.1982 9.28395 22.5997C9.0838 22.8002 8.82036 22.9005 8.55769 22.9005Z" fill="black"/>
<path d="M99.9413 25.4671C99.8113 25.4671 99.679 25.4423 99.5505 25.3893C99.0256 25.1731 98.7755 24.5727 98.992 24.0477L107.093 4.39176C107.309 3.86679 107.909 3.61708 108.434 3.83324C108.958 4.04902 109.209 4.64986 108.992 5.17444L100.892 24.83C100.728 25.2273 100.346 25.4671 99.9413 25.4671Z" fill="black"/>
</svg>
