<svg width="232" height="461" viewBox="0 0 232 461" fill="none" xmlns="http://www.w3.org/2000/svg">
<rect x="3" width="104" height="37" rx="18.5" fill="#B9B546"/>
<path d="M21.0852 18.38V17.945L27.2052 14.42V16.4L23.9502 18.155L27.2052 19.97V21.92L21.0852 18.38ZM30.8124 19.205C30.8124 18.915 30.8574 18.65 30.9474 18.41C31.0374 18.16 31.1524 17.93 31.2924 17.72C31.4324 17.52 31.5874 17.33 31.7574 17.15C31.9374 16.96 32.1174 16.78 32.2974 16.61C32.5674 16.35 32.8024 16.095 33.0024 15.845C33.2124 15.585 33.3174 15.305 33.3174 15.005C33.3174 14.655 33.2224 14.385 33.0324 14.195C32.8524 13.995 32.5624 13.895 32.1624 13.895C31.7424 13.895 31.4024 14.035 31.1424 14.315C30.8824 14.585 30.7274 14.96 30.6774 15.44H28.5924C28.6124 14.92 28.7174 14.455 28.9074 14.045C29.0974 13.635 29.3574 13.285 29.6874 12.995C30.0074 12.715 30.3874 12.5 30.8274 12.35C31.2774 12.2 31.7674 12.125 32.2974 12.125C32.8474 12.125 33.3274 12.19 33.7374 12.32C34.1574 12.45 34.5074 12.635 34.7874 12.875C35.0674 13.115 35.2774 13.4 35.4174 13.73C35.5574 14.06 35.6274 14.425 35.6274 14.825C35.6274 15.345 35.5024 15.79 35.2524 16.16C35.0024 16.53 34.7174 16.87 34.3974 17.18C34.2174 17.35 34.0374 17.52 33.8574 17.69C33.6774 17.85 33.5174 18.015 33.3774 18.185C33.2274 18.355 33.1024 18.53 33.0024 18.71C32.9024 18.89 32.8424 19.08 32.8224 19.28V19.655H30.8124V19.205ZM31.8024 23.135C31.6124 23.135 31.4324 23.1 31.2624 23.03C31.0924 22.97 30.9474 22.88 30.8274 22.76C30.6974 22.64 30.5974 22.505 30.5274 22.355C30.4574 22.195 30.4224 22.025 30.4224 21.845C30.4224 21.665 30.4574 21.495 30.5274 21.335C30.5974 21.175 30.6974 21.035 30.8274 20.915C30.9474 20.795 31.0924 20.705 31.2624 20.645C31.4324 20.575 31.6124 20.54 31.8024 20.54C32.1824 20.54 32.5024 20.665 32.7624 20.915C33.0324 21.165 33.1674 21.475 33.1674 21.845C33.1674 22.025 33.1324 22.195 33.0624 22.355C32.9924 22.505 32.8974 22.64 32.7774 22.76C32.6474 22.88 32.4974 22.97 32.3274 23.03C32.1674 23.1 31.9924 23.135 31.8024 23.135ZM40.8568 12.275H44.5618C45.8718 12.275 46.8818 12.56 47.5918 13.13C48.3018 13.7 48.6568 14.555 48.6568 15.695V15.755C48.6568 16.325 48.5618 16.82 48.3718 17.24C48.1818 17.65 47.9118 17.995 47.5618 18.275C47.2118 18.555 46.7868 18.765 46.2868 18.905C45.7968 19.035 45.2468 19.1 44.6368 19.1H43.2718V23H40.8568V12.275ZM44.5018 17.405C45.1118 17.405 45.5668 17.27 45.8668 17C46.1668 16.72 46.3168 16.31 46.3168 15.77V15.71C46.3168 15.14 46.1568 14.735 45.8368 14.495C45.5268 14.245 45.0818 14.12 44.5018 14.12H43.2718V17.405H44.5018ZM50.4222 12.275H52.8522V16.655H57.1572V12.275H59.5872V23H57.1572V18.575H52.8522V23H50.4222V12.275ZM62.0678 12.275H65.7728C67.0828 12.275 68.0928 12.56 68.8028 13.13C69.5128 13.7 69.8678 14.555 69.8678 15.695V15.755C69.8678 16.325 69.7728 16.82 69.5828 17.24C69.3928 17.65 69.1228 17.995 68.7728 18.275C68.4228 18.555 67.9978 18.765 67.4978 18.905C67.0078 19.035 66.4578 19.1 65.8478 19.1H64.4828V23H62.0678V12.275ZM65.7128 17.405C66.3228 17.405 66.7778 17.27 67.0778 17C67.3778 16.72 67.5278 16.31 67.5278 15.77V15.71C67.5278 15.14 67.3678 14.735 67.0478 14.495C66.7378 14.245 66.2928 14.12 65.7128 14.12H64.4828V17.405H65.7128ZM76.3984 19.205C76.3984 18.915 76.4434 18.65 76.5334 18.41C76.6234 18.16 76.7384 17.93 76.8784 17.72C77.0184 17.52 77.1734 17.33 77.3434 17.15C77.5234 16.96 77.7034 16.78 77.8834 16.61C78.1534 16.35 78.3884 16.095 78.5884 15.845C78.7984 15.585 78.9034 15.305 78.9034 15.005C78.9034 14.655 78.8084 14.385 78.6184 14.195C78.4384 13.995 78.1484 13.895 77.7484 13.895C77.3284 13.895 76.9884 14.035 76.7284 14.315C76.4684 14.585 76.3134 14.96 76.2634 15.44H74.1784C74.1984 14.92 74.3034 14.455 74.4934 14.045C74.6834 13.635 74.9434 13.285 75.2734 12.995C75.5934 12.715 75.9734 12.5 76.4134 12.35C76.8634 12.2 77.3534 12.125 77.8834 12.125C78.4334 12.125 78.9134 12.19 79.3234 12.32C79.7434 12.45 80.0934 12.635 80.3734 12.875C80.6534 13.115 80.8634 13.4 81.0034 13.73C81.1434 14.06 81.2134 14.425 81.2134 14.825C81.2134 15.345 81.0884 15.79 80.8384 16.16C80.5884 16.53 80.3034 16.87 79.9834 17.18C79.8034 17.35 79.6234 17.52 79.4434 17.69C79.2634 17.85 79.1034 18.015 78.9634 18.185C78.8134 18.355 78.6884 18.53 78.5884 18.71C78.4884 18.89 78.4284 19.08 78.4084 19.28V19.655H76.3984V19.205ZM77.3884 23.135C77.1984 23.135 77.0184 23.1 76.8484 23.03C76.6784 22.97 76.5334 22.88 76.4134 22.76C76.2834 22.64 76.1834 22.505 76.1134 22.355C76.0434 22.195 76.0084 22.025 76.0084 21.845C76.0084 21.665 76.0434 21.495 76.1134 21.335C76.1834 21.175 76.2834 21.035 76.4134 20.915C76.5334 20.795 76.6784 20.705 76.8484 20.645C77.0184 20.575 77.1984 20.54 77.3884 20.54C77.7684 20.54 78.0884 20.665 78.3484 20.915C78.6184 21.165 78.7534 21.475 78.7534 21.845C78.7534 22.025 78.7184 22.195 78.6484 22.355C78.5784 22.505 78.4834 22.64 78.3634 22.76C78.2334 22.88 78.0834 22.97 77.9134 23.03C77.7534 23.1 77.5784 23.135 77.3884 23.135ZM82.8026 19.925L86.0426 18.17L82.8026 16.355V14.405L88.9226 17.945V18.38L82.8026 21.905V19.925Z" fill="black"/>
<rect x="122" width="107" height="37" rx="18.5" fill="#B9B546"/>
<path d="M140.267 18.38V17.945L146.387 14.42V16.4L143.132 18.155L146.387 19.97V21.92L140.267 18.38ZM151.879 12.275H154.309V16.655H158.614V12.275H161.044V23H158.614V18.575H154.309V23H151.879V12.275ZM165.625 14.165H162.73V12.275H170.965V14.165H168.07V23H165.625V14.165ZM172.665 12.275H175.875L178.38 18.95L180.855 12.275H184.005V23H181.59V15.47L178.62 23H177.825L174.84 15.47V23H172.665V12.275ZM186.508 12.275H188.938V21.095H193.303V23H186.508V12.275ZM201.672 11.36H203.457L198.837 25.22H197.067L201.672 11.36ZM204.621 19.925L207.861 18.17L204.621 16.355V14.405L210.741 17.945V18.38L204.621 21.905V19.925Z" fill="black"/>
<rect x="7" y="48" width="99" height="37" rx="18.5" fill="#B9B546"/>
<path d="M25.2219 66.38V65.945L31.3419 62.42V64.4L28.0869 66.155L31.3419 67.97V69.92L25.2219 66.38ZM38.9344 62.165H36.0394V60.275H44.2744V62.165H41.3794V71H38.9344V62.165ZM44.5326 63.155H46.8126L48.2076 68.435L49.7226 63.155H51.5076L52.8876 68.435L54.3726 63.155H56.4576L53.9826 71H51.8526L50.5176 66.08L49.0776 71H46.9176L44.5326 63.155ZM58.946 62.09C58.596 62.09 58.301 61.98 58.061 61.76C57.831 61.53 57.716 61.245 57.716 60.905C57.716 60.565 57.831 60.285 58.061 60.065C58.301 59.835 58.596 59.72 58.946 59.72C59.296 59.72 59.591 59.835 59.831 60.065C60.071 60.285 60.191 60.565 60.191 60.905C60.191 61.245 60.071 61.53 59.831 61.76C59.591 61.98 59.296 62.09 58.946 62.09ZM57.881 63.155H60.041V71H57.881V63.155ZM65.6955 73.895C65.0655 73.895 64.5155 73.83 64.0455 73.7C63.5755 73.57 63.1855 73.385 62.8755 73.145C62.5555 72.905 62.3055 72.615 62.1255 72.275C61.9555 71.945 61.8455 71.575 61.7955 71.165H63.9555C64.0255 71.515 64.1905 71.79 64.4505 71.99C64.7205 72.2 65.1355 72.305 65.6955 72.305C66.3555 72.305 66.8505 72.14 67.1805 71.81C67.5105 71.48 67.6755 71.005 67.6755 70.385V69.2C67.5655 69.39 67.4255 69.575 67.2555 69.755C67.0955 69.925 66.9055 70.075 66.6855 70.205C66.4655 70.345 66.2255 70.455 65.9655 70.535C65.7155 70.615 65.4455 70.655 65.1555 70.655C64.6755 70.655 64.2255 70.57 63.8055 70.4C63.3955 70.22 63.0405 69.97 62.7405 69.65C62.4305 69.33 62.1855 68.94 62.0055 68.48C61.8255 68.01 61.7355 67.485 61.7355 66.905V66.8C61.7355 66.24 61.8205 65.725 61.9905 65.255C62.1705 64.785 62.4155 64.38 62.7255 64.04C63.0355 63.71 63.4005 63.45 63.8205 63.26C64.2405 63.07 64.6955 62.975 65.1855 62.975C65.8255 62.975 66.3405 63.1 66.7305 63.35C67.1305 63.6 67.4455 63.925 67.6755 64.325V63.155H69.8355V70.385C69.8255 71.555 69.4555 72.43 68.7255 73.01C68.0055 73.6 66.9955 73.895 65.6955 73.895ZM65.8005 69.02C66.3705 69.02 66.8355 68.83 67.1955 68.45C67.5555 68.07 67.7355 67.545 67.7355 66.875V66.77C67.7355 66.1 67.5705 65.575 67.2405 65.195C66.9105 64.815 66.4455 64.625 65.8455 64.625C65.2355 64.625 64.7655 64.825 64.4355 65.225C64.1155 65.615 63.9555 66.135 63.9555 66.785V66.905C63.9555 67.565 64.1255 68.085 64.4655 68.465C64.8155 68.835 65.2605 69.02 65.8005 69.02ZM78.7173 59.36H80.5023L75.8823 73.22H74.1123L78.7173 59.36ZM81.6658 67.925L84.9058 66.17L81.6658 64.355V62.405L87.7858 65.945V66.38L81.6658 69.905V67.925Z" fill="black"/>
<rect x="121" y="48" width="105" height="37" rx="18.5" fill="#B9B546"/>
<path d="M138.97 66.38V65.945L145.09 62.42V64.4L141.835 66.155L145.09 67.97V69.92L138.97 66.38ZM150.582 60.275H154.797C155.977 60.275 156.862 60.51 157.452 60.98C158.052 61.45 158.352 62.145 158.352 63.065V63.125C158.352 63.695 158.212 64.18 157.932 64.58C157.652 64.97 157.212 65.25 156.612 65.42C157.312 65.56 157.842 65.835 158.202 66.245C158.572 66.655 158.757 67.22 158.757 67.94V68C158.757 68.99 158.442 69.74 157.812 70.25C157.182 70.75 156.242 71 154.992 71H150.582V60.275ZM154.617 69.32C155.217 69.32 155.657 69.19 155.937 68.93C156.217 68.67 156.357 68.295 156.357 67.805V67.745C156.357 67.245 156.212 66.87 155.922 66.62C155.632 66.37 155.157 66.245 154.497 66.245H152.952V69.32H154.617ZM154.407 64.685C154.997 64.685 155.417 64.575 155.667 64.355C155.917 64.135 156.042 63.785 156.042 63.305V63.245C156.042 62.795 155.907 62.465 155.637 62.255C155.377 62.045 154.962 61.94 154.392 61.94H152.952V64.685H154.407ZM160.511 59.6H162.671V71H160.511V59.6ZM166.946 71.165C166.586 71.165 166.246 71.12 165.926 71.03C165.616 70.94 165.341 70.8 165.101 70.61C164.861 70.42 164.671 70.18 164.531 69.89C164.391 69.59 164.321 69.235 164.321 68.825C164.321 68.365 164.421 67.975 164.621 67.655C164.821 67.335 165.101 67.075 165.461 66.875C165.821 66.675 166.251 66.53 166.751 66.44C167.251 66.35 167.801 66.305 168.401 66.305H169.286V65.99C169.286 65.52 169.196 65.165 169.016 64.925C168.846 64.675 168.511 64.55 168.011 64.55C167.581 64.55 167.261 64.65 167.051 64.85C166.851 65.05 166.726 65.32 166.676 65.66H164.621C164.651 65.2 164.761 64.8 164.951 64.46C165.151 64.12 165.406 63.84 165.716 63.62C166.026 63.4 166.386 63.24 166.796 63.14C167.216 63.03 167.666 62.975 168.146 62.975C168.626 62.975 169.066 63.03 169.466 63.14C169.866 63.24 170.216 63.405 170.516 63.635C170.806 63.865 171.031 64.165 171.191 64.535C171.351 64.905 171.431 65.355 171.431 65.885V71H169.316V70.055C169.086 70.375 168.786 70.64 168.416 70.85C168.056 71.06 167.566 71.165 166.946 71.165ZM167.591 69.65C168.071 69.65 168.471 69.53 168.791 69.29C169.121 69.04 169.286 68.695 169.286 68.255V67.595H168.446C167.816 67.595 167.326 67.675 166.976 67.835C166.626 67.995 166.451 68.285 166.451 68.705C166.451 68.995 166.541 69.225 166.721 69.395C166.901 69.565 167.191 69.65 167.591 69.65ZM176.413 71.165C175.933 71.165 175.488 71.08 175.078 70.91C174.668 70.74 174.308 70.485 173.998 70.145C173.688 69.815 173.443 69.405 173.263 68.915C173.093 68.415 173.008 67.84 173.008 67.19V67.07C173.008 66.43 173.093 65.855 173.263 65.345C173.443 64.835 173.688 64.405 173.998 64.055C174.308 63.705 174.673 63.44 175.093 63.26C175.513 63.07 175.968 62.975 176.458 62.975C177.088 62.975 177.603 63.1 178.003 63.35C178.403 63.6 178.713 63.925 178.933 64.325V59.6H181.093V71H178.933V69.695C178.733 70.095 178.408 70.44 177.958 70.73C177.508 71.02 176.993 71.165 176.413 71.165ZM177.058 69.47C177.628 69.47 178.093 69.28 178.453 68.9C178.813 68.51 178.993 67.915 178.993 67.115V66.995C178.993 66.215 178.828 65.63 178.498 65.24C178.178 64.84 177.718 64.64 177.118 64.64C176.508 64.64 176.038 64.845 175.708 65.255C175.388 65.655 175.228 66.245 175.228 67.025V67.145C175.228 67.925 175.398 68.51 175.738 68.9C176.078 69.28 176.518 69.47 177.058 69.47ZM186.83 71.165C186.24 71.165 185.695 71.075 185.195 70.895C184.695 70.715 184.265 70.45 183.905 70.1C183.535 69.76 183.245 69.345 183.035 68.855C182.835 68.365 182.735 67.805 182.735 67.175V67.055C182.735 66.435 182.835 65.875 183.035 65.375C183.245 64.875 183.535 64.445 183.905 64.085C184.265 63.735 184.69 63.465 185.18 63.275C185.67 63.075 186.2 62.975 186.77 62.975C187.28 62.975 187.765 63.055 188.225 63.215C188.685 63.365 189.09 63.6 189.44 63.92C189.79 64.24 190.07 64.655 190.28 65.165C190.49 65.665 190.595 66.265 190.595 66.965V67.565H184.94C184.97 68.225 185.15 68.735 185.48 69.095C185.82 69.445 186.29 69.62 186.89 69.62C187.4 69.62 187.78 69.52 188.03 69.32C188.29 69.12 188.455 68.855 188.525 68.525H190.58C190.45 69.375 190.06 70.03 189.41 70.49C188.77 70.94 187.91 71.165 186.83 71.165ZM188.48 66.23C188.44 65.63 188.275 65.19 187.985 64.91C187.695 64.62 187.29 64.475 186.77 64.475C186.28 64.475 185.875 64.63 185.555 64.94C185.245 65.24 185.05 65.67 184.97 66.23H188.48ZM198.969 59.36H200.754L196.134 73.22H194.364L198.969 59.36ZM201.918 67.925L205.158 66.17L201.918 64.355V62.405L208.038 65.945V66.38L201.918 69.905V67.925Z" fill="black"/>
<path d="M88 310H121L128.182 317.071L140 329V376H88V310Z" fill="#ECECEC"/>
<rect width="45" height="21.5192" transform="translate(99 340)" fill="#B9B546"/>
<path d="M107.986 355.265C107.636 355.265 107.36 355.243 107.158 355.198C106.964 355.153 106.797 355.094 106.655 355.019V353.632C106.789 353.684 106.931 353.729 107.08 353.766C107.229 353.803 107.423 353.822 107.662 353.822C108.005 353.822 108.277 353.729 108.479 353.542C108.688 353.348 108.792 353.02 108.792 352.557V347.164H110.616V352.58C110.616 353.49 110.385 354.165 109.922 354.605C109.46 355.045 108.814 355.265 107.986 355.265ZM115.168 355.288C114.616 355.288 114.138 355.228 113.735 355.109C113.332 354.982 112.997 354.803 112.728 354.571C112.46 354.34 112.254 354.064 112.113 353.743C111.971 353.423 111.889 353.061 111.867 352.658H113.601C113.623 352.837 113.661 353.009 113.713 353.173C113.765 353.329 113.851 353.464 113.97 353.576C114.09 353.695 114.243 353.792 114.429 353.867C114.623 353.934 114.869 353.967 115.168 353.967C115.57 353.967 115.891 353.87 116.13 353.676C116.369 353.475 116.488 353.217 116.488 352.904C116.488 352.748 116.462 352.613 116.41 352.501C116.365 352.389 116.287 352.292 116.175 352.21C116.055 352.136 115.899 352.072 115.705 352.02C115.511 351.96 115.268 351.908 114.977 351.864C114.463 351.796 114.022 351.707 113.657 351.595C113.299 351.476 113.004 351.319 112.773 351.125C112.534 350.938 112.359 350.707 112.247 350.431C112.143 350.155 112.09 349.823 112.09 349.435C112.09 349.092 112.157 348.775 112.292 348.484C112.433 348.193 112.631 347.94 112.885 347.723C113.138 347.514 113.444 347.35 113.802 347.231C114.16 347.111 114.56 347.052 115 347.052C115.902 347.052 116.607 347.253 117.115 347.656C117.629 348.051 117.924 348.648 117.999 349.446H116.331C116.279 349.088 116.141 348.824 115.917 348.652C115.694 348.473 115.388 348.383 115 348.383C114.597 348.383 114.295 348.469 114.093 348.641C113.899 348.805 113.802 349.021 113.802 349.29C113.802 349.432 113.821 349.558 113.858 349.67C113.903 349.775 113.981 349.864 114.093 349.939C114.198 350.021 114.347 350.092 114.541 350.151C114.735 350.211 114.985 350.263 115.291 350.308C115.776 350.368 116.201 350.454 116.566 350.565C116.932 350.67 117.238 350.812 117.484 350.991C117.73 351.177 117.913 351.412 118.032 351.696C118.159 351.979 118.222 352.326 118.222 352.736C118.222 353.094 118.152 353.43 118.01 353.743C117.868 354.049 117.667 354.314 117.406 354.538C117.144 354.769 116.824 354.952 116.443 355.086C116.063 355.221 115.638 355.288 115.168 355.288ZM123.341 353.844C123.677 353.844 123.979 353.781 124.248 353.654C124.524 353.527 124.759 353.348 124.953 353.117C125.139 352.893 125.285 352.617 125.389 352.289C125.494 351.96 125.546 351.595 125.546 351.192V351.103C125.546 350.715 125.494 350.36 125.389 350.04C125.292 349.719 125.15 349.443 124.964 349.211C124.77 348.98 124.535 348.801 124.259 348.674C123.983 348.548 123.67 348.484 123.319 348.484C122.968 348.484 122.655 348.548 122.379 348.674C122.111 348.794 121.879 348.965 121.685 349.189C121.491 349.42 121.342 349.7 121.238 350.028C121.141 350.349 121.092 350.711 121.092 351.114V351.203C121.092 351.614 121.148 351.983 121.26 352.311C121.372 352.632 121.529 352.904 121.73 353.128C121.924 353.359 122.159 353.538 122.435 353.665C122.711 353.784 123.013 353.844 123.341 353.844ZM123.308 355.288C122.681 355.288 122.114 355.187 121.607 354.986C121.1 354.777 120.671 354.489 120.32 354.124C119.962 353.766 119.686 353.337 119.492 352.837C119.298 352.337 119.201 351.796 119.201 351.214V351.125C119.201 350.528 119.302 349.98 119.503 349.48C119.712 348.98 120.003 348.551 120.376 348.193C120.742 347.835 121.174 347.555 121.674 347.354C122.174 347.153 122.722 347.052 123.319 347.052C123.923 347.052 124.475 347.149 124.975 347.343C125.482 347.537 125.919 347.809 126.284 348.16C126.642 348.518 126.922 348.943 127.124 349.435C127.333 349.928 127.437 350.476 127.437 351.08V351.17C127.437 351.767 127.336 352.319 127.135 352.826C126.941 353.326 126.665 353.758 126.307 354.124C125.949 354.489 125.516 354.777 125.009 354.986C124.501 355.187 123.934 355.288 123.308 355.288ZM128.882 347.164H130.986L134.029 352.434V347.164H135.641V355.165H133.828L130.493 349.469V355.165H128.882V347.164Z" fill="white"/>
<path d="M121 329V310L140 329H121Z" fill="#C4C4C4"/>
<path d="M44 395H77L84.1818 402.071L96 414V461H44V395Z" fill="#ECECEC"/>
<rect width="45" height="21.5192" transform="translate(55 425)" fill="#B9B546"/>
<path d="M65.0311 436.718L62.3902 432.164H64.382L66.0046 435.23L67.5936 432.164H69.3504L66.855 436.718V440.165H65.0311V436.718ZM71.6005 432.164H73.9616L76.5576 440.165H74.6665L74.1182 438.385H71.22L70.6717 440.165H68.9708L71.6005 432.164ZM71.6117 437.098H73.7266L72.6747 433.641L71.6117 437.098ZM77.7933 432.164H80.1879L82.0566 437.143L83.903 432.164H86.2529V440.165H84.4513V434.547L82.2357 440.165H81.6426L79.4158 434.547V440.165H77.7933V432.164ZM88.12 432.164H89.9327V438.743H93.189V440.165H88.12V432.164Z" fill="white"/>
<path d="M77 414V395L96 414H77Z" fill="#C4C4C4"/>
<path d="M132 395H165L172.182 402.071L184 414V461H132V395Z" fill="#ECECEC"/>
<rect width="45" height="21.5192" transform="translate(143 425)" fill="#B9B546"/>
<path d="M158.08 432.164H160.844C161.821 432.164 162.575 432.376 163.105 432.802C163.634 433.227 163.899 433.865 163.899 434.715V434.76C163.899 435.185 163.828 435.554 163.686 435.868C163.545 436.173 163.343 436.431 163.082 436.64C162.821 436.849 162.504 437.005 162.131 437.11C161.766 437.207 161.355 437.255 160.9 437.255H159.882V440.165H158.08V432.164ZM160.799 435.991C161.254 435.991 161.594 435.89 161.818 435.689C162.042 435.48 162.153 435.174 162.153 434.771V434.726C162.153 434.301 162.034 433.999 161.795 433.82C161.564 433.633 161.232 433.54 160.799 433.54H159.882V435.991H160.799ZM168.997 438.844C169.333 438.844 169.635 438.781 169.903 438.654C170.179 438.527 170.414 438.348 170.608 438.117C170.795 437.893 170.94 437.617 171.045 437.289C171.149 436.96 171.201 436.595 171.201 436.192V436.103C171.201 435.715 171.149 435.36 171.045 435.04C170.948 434.719 170.806 434.443 170.62 434.211C170.426 433.98 170.191 433.801 169.915 433.674C169.639 433.548 169.325 433.484 168.975 433.484C168.624 433.484 168.311 433.548 168.035 433.674C167.766 433.794 167.535 433.965 167.341 434.189C167.147 434.42 166.998 434.7 166.893 435.028C166.796 435.349 166.748 435.711 166.748 436.114V436.203C166.748 436.614 166.804 436.983 166.916 437.311C167.028 437.632 167.184 437.904 167.386 438.128C167.58 438.359 167.815 438.538 168.091 438.665C168.367 438.784 168.669 438.844 168.997 438.844ZM168.963 440.288C168.337 440.288 167.77 440.187 167.263 439.986C166.755 439.777 166.326 439.489 165.976 439.124C165.618 438.766 165.342 438.337 165.148 437.837C164.954 437.337 164.857 436.796 164.857 436.214V436.125C164.857 435.528 164.957 434.98 165.159 434.48C165.368 433.98 165.659 433.551 166.032 433.193C166.397 432.835 166.83 432.555 167.33 432.354C167.829 432.153 168.378 432.052 168.975 432.052C169.579 432.052 170.131 432.149 170.631 432.343C171.138 432.537 171.574 432.809 171.94 433.16C172.298 433.518 172.578 433.943 172.779 434.435C172.988 434.928 173.093 435.476 173.093 436.08V436.17C173.093 436.767 172.992 437.319 172.79 437.826C172.596 438.326 172.32 438.758 171.962 439.124C171.604 439.489 171.172 439.777 170.664 439.986C170.157 440.187 169.59 440.288 168.963 440.288Z" fill="white"/>
<path d="M165 414V395L184 414H165Z" fill="#C4C4C4"/>
<path d="M0 310H33L40.1818 317.071L52 329V376H0V310Z" fill="#ECECEC"/>
<rect width="45" height="21.5192" transform="translate(11 340)" fill="#B9B546"/>
<path d="M21.1698 351.058L18.8199 347.164H20.8676L22.3895 349.827L23.9001 347.164H25.7577L23.4749 351.002L26.0038 355.165H23.9449L22.2104 352.188L20.4872 355.165H18.6296L21.1698 351.058ZM27.3404 347.164H29.1532V353.743H32.4095V355.165H27.3404V347.164ZM33.7888 347.164H35.6128V355.165H33.7888V347.164ZM37.5142 347.164H42.6504V348.585H39.3269V350.7H41.9566V352.065H39.3269V355.165H37.5142V347.164ZM43.9943 347.164H49.1305V348.585H45.8071V350.7H48.4367V352.065H45.8071V355.165H43.9943V347.164Z" fill="white"/>
<path d="M33 329V310L52 329H33Z" fill="#C4C4C4"/>
<path d="M176 310H209L216.182 317.071L228 329V376H176V310Z" fill="#ECECEC"/>
<rect width="45" height="21.5192" transform="translate(187 340)" fill="#B9B546"/>
<path d="M198.949 347.189H201.713C202.69 347.189 203.444 347.402 203.973 347.827C204.503 348.252 204.768 348.89 204.768 349.74V349.785C204.768 350.21 204.697 350.58 204.555 350.893C204.414 351.199 204.212 351.456 203.951 351.665C203.69 351.874 203.373 352.031 203 352.135C202.634 352.232 202.224 352.281 201.769 352.281H200.751V355.19H198.949V347.189ZM201.668 351.016C202.123 351.016 202.463 350.915 202.687 350.714C202.91 350.505 203.022 350.199 203.022 349.796V349.752C203.022 349.326 202.903 349.024 202.664 348.845C202.433 348.659 202.101 348.565 201.668 348.565H200.751V351.016H201.668ZM206.085 347.189H207.898V350.457H211.109V347.189H212.922V355.19H211.109V351.889H207.898V355.19H206.085V347.189ZM214.773 347.189H217.536C218.514 347.189 219.267 347.402 219.797 347.827C220.327 348.252 220.591 348.89 220.591 349.74V349.785C220.591 350.21 220.52 350.58 220.379 350.893C220.237 351.199 220.036 351.456 219.774 351.665C219.513 351.874 219.196 352.031 218.823 352.135C218.458 352.232 218.047 352.281 217.592 352.281H216.574V355.19H214.773V347.189ZM217.492 351.016C217.947 351.016 218.286 350.915 218.51 350.714C218.734 350.505 218.846 350.199 218.846 349.796V349.752C218.846 349.326 218.726 349.024 218.488 348.845C218.256 348.659 217.924 348.565 217.492 348.565H216.574V351.016H217.492Z" fill="white"/>
<path d="M209 329V310L228 329H209Z" fill="#C4C4C4"/>
<path d="M161.999 114L161.999 132.383C161.999 161.229 144.047 187.028 116.999 197.054V197.054C89.9509 207.079 71.999 232.878 71.999 261.724L71.999 279.5" stroke="#909090"/>
<path d="M71.999 114L71.999 132.383C71.999 161.229 89.9509 187.028 116.999 197.054V197.054C144.047 207.079 161.999 232.878 161.999 261.724L161.999 279.5" stroke="#909090"/>
<path d="M76.8994 273.95L71.9497 278.899L66.9999 273.95" stroke="#909090"/>
<path d="M166.899 273.95L161.95 278.899L157 273.95" stroke="#909090"/>
</svg>
