<svg width="891" height="154" viewBox="0 0 891 154" fill="none"
  xmlns="http://www.w3.org/2000/svg">
  <path d="M615 35H545.329C510.347 35 476.926 49.4794 453 75V75C429.074 100.521 395.653 115 360.671 115H280" stroke="#909090"/>
  <rect x="1" y="31" width="106" height="37" rx="18.5" fill="#B9B546"/>
  <path d="M39.8568 43.275H43.5618C44.8718 43.275 45.8818 43.56 46.5918 44.13C47.3018 44.7 47.6568 45.555 47.6568 46.695V46.755C47.6568 47.325 47.5618 47.82 47.3718 48.24C47.1818 48.65 46.9118 48.995 46.5618 49.275C46.2118 49.555 45.7868 49.765 45.2868 49.905C44.7968 50.035 44.2468 50.1 43.6368 50.1H42.2718V54H39.8568V43.275ZM43.5018 48.405C44.1118 48.405 44.5668 48.27 44.8668 48C45.1668 47.72 45.3168 47.31 45.3168 46.77V46.71C45.3168 46.14 45.1568 45.735 44.8368 45.495C44.5268 45.245 44.0818 45.12 43.5018 45.12H42.2718V48.405H43.5018ZM49.4222 43.275H51.8522V47.655H56.1572V43.275H58.5872V54H56.1572V49.575H51.8522V54H49.4222V43.275ZM61.0678 43.275H64.7728C66.0828 43.275 67.0928 43.56 67.8028 44.13C68.5128 44.7 68.8678 45.555 68.8678 46.695V46.755C68.8678 47.325 68.7728 47.82 68.5828 48.24C68.3928 48.65 68.1228 48.995 67.7728 49.275C67.4228 49.555 66.9978 49.765 66.4978 49.905C66.0078 50.035 65.4578 50.1 64.8478 50.1H63.4828V54H61.0678V43.275ZM64.7128 48.405C65.3228 48.405 65.7778 48.27 66.0778 48C66.3778 47.72 66.5278 47.31 66.5278 46.77V46.71C66.5278 46.14 66.3678 45.735 66.0478 45.495C65.7378 45.245 65.2928 45.12 64.7128 45.12H63.4828V48.405H64.7128Z" fill="black"/>
  <rect x="122" y="31" width="107" height="37" rx="18.5" fill="#B9B546"/>
  <path d="M140.267 49.38V48.945L146.387 45.42V47.4L143.132 49.155L146.387 50.97V52.92L140.267 49.38ZM151.879 43.275H154.309V47.655H158.614V43.275H161.044V54H158.614V49.575H154.309V54H151.879V43.275ZM165.625 45.165H162.73V43.275H170.965V45.165H168.07V54H165.625V45.165ZM172.665 43.275H175.875L178.38 49.95L180.855 43.275H184.005V54H181.59V46.47L178.62 54H177.825L174.84 46.47V54H172.665V43.275ZM186.508 43.275H188.938V52.095H193.303V54H186.508V43.275ZM201.672 42.36H203.457L198.837 56.22H197.067L201.672 42.36ZM204.621 50.925L207.861 49.17L204.621 47.355V45.405L210.741 48.945V49.38L204.621 52.905V50.925Z" fill="black"/>
  <rect y="86" width="107" height="37" rx="18.5" fill="#B9B546"/>
  <path d="M22.2219 104.38V103.945L28.3419 100.42V102.4L25.0869 104.155L28.3419 105.97V107.92L22.2219 104.38ZM35.9344 100.165H33.0394V98.275H41.2744V100.165H38.3794V109H35.9344V100.165ZM41.5326 101.155H43.8126L45.2076 106.435L46.7226 101.155H48.5076L49.8876 106.435L51.3726 101.155H53.4576L50.9826 109H48.8526L47.5176 104.08L46.0776 109H43.9176L41.5326 101.155ZM55.946 100.09C55.596 100.09 55.301 99.98 55.061 99.76C54.831 99.53 54.716 99.245 54.716 98.905C54.716 98.565 54.831 98.285 55.061 98.065C55.301 97.835 55.596 97.72 55.946 97.72C56.296 97.72 56.591 97.835 56.831 98.065C57.071 98.285 57.191 98.565 57.191 98.905C57.191 99.245 57.071 99.53 56.831 99.76C56.591 99.98 56.296 100.09 55.946 100.09ZM54.881 101.155H57.041V109H54.881V101.155ZM62.6955 111.895C62.0655 111.895 61.5155 111.83 61.0455 111.7C60.5755 111.57 60.1855 111.385 59.8755 111.145C59.5555 110.905 59.3055 110.615 59.1255 110.275C58.9555 109.945 58.8455 109.575 58.7955 109.165H60.9555C61.0255 109.515 61.1905 109.79 61.4505 109.99C61.7205 110.2 62.1355 110.305 62.6955 110.305C63.3555 110.305 63.8505 110.14 64.1805 109.81C64.5105 109.48 64.6755 109.005 64.6755 108.385V107.2C64.5655 107.39 64.4255 107.575 64.2555 107.755C64.0955 107.925 63.9055 108.075 63.6855 108.205C63.4655 108.345 63.2255 108.455 62.9655 108.535C62.7155 108.615 62.4455 108.655 62.1555 108.655C61.6755 108.655 61.2255 108.57 60.8055 108.4C60.3955 108.22 60.0405 107.97 59.7405 107.65C59.4305 107.33 59.1855 106.94 59.0055 106.48C58.8255 106.01 58.7355 105.485 58.7355 104.905V104.8C58.7355 104.24 58.8205 103.725 58.9905 103.255C59.1705 102.785 59.4155 102.38 59.7255 102.04C60.0355 101.71 60.4005 101.45 60.8205 101.26C61.2405 101.07 61.6955 100.975 62.1855 100.975C62.8255 100.975 63.3405 101.1 63.7305 101.35C64.1305 101.6 64.4455 101.925 64.6755 102.325V101.155H66.8355V108.385C66.8255 109.555 66.4555 110.43 65.7255 111.01C65.0055 111.6 63.9955 111.895 62.6955 111.895ZM62.8005 107.02C63.3705 107.02 63.8355 106.83 64.1955 106.45C64.5555 106.07 64.7355 105.545 64.7355 104.875V104.77C64.7355 104.1 64.5705 103.575 64.2405 103.195C63.9105 102.815 63.4455 102.625 62.8455 102.625C62.2355 102.625 61.7655 102.825 61.4355 103.225C61.1155 103.615 60.9555 104.135 60.9555 104.785V104.905C60.9555 105.565 61.1255 106.085 61.4655 106.465C61.8155 106.835 62.2605 107.02 62.8005 107.02ZM75.7173 97.36H77.5023L72.8823 111.22H71.1123L75.7173 97.36ZM78.6658 105.925L81.9058 104.17L78.6658 102.355V100.405L84.7858 103.945V104.38L78.6658 107.905V105.925Z" fill="black"/>
  <rect x="122" y="86" width="107" height="37" rx="18.5" fill="#B9B546"/>
  <path d="M140.97 104.38V103.945L147.09 100.42V102.4L143.835 104.155L147.09 105.97V107.92L140.97 104.38ZM152.582 98.275H156.797C157.977 98.275 158.862 98.51 159.452 98.98C160.052 99.45 160.352 100.145 160.352 101.065V101.125C160.352 101.695 160.212 102.18 159.932 102.58C159.652 102.97 159.212 103.25 158.612 103.42C159.312 103.56 159.842 103.835 160.202 104.245C160.572 104.655 160.757 105.22 160.757 105.94V106C160.757 106.99 160.442 107.74 159.812 108.25C159.182 108.75 158.242 109 156.992 109H152.582V98.275ZM156.617 107.32C157.217 107.32 157.657 107.19 157.937 106.93C158.217 106.67 158.357 106.295 158.357 105.805V105.745C158.357 105.245 158.212 104.87 157.922 104.62C157.632 104.37 157.157 104.245 156.497 104.245H154.952V107.32H156.617ZM156.407 102.685C156.997 102.685 157.417 102.575 157.667 102.355C157.917 102.135 158.042 101.785 158.042 101.305V101.245C158.042 100.795 157.907 100.465 157.637 100.255C157.377 100.045 156.962 99.94 156.392 99.94H154.952V102.685H156.407ZM162.511 97.6H164.671V109H162.511V97.6ZM168.946 109.165C168.586 109.165 168.246 109.12 167.926 109.03C167.616 108.94 167.341 108.8 167.101 108.61C166.861 108.42 166.671 108.18 166.531 107.89C166.391 107.59 166.321 107.235 166.321 106.825C166.321 106.365 166.421 105.975 166.621 105.655C166.821 105.335 167.101 105.075 167.461 104.875C167.821 104.675 168.251 104.53 168.751 104.44C169.251 104.35 169.801 104.305 170.401 104.305H171.286V103.99C171.286 103.52 171.196 103.165 171.016 102.925C170.846 102.675 170.511 102.55 170.011 102.55C169.581 102.55 169.261 102.65 169.051 102.85C168.851 103.05 168.726 103.32 168.676 103.66H166.621C166.651 103.2 166.761 102.8 166.951 102.46C167.151 102.12 167.406 101.84 167.716 101.62C168.026 101.4 168.386 101.24 168.796 101.14C169.216 101.03 169.666 100.975 170.146 100.975C170.626 100.975 171.066 101.03 171.466 101.14C171.866 101.24 172.216 101.405 172.516 101.635C172.806 101.865 173.031 102.165 173.191 102.535C173.351 102.905 173.431 103.355 173.431 103.885V109H171.316V108.055C171.086 108.375 170.786 108.64 170.416 108.85C170.056 109.06 169.566 109.165 168.946 109.165ZM169.591 107.65C170.071 107.65 170.471 107.53 170.791 107.29C171.121 107.04 171.286 106.695 171.286 106.255V105.595H170.446C169.816 105.595 169.326 105.675 168.976 105.835C168.626 105.995 168.451 106.285 168.451 106.705C168.451 106.995 168.541 107.225 168.721 107.395C168.901 107.565 169.191 107.65 169.591 107.65ZM178.413 109.165C177.933 109.165 177.488 109.08 177.078 108.91C176.668 108.74 176.308 108.485 175.998 108.145C175.688 107.815 175.443 107.405 175.263 106.915C175.093 106.415 175.008 105.84 175.008 105.19V105.07C175.008 104.43 175.093 103.855 175.263 103.345C175.443 102.835 175.688 102.405 175.998 102.055C176.308 101.705 176.673 101.44 177.093 101.26C177.513 101.07 177.968 100.975 178.458 100.975C179.088 100.975 179.603 101.1 180.003 101.35C180.403 101.6 180.713 101.925 180.933 102.325V97.6H183.093V109H180.933V107.695C180.733 108.095 180.408 108.44 179.958 108.73C179.508 109.02 178.993 109.165 178.413 109.165ZM179.058 107.47C179.628 107.47 180.093 107.28 180.453 106.9C180.813 106.51 180.993 105.915 180.993 105.115V104.995C180.993 104.215 180.828 103.63 180.498 103.24C180.178 102.84 179.718 102.64 179.118 102.64C178.508 102.64 178.038 102.845 177.708 103.255C177.388 103.655 177.228 104.245 177.228 105.025V105.145C177.228 105.925 177.398 106.51 177.738 106.9C178.078 107.28 178.518 107.47 179.058 107.47ZM188.83 109.165C188.24 109.165 187.695 109.075 187.195 108.895C186.695 108.715 186.265 108.45 185.905 108.1C185.535 107.76 185.245 107.345 185.035 106.855C184.835 106.365 184.735 105.805 184.735 105.175V105.055C184.735 104.435 184.835 103.875 185.035 103.375C185.245 102.875 185.535 102.445 185.905 102.085C186.265 101.735 186.69 101.465 187.18 101.275C187.67 101.075 188.2 100.975 188.77 100.975C189.28 100.975 189.765 101.055 190.225 101.215C190.685 101.365 191.09 101.6 191.44 101.92C191.79 102.24 192.07 102.655 192.28 103.165C192.49 103.665 192.595 104.265 192.595 104.965V105.565H186.94C186.97 106.225 187.15 106.735 187.48 107.095C187.82 107.445 188.29 107.62 188.89 107.62C189.4 107.62 189.78 107.52 190.03 107.32C190.29 107.12 190.455 106.855 190.525 106.525H192.58C192.45 107.375 192.06 108.03 191.41 108.49C190.77 108.94 189.91 109.165 188.83 109.165ZM190.48 104.23C190.44 103.63 190.275 103.19 189.985 102.91C189.695 102.62 189.29 102.475 188.77 102.475C188.28 102.475 187.875 102.63 187.555 102.94C187.245 103.24 187.05 103.67 186.97 104.23H190.48ZM200.969 97.36H202.754L198.134 111.22H196.364L200.969 97.36ZM203.918 105.925L207.158 104.17L203.918 102.355V100.405L210.038 103.945V104.38L203.918 107.905V105.925Z" fill="black"/>
  <path d="M747 0H780L787.182 7.07143L799 19V66H747V0Z" fill="#ECECEC"/>
  <rect width="45" height="21.5192" transform="translate(758 30)" fill="#B9B546"/>
  <path d="M766.986 45.2654C766.636 45.2654 766.36 45.243 766.158 45.1982C765.964 45.1535 765.797 45.0938 765.655 45.0192V43.6316C765.789 43.6839 765.931 43.7286 766.08 43.7659C766.229 43.8032 766.423 43.8219 766.662 43.8219C767.005 43.8219 767.277 43.7286 767.479 43.5421C767.688 43.3482 767.792 43.0199 767.792 42.5574V37.1638H769.616V42.5798C769.616 43.4899 769.385 44.165 768.922 44.6052C768.46 45.0453 767.814 45.2654 766.986 45.2654ZM774.168 45.2878C773.616 45.2878 773.138 45.2281 772.735 45.1087C772.332 44.9819 771.997 44.8029 771.728 44.5716C771.46 44.3403 771.254 44.0643 771.113 43.7435C770.971 43.4228 770.889 43.061 770.867 42.6581H772.601C772.623 42.8372 772.661 43.0087 772.713 43.1729C772.765 43.3295 772.851 43.4638 772.97 43.5757C773.09 43.6951 773.243 43.792 773.429 43.8666C773.623 43.9338 773.869 43.9673 774.168 43.9673C774.57 43.9673 774.891 43.8704 775.13 43.6764C775.369 43.475 775.488 43.2176 775.488 42.9043C775.488 42.7476 775.462 42.6134 775.41 42.5015C775.365 42.3896 775.287 42.2926 775.175 42.2105C775.055 42.1359 774.899 42.0725 774.705 42.0203C774.511 41.9606 774.268 41.9084 773.977 41.8636C773.463 41.7965 773.022 41.707 772.657 41.5951C772.299 41.4757 772.004 41.319 771.773 41.1251C771.534 40.9386 771.359 40.7073 771.247 40.4313C771.143 40.1553 771.09 39.8233 771.09 39.4354C771.09 39.0922 771.157 38.7752 771.292 38.4842C771.433 38.1933 771.631 37.9397 771.885 37.7233C772.138 37.5144 772.444 37.3503 772.802 37.231C773.16 37.1116 773.56 37.0519 774 37.0519C774.902 37.0519 775.607 37.2533 776.115 37.6562C776.629 38.0516 776.924 38.6484 776.999 39.4466H775.331C775.279 39.0885 775.141 38.8237 774.917 38.6521C774.694 38.4731 774.388 38.3835 774 38.3835C773.597 38.3835 773.295 38.4693 773.093 38.6409C772.899 38.805 772.802 39.0214 772.802 39.2899C772.802 39.4317 772.821 39.5585 772.858 39.6704C772.903 39.7748 772.981 39.8643 773.093 39.9389C773.198 40.021 773.347 40.0919 773.541 40.1516C773.735 40.2112 773.985 40.2635 774.291 40.3082C774.776 40.3679 775.201 40.4537 775.566 40.5656C775.932 40.67 776.238 40.8118 776.484 40.9908C776.73 41.1773 776.913 41.4123 777.032 41.6958C777.159 41.9793 777.222 42.3261 777.222 42.7364C777.222 43.0945 777.152 43.4302 777.01 43.7435C776.868 44.0494 776.667 44.3142 776.406 44.538C776.144 44.7693 775.824 44.9521 775.443 45.0863C775.063 45.2206 774.638 45.2878 774.168 45.2878ZM782.341 43.8443C782.677 43.8443 782.979 43.7808 783.248 43.654C783.524 43.5272 783.759 43.3482 783.953 43.1169C784.139 42.8931 784.285 42.6171 784.389 42.2888C784.494 41.9606 784.546 41.5951 784.546 41.1922V41.1027C784.546 40.7148 784.494 40.3604 784.389 40.0397C784.292 39.7189 784.15 39.4429 783.964 39.2116C783.77 38.9803 783.535 38.8013 783.259 38.6745C782.983 38.5477 782.67 38.4842 782.319 38.4842C781.968 38.4842 781.655 38.5477 781.379 38.6745C781.111 38.7938 780.879 38.9654 780.685 39.1892C780.491 39.4205 780.342 39.7002 780.238 40.0285C780.141 40.3492 780.092 40.7111 780.092 41.1139V41.2034C780.092 41.6137 780.148 41.983 780.26 42.3112C780.372 42.632 780.529 42.9043 780.73 43.1281C780.924 43.3594 781.159 43.5384 781.435 43.6652C781.711 43.7846 782.013 43.8443 782.341 43.8443ZM782.308 45.2878C781.681 45.2878 781.114 45.1871 780.607 44.9856C780.1 44.7768 779.671 44.4895 779.32 44.124C778.962 43.7659 778.686 43.337 778.492 42.8372C778.298 42.3373 778.201 41.7965 778.201 41.2146V41.1251C778.201 40.5283 778.302 39.98 778.503 39.4802C778.712 38.9803 779.003 38.5514 779.376 38.1933C779.742 37.8352 780.174 37.5555 780.674 37.3541C781.174 37.1526 781.722 37.0519 782.319 37.0519C782.923 37.0519 783.475 37.1489 783.975 37.3429C784.482 37.5368 784.919 37.8091 785.284 38.1597C785.642 38.5178 785.922 38.943 786.124 39.4354C786.333 39.9278 786.437 40.4761 786.437 41.0803V41.1698C786.437 41.7666 786.336 42.3187 786.135 42.826C785.941 43.3258 785.665 43.7585 785.307 44.124C784.949 44.4895 784.516 44.7768 784.009 44.9856C783.501 45.1871 782.934 45.2878 782.308 45.2878ZM787.882 37.1638H789.986L793.029 42.4343V37.1638H794.641V45.1647H792.828L789.493 39.469V45.1647H787.882V37.1638Z" fill="white"/>
  <path d="M780 19V0L799 19H780Z" fill="#C4C4C4"/>
  <path d="M703 88H736L743.182 95.0714L755 107V154H703V88Z" fill="#ECECEC"/>
  <rect width="45" height="21.5192" transform="translate(714 118)" fill="#B9B546"/>
  <path d="M724.031 129.718L721.39 125.164H723.382L725.005 128.23L726.594 125.164H728.35L725.855 129.718V133.165H724.031V129.718ZM730.6 125.164H732.962L735.558 133.165H733.667L733.118 131.385H730.22L729.672 133.165H727.971L730.6 125.164ZM730.612 130.099H732.727L731.675 126.641L730.612 130.099ZM736.793 125.164H739.188L741.057 130.143L742.903 125.164H745.253V133.165H743.451V127.547L741.236 133.165H740.643L738.416 127.547V133.165H736.793V125.164ZM747.12 125.164H748.933V131.744H752.189V133.165H747.12V125.164Z" fill="white"/>
  <path d="M736 107V88L755 107H736Z" fill="#C4C4C4"/>
  <path d="M791 88H824L831.182 95.0714L843 107V154H791V88Z" fill="#ECECEC"/>
  <rect width="45" height="21.5192" transform="translate(802 118)" fill="#B9B546"/>
  <path d="M817.08 125.164H819.844C820.821 125.164 821.575 125.376 822.105 125.802C822.634 126.227 822.899 126.865 822.899 127.715V127.76C822.899 128.185 822.828 128.554 822.686 128.868C822.545 129.174 822.343 129.431 822.082 129.64C821.821 129.849 821.504 130.005 821.131 130.11C820.766 130.207 820.355 130.255 819.9 130.255H818.882V133.165H817.08V125.164ZM819.799 128.991C820.254 128.991 820.594 128.89 820.818 128.689C821.042 128.48 821.153 128.174 821.153 127.771V127.726C821.153 127.301 821.034 126.999 820.795 126.82C820.564 126.633 820.232 126.54 819.799 126.54H818.882V128.991H819.799ZM827.997 131.844C828.333 131.844 828.635 131.781 828.903 131.654C829.179 131.527 829.414 131.348 829.608 131.117C829.795 130.893 829.94 130.617 830.045 130.289C830.149 129.961 830.201 129.595 830.201 129.192V129.103C830.201 128.715 830.149 128.36 830.045 128.04C829.948 127.719 829.806 127.443 829.62 127.212C829.426 126.98 829.191 126.801 828.915 126.674C828.639 126.548 828.325 126.484 827.975 126.484C827.624 126.484 827.311 126.548 827.035 126.674C826.766 126.794 826.535 126.965 826.341 127.189C826.147 127.42 825.998 127.7 825.893 128.028C825.796 128.349 825.748 128.711 825.748 129.114V129.203C825.748 129.614 825.804 129.983 825.916 130.311C826.028 130.632 826.184 130.904 826.386 131.128C826.58 131.359 826.815 131.538 827.091 131.665C827.367 131.785 827.669 131.844 827.997 131.844ZM827.963 133.288C827.337 133.288 826.77 133.187 826.263 132.986C825.755 132.777 825.326 132.49 824.976 132.124C824.618 131.766 824.342 131.337 824.148 130.837C823.954 130.337 823.857 129.796 823.857 129.215V129.125C823.857 128.528 823.957 127.98 824.159 127.48C824.368 126.98 824.659 126.551 825.032 126.193C825.397 125.835 825.83 125.555 826.33 125.354C826.829 125.153 827.378 125.052 827.975 125.052C828.579 125.052 829.131 125.149 829.631 125.343C830.138 125.537 830.574 125.809 830.94 126.16C831.298 126.518 831.578 126.943 831.779 127.435C831.988 127.928 832.093 128.476 832.093 129.08V129.17C832.093 129.767 831.992 130.319 831.79 130.826C831.596 131.326 831.32 131.758 830.962 132.124C830.604 132.49 830.172 132.777 829.664 132.986C829.157 133.187 828.59 133.288 827.963 133.288Z" fill="white"/>
  <path d="M824 107V88L843 107H824Z" fill="#C4C4C4"/>
  <path d="M659 0H692L699.182 7.07143L711 19V66H659V0Z" fill="#ECECEC"/>
  <rect width="45" height="21.5192" transform="translate(670 30)" fill="#B9B546"/>
  <path d="M680.17 41.0579L677.82 37.1638H679.868L681.389 39.827L682.9 37.1638H684.758L682.475 41.002L685.004 45.1647H682.945L681.21 42.1881L679.487 45.1647H677.63L680.17 41.0579ZM686.34 37.1638H688.153V43.7435H691.41V45.1647H686.34V37.1638ZM692.789 37.1638H694.613V45.1647H692.789V37.1638ZM696.514 37.1638H701.65V38.585H698.327V40.6999H700.957V42.065H698.327V45.1647H696.514V37.1638ZM702.994 37.1638H708.131V38.585H704.807V40.6999H707.437V42.065H704.807V45.1647H702.994V37.1638Z" fill="white"/>
  <path d="M692 19V0L711 19H692Z" fill="#C4C4C4"/>
  <path d="M835 0H868L875.182 7.07143L887 19V66H835V0Z" fill="#ECECEC"/>
  <rect width="45" height="21.5192" transform="translate(846 30)" fill="#B9B546"/>
  <path d="M857.949 37.1891H860.713C861.69 37.1891 862.444 37.4017 862.973 37.8269C863.503 38.2521 863.768 38.89 863.768 39.7404V39.7852C863.768 40.2104 863.697 40.5797 863.555 40.893C863.414 41.1988 863.212 41.4562 862.951 41.6651C862.69 41.874 862.373 42.0306 862 42.1351C861.634 42.2321 861.224 42.2805 860.769 42.2805H859.751V45.1899H857.949V37.1891ZM860.668 41.0161C861.123 41.0161 861.463 40.9154 861.687 40.7139C861.91 40.5051 862.022 40.1992 862.022 39.7964V39.7516C862.022 39.3264 861.903 39.0243 861.664 38.8452C861.433 38.6587 861.101 38.5655 860.668 38.5655H859.751V41.0161H860.668ZM865.085 37.1891H866.898V40.4566H870.109V37.1891H871.922V45.1899H870.109V41.8889H866.898V45.1899H865.085V37.1891ZM873.773 37.1891H876.536C877.514 37.1891 878.267 37.4017 878.797 37.8269C879.327 38.2521 879.591 38.89 879.591 39.7404V39.7852C879.591 40.2104 879.52 40.5797 879.379 40.893C879.237 41.1988 879.036 41.4562 878.774 41.6651C878.513 41.874 878.196 42.0306 877.823 42.1351C877.458 42.2321 877.047 42.2805 876.592 42.2805H875.574V45.1899H873.773V37.1891ZM876.492 41.0161C876.947 41.0161 877.286 40.9154 877.51 40.7139C877.734 40.5051 877.846 40.1992 877.846 39.7964V39.7516C877.846 39.3264 877.726 39.0243 877.488 38.8452C877.256 38.6587 876.924 38.5655 876.492 38.5655H875.574V41.0161H876.492Z" fill="white"/>
  <path d="M868 19V0L887 19H868Z" fill="#C4C4C4"/>
  <path d="M280 35H349.671C384.653 35 418.074 49.4794 442 75V75C465.926 100.521 499.347 115 534.329 115H615" stroke="#909090"/>
</svg>
