<svg width="225" height="462" viewBox="0 0 225 462" fill="none" xmlns="http://www.w3.org/2000/svg">
<path d="M157.999 114L157.999 132.383C157.999 161.229 140.047 187.028 112.999 197.054V197.054C85.9509 207.079 67.999 232.878 67.999 261.724L67.999 279.5" stroke="#909090"/>
<path d="M67.999 114L67.999 132.383C67.999 161.229 85.9509 187.028 112.999 197.054V197.054C140.047 207.079 157.999 232.878 157.999 261.724L157.999 279.5" stroke="#909090"/>
<path d="M72.8994 273.95L67.9497 278.899L62.9999 273.95" stroke="#909090"/>
<path d="M162.899 273.95L157.95 278.899L153 273.95" stroke="#909090"/>
<path d="M129 308H162L169.182 315.071L181 327V374H129V308Z" fill="#ECECEC"/>
<rect width="45" height="21.5192" transform="translate(140 338)" fill="#B9B546"/>
<path d="M148.986 353.265C148.635 353.265 148.359 353.243 148.158 353.198C147.964 353.153 147.796 353.094 147.654 353.019V351.632C147.789 351.684 147.93 351.729 148.08 351.766C148.229 351.803 148.423 351.822 148.661 351.822C149.005 351.822 149.277 351.729 149.478 351.542C149.687 351.348 149.792 351.02 149.792 350.557V345.164H151.616V350.58C151.616 351.49 151.384 352.165 150.922 352.605C150.459 353.045 149.814 353.265 148.986 353.265ZM156.167 353.288C155.615 353.288 155.138 353.228 154.735 353.109C154.332 352.982 153.996 352.803 153.728 352.571C153.459 352.34 153.254 352.064 153.112 351.743C152.97 351.423 152.888 351.061 152.866 350.658H154.6C154.623 350.837 154.66 351.009 154.712 351.173C154.765 351.329 154.85 351.464 154.97 351.576C155.089 351.695 155.242 351.792 155.429 351.867C155.623 351.934 155.869 351.967 156.167 351.967C156.57 351.967 156.891 351.87 157.129 351.676C157.368 351.475 157.488 351.217 157.488 350.904C157.488 350.748 157.461 350.613 157.409 350.501C157.364 350.389 157.286 350.292 157.174 350.21C157.055 350.136 156.898 350.072 156.704 350.02C156.51 349.96 156.268 349.908 155.977 349.864C155.462 349.796 155.022 349.707 154.656 349.595C154.298 349.476 154.004 349.319 153.772 349.125C153.534 348.938 153.358 348.707 153.246 348.431C153.142 348.155 153.09 347.823 153.09 347.435C153.09 347.092 153.157 346.775 153.291 346.484C153.433 346.193 153.631 345.94 153.884 345.723C154.138 345.514 154.444 345.35 154.802 345.231C155.16 345.111 155.559 345.052 155.999 345.052C156.902 345.052 157.607 345.253 158.114 345.656C158.629 346.051 158.924 346.648 158.998 347.446H157.331C157.279 347.088 157.141 346.824 156.917 346.652C156.693 346.473 156.387 346.383 155.999 346.383C155.596 346.383 155.294 346.469 155.093 346.641C154.899 346.805 154.802 347.021 154.802 347.29C154.802 347.432 154.821 347.558 154.858 347.67C154.903 347.775 154.981 347.864 155.093 347.939C155.197 348.021 155.346 348.092 155.54 348.151C155.734 348.211 155.984 348.263 156.29 348.308C156.775 348.368 157.2 348.454 157.566 348.565C157.931 348.67 158.237 348.812 158.483 348.991C158.73 349.177 158.912 349.412 159.032 349.696C159.159 349.979 159.222 350.326 159.222 350.736C159.222 351.094 159.151 351.43 159.009 351.743C158.868 352.049 158.666 352.314 158.405 352.538C158.144 352.769 157.823 352.952 157.443 353.086C157.062 353.221 156.637 353.288 156.167 353.288ZM164.341 351.844C164.677 351.844 164.979 351.781 165.247 351.654C165.523 351.527 165.758 351.348 165.952 351.117C166.139 350.893 166.284 350.617 166.389 350.289C166.493 349.96 166.545 349.595 166.545 349.192V349.103C166.545 348.715 166.493 348.36 166.389 348.04C166.292 347.719 166.15 347.443 165.963 347.211C165.77 346.98 165.535 346.801 165.259 346.674C164.983 346.548 164.669 346.484 164.319 346.484C163.968 346.484 163.655 346.548 163.379 346.674C163.11 346.794 162.879 346.965 162.685 347.189C162.491 347.42 162.342 347.7 162.237 348.028C162.14 348.349 162.092 348.711 162.092 349.114V349.203C162.092 349.614 162.148 349.983 162.26 350.311C162.372 350.632 162.528 350.904 162.73 351.128C162.924 351.359 163.159 351.538 163.435 351.665C163.711 351.784 164.013 351.844 164.341 351.844ZM164.307 353.288C163.681 353.288 163.114 353.187 162.606 352.986C162.099 352.777 161.67 352.489 161.32 352.124C160.962 351.766 160.686 351.337 160.492 350.837C160.298 350.337 160.201 349.796 160.201 349.214V349.125C160.201 348.528 160.301 347.98 160.503 347.48C160.712 346.98 161.003 346.551 161.376 346.193C161.741 345.835 162.174 345.555 162.674 345.354C163.173 345.153 163.722 345.052 164.319 345.052C164.923 345.052 165.475 345.149 165.975 345.343C166.482 345.537 166.918 345.809 167.284 346.16C167.642 346.518 167.922 346.943 168.123 347.435C168.332 347.928 168.436 348.476 168.436 349.08V349.17C168.436 349.767 168.336 350.319 168.134 350.826C167.94 351.326 167.664 351.758 167.306 352.124C166.948 352.489 166.516 352.777 166.008 352.986C165.501 353.187 164.934 353.288 164.307 353.288ZM169.881 345.164H171.985L175.029 350.434V345.164H176.64V353.165H174.827L171.493 347.469V353.165H169.881V345.164Z" fill="white"/>
<path d="M162 327V308L181 327H162Z" fill="#C4C4C4"/>
<path d="M41 308H74L81.1818 315.071L93 327V374H41V308Z" fill="#ECECEC"/>
<rect width="45" height="21.5192" transform="translate(52 338)" fill="#B9B546"/>
<path d="M62.1693 349.058L59.8194 345.164H61.8671L63.389 347.827L64.8996 345.164H66.7572L64.4744 349.002L67.0033 353.165H64.9444L63.2099 350.188L61.4867 353.165H59.6291L62.1693 349.058ZM68.3399 345.164H70.1527V351.743H73.409V353.165H68.3399V345.164ZM74.7884 345.164H76.6123V353.165H74.7884V345.164ZM78.5137 345.164H83.6499V346.585H80.3264V348.7H82.9561V350.065H80.3264V353.165H78.5137V345.164ZM84.9938 345.164H90.13V346.585H86.8066V348.7H89.4362V350.065H86.8066V353.165H84.9938V345.164Z" fill="white"/>
<path d="M74 327V308L93 327H74Z" fill="#C4C4C4"/>
<path d="M41 396H74L81.1818 403.071L93 415V462H41V396Z" fill="#ECECEC"/>
<rect width="45" height="21.5192" transform="translate(52 426)" fill="#B9B546"/>
<path d="M62.0306 437.718L59.3897 433.164H61.3816L63.0041 436.23L64.5931 433.164H66.3499L63.8545 437.718V441.165H62.0306V437.718ZM68.6 433.164H70.9611L73.5571 441.165H71.666L71.1177 439.385H68.2195L67.6712 441.165H65.9703L68.6 433.164ZM68.6112 438.099H70.7261L69.6742 434.641L68.6112 438.099ZM74.7928 433.164H77.1874L79.0562 438.143L80.9025 433.164H83.2524V441.165H81.4508V435.547L79.2352 441.165H78.6421L76.4153 435.547V441.165H74.7928V433.164ZM85.1195 433.164H86.9323V439.744H90.1885V441.165H85.1195V433.164Z" fill="white"/>
<path d="M74 415V396L93 415H74Z" fill="#C4C4C4"/>
<path d="M129 396H162L169.182 403.071L181 415V462H129V396Z" fill="#ECECEC"/>
<rect width="45" height="21.5192" transform="translate(140 426)" fill="#B9B546"/>
<path d="M151.949 433.189H154.713C155.69 433.189 156.444 433.402 156.973 433.827C157.503 434.252 157.768 434.89 157.768 435.74V435.785C157.768 436.21 157.697 436.58 157.555 436.893C157.414 437.199 157.212 437.456 156.951 437.665C156.69 437.874 156.373 438.031 156 438.135C155.634 438.232 155.224 438.281 154.769 438.281H153.751V441.19H151.949V433.189ZM154.668 437.016C155.123 437.016 155.463 436.915 155.687 436.714C155.91 436.505 156.022 436.199 156.022 435.796V435.752C156.022 435.326 155.903 435.024 155.664 434.845C155.433 434.659 155.101 434.565 154.668 434.565H153.751V437.016H154.668ZM159.085 433.189H160.898V436.457H164.109V433.189H165.922V441.19H164.109V437.889H160.898V441.19H159.085V433.189ZM167.773 433.189H170.536C171.514 433.189 172.267 433.402 172.797 433.827C173.327 434.252 173.591 434.89 173.591 435.74V435.785C173.591 436.21 173.52 436.58 173.379 436.893C173.237 437.199 173.036 437.456 172.774 437.665C172.513 437.874 172.196 438.031 171.823 438.135C171.458 438.232 171.047 438.281 170.592 438.281H169.574V441.19H167.773V433.189ZM170.492 437.016C170.947 437.016 171.286 436.915 171.51 436.714C171.734 436.505 171.846 436.199 171.846 435.796V435.752C171.846 435.326 171.726 435.024 171.488 434.845C171.256 434.659 170.924 434.565 170.492 434.565H169.574V437.016H170.492Z" fill="white"/>
<path d="M162 415V396L181 415H162Z" fill="#C4C4C4"/>
<rect x="118" width="107" height="37" rx="18.5" fill="#B9B546"/>
<path d="M136.267 18.38V17.945L142.387 14.42V16.4L139.132 18.155L142.387 19.97V21.92L136.267 18.38ZM147.879 12.275H150.309V16.655H154.614V12.275H157.044V23H154.614V18.575H150.309V23H147.879V12.275ZM161.625 14.165H158.73V12.275H166.965V14.165H164.07V23H161.625V14.165ZM168.665 12.275H171.875L174.38 18.95L176.855 12.275H180.005V23H177.59V15.47L174.62 23H173.825L170.84 15.47V23H168.665V12.275ZM182.508 12.275H184.938V21.095H189.303V23H182.508V12.275ZM197.672 11.36H199.457L194.837 25.22H193.067L197.672 11.36ZM200.621 19.925L203.861 18.17L200.621 16.355V14.405L206.741 17.945V18.38L200.621 21.905V19.925Z" fill="black"/>
<rect x="3" y="48" width="99" height="37" rx="18.5" fill="#B9B546"/>
<path d="M21.2219 66.38V65.945L27.3419 62.42V64.4L24.0869 66.155L27.3419 67.97V69.92L21.2219 66.38ZM34.9344 62.165H32.0394V60.275H40.2744V62.165H37.3794V71H34.9344V62.165ZM40.5326 63.155H42.8126L44.2076 68.435L45.7226 63.155H47.5076L48.8876 68.435L50.3726 63.155H52.4576L49.9826 71H47.8526L46.5176 66.08L45.0776 71H42.9176L40.5326 63.155ZM54.946 62.09C54.596 62.09 54.301 61.98 54.061 61.76C53.831 61.53 53.716 61.245 53.716 60.905C53.716 60.565 53.831 60.285 54.061 60.065C54.301 59.835 54.596 59.72 54.946 59.72C55.296 59.72 55.591 59.835 55.831 60.065C56.071 60.285 56.191 60.565 56.191 60.905C56.191 61.245 56.071 61.53 55.831 61.76C55.591 61.98 55.296 62.09 54.946 62.09ZM53.881 63.155H56.041V71H53.881V63.155ZM61.6955 73.895C61.0655 73.895 60.5155 73.83 60.0455 73.7C59.5755 73.57 59.1855 73.385 58.8755 73.145C58.5555 72.905 58.3055 72.615 58.1255 72.275C57.9555 71.945 57.8455 71.575 57.7955 71.165H59.9555C60.0255 71.515 60.1905 71.79 60.4505 71.99C60.7205 72.2 61.1355 72.305 61.6955 72.305C62.3555 72.305 62.8505 72.14 63.1805 71.81C63.5105 71.48 63.6755 71.005 63.6755 70.385V69.2C63.5655 69.39 63.4255 69.575 63.2555 69.755C63.0955 69.925 62.9055 70.075 62.6855 70.205C62.4655 70.345 62.2255 70.455 61.9655 70.535C61.7155 70.615 61.4455 70.655 61.1555 70.655C60.6755 70.655 60.2255 70.57 59.8055 70.4C59.3955 70.22 59.0405 69.97 58.7405 69.65C58.4305 69.33 58.1855 68.94 58.0055 68.48C57.8255 68.01 57.7355 67.485 57.7355 66.905V66.8C57.7355 66.24 57.8205 65.725 57.9905 65.255C58.1705 64.785 58.4155 64.38 58.7255 64.04C59.0355 63.71 59.4005 63.45 59.8205 63.26C60.2405 63.07 60.6955 62.975 61.1855 62.975C61.8255 62.975 62.3405 63.1 62.7305 63.35C63.1305 63.6 63.4455 63.925 63.6755 64.325V63.155H65.8355V70.385C65.8255 71.555 65.4555 72.43 64.7255 73.01C64.0055 73.6 62.9955 73.895 61.6955 73.895ZM61.8005 69.02C62.3705 69.02 62.8355 68.83 63.1955 68.45C63.5555 68.07 63.7355 67.545 63.7355 66.875V66.77C63.7355 66.1 63.5705 65.575 63.2405 65.195C62.9105 64.815 62.4455 64.625 61.8455 64.625C61.2355 64.625 60.7655 64.825 60.4355 65.225C60.1155 65.615 59.9555 66.135 59.9555 66.785V66.905C59.9555 67.565 60.1255 68.085 60.4655 68.465C60.8155 68.835 61.2605 69.02 61.8005 69.02ZM74.7173 59.36H76.5023L71.8823 73.22H70.1123L74.7173 59.36ZM77.6658 67.925L80.9058 66.17L77.6658 64.355V62.405L83.7858 65.945V66.38L77.6658 69.905V67.925Z" fill="black"/>
<rect x="117" y="48" width="105" height="37" rx="18.5" fill="#B9B546"/>
<path d="M134.97 66.38V65.945L141.09 62.42V64.4L137.835 66.155L141.09 67.97V69.92L134.97 66.38ZM146.582 60.275H150.797C151.977 60.275 152.862 60.51 153.452 60.98C154.052 61.45 154.352 62.145 154.352 63.065V63.125C154.352 63.695 154.212 64.18 153.932 64.58C153.652 64.97 153.212 65.25 152.612 65.42C153.312 65.56 153.842 65.835 154.202 66.245C154.572 66.655 154.757 67.22 154.757 67.94V68C154.757 68.99 154.442 69.74 153.812 70.25C153.182 70.75 152.242 71 150.992 71H146.582V60.275ZM150.617 69.32C151.217 69.32 151.657 69.19 151.937 68.93C152.217 68.67 152.357 68.295 152.357 67.805V67.745C152.357 67.245 152.212 66.87 151.922 66.62C151.632 66.37 151.157 66.245 150.497 66.245H148.952V69.32H150.617ZM150.407 64.685C150.997 64.685 151.417 64.575 151.667 64.355C151.917 64.135 152.042 63.785 152.042 63.305V63.245C152.042 62.795 151.907 62.465 151.637 62.255C151.377 62.045 150.962 61.94 150.392 61.94H148.952V64.685H150.407ZM156.511 59.6H158.671V71H156.511V59.6ZM162.946 71.165C162.586 71.165 162.246 71.12 161.926 71.03C161.616 70.94 161.341 70.8 161.101 70.61C160.861 70.42 160.671 70.18 160.531 69.89C160.391 69.59 160.321 69.235 160.321 68.825C160.321 68.365 160.421 67.975 160.621 67.655C160.821 67.335 161.101 67.075 161.461 66.875C161.821 66.675 162.251 66.53 162.751 66.44C163.251 66.35 163.801 66.305 164.401 66.305H165.286V65.99C165.286 65.52 165.196 65.165 165.016 64.925C164.846 64.675 164.511 64.55 164.011 64.55C163.581 64.55 163.261 64.65 163.051 64.85C162.851 65.05 162.726 65.32 162.676 65.66H160.621C160.651 65.2 160.761 64.8 160.951 64.46C161.151 64.12 161.406 63.84 161.716 63.62C162.026 63.4 162.386 63.24 162.796 63.14C163.216 63.03 163.666 62.975 164.146 62.975C164.626 62.975 165.066 63.03 165.466 63.14C165.866 63.24 166.216 63.405 166.516 63.635C166.806 63.865 167.031 64.165 167.191 64.535C167.351 64.905 167.431 65.355 167.431 65.885V71H165.316V70.055C165.086 70.375 164.786 70.64 164.416 70.85C164.056 71.06 163.566 71.165 162.946 71.165ZM163.591 69.65C164.071 69.65 164.471 69.53 164.791 69.29C165.121 69.04 165.286 68.695 165.286 68.255V67.595H164.446C163.816 67.595 163.326 67.675 162.976 67.835C162.626 67.995 162.451 68.285 162.451 68.705C162.451 68.995 162.541 69.225 162.721 69.395C162.901 69.565 163.191 69.65 163.591 69.65ZM172.413 71.165C171.933 71.165 171.488 71.08 171.078 70.91C170.668 70.74 170.308 70.485 169.998 70.145C169.688 69.815 169.443 69.405 169.263 68.915C169.093 68.415 169.008 67.84 169.008 67.19V67.07C169.008 66.43 169.093 65.855 169.263 65.345C169.443 64.835 169.688 64.405 169.998 64.055C170.308 63.705 170.673 63.44 171.093 63.26C171.513 63.07 171.968 62.975 172.458 62.975C173.088 62.975 173.603 63.1 174.003 63.35C174.403 63.6 174.713 63.925 174.933 64.325V59.6H177.093V71H174.933V69.695C174.733 70.095 174.408 70.44 173.958 70.73C173.508 71.02 172.993 71.165 172.413 71.165ZM173.058 69.47C173.628 69.47 174.093 69.28 174.453 68.9C174.813 68.51 174.993 67.915 174.993 67.115V66.995C174.993 66.215 174.828 65.63 174.498 65.24C174.178 64.84 173.718 64.64 173.118 64.64C172.508 64.64 172.038 64.845 171.708 65.255C171.388 65.655 171.228 66.245 171.228 67.025V67.145C171.228 67.925 171.398 68.51 171.738 68.9C172.078 69.28 172.518 69.47 173.058 69.47ZM182.83 71.165C182.24 71.165 181.695 71.075 181.195 70.895C180.695 70.715 180.265 70.45 179.905 70.1C179.535 69.76 179.245 69.345 179.035 68.855C178.835 68.365 178.735 67.805 178.735 67.175V67.055C178.735 66.435 178.835 65.875 179.035 65.375C179.245 64.875 179.535 64.445 179.905 64.085C180.265 63.735 180.69 63.465 181.18 63.275C181.67 63.075 182.2 62.975 182.77 62.975C183.28 62.975 183.765 63.055 184.225 63.215C184.685 63.365 185.09 63.6 185.44 63.92C185.79 64.24 186.07 64.655 186.28 65.165C186.49 65.665 186.595 66.265 186.595 66.965V67.565H180.94C180.97 68.225 181.15 68.735 181.48 69.095C181.82 69.445 182.29 69.62 182.89 69.62C183.4 69.62 183.78 69.52 184.03 69.32C184.29 69.12 184.455 68.855 184.525 68.525H186.58C186.45 69.375 186.06 70.03 185.41 70.49C184.77 70.94 183.91 71.165 182.83 71.165ZM184.48 66.23C184.44 65.63 184.275 65.19 183.985 64.91C183.695 64.62 183.29 64.475 182.77 64.475C182.28 64.475 181.875 64.63 181.555 64.94C181.245 65.24 181.05 65.67 180.97 66.23H184.48ZM194.969 59.36H196.754L192.134 73.22H190.364L194.969 59.36ZM197.918 67.925L201.158 66.17L197.918 64.355V62.405L204.038 65.945V66.38L197.918 69.905V67.925Z" fill="black"/>
<rect width="106" height="37" rx="18.5" fill="#B9B546"/>
<path d="M38.8568 12.275H42.5618C43.8718 12.275 44.8818 12.56 45.5918 13.13C46.3018 13.7 46.6568 14.555 46.6568 15.695V15.755C46.6568 16.325 46.5618 16.82 46.3718 17.24C46.1818 17.65 45.9118 17.995 45.5618 18.275C45.2118 18.555 44.7868 18.765 44.2868 18.905C43.7968 19.035 43.2468 19.1 42.6368 19.1H41.2718V23H38.8568V12.275ZM42.5018 17.405C43.1118 17.405 43.5668 17.27 43.8668 17C44.1668 16.72 44.3168 16.31 44.3168 15.77V15.71C44.3168 15.14 44.1568 14.735 43.8368 14.495C43.5268 14.245 43.0818 14.12 42.5018 14.12H41.2718V17.405H42.5018ZM48.4222 12.275H50.8522V16.655H55.1572V12.275H57.5872V23H55.1572V18.575H50.8522V23H48.4222V12.275ZM60.0678 12.275H63.7728C65.0828 12.275 66.0928 12.56 66.8028 13.13C67.5128 13.7 67.8678 14.555 67.8678 15.695V15.755C67.8678 16.325 67.7728 16.82 67.5828 17.24C67.3928 17.65 67.1228 17.995 66.7728 18.275C66.4228 18.555 65.9978 18.765 65.4978 18.905C65.0078 19.035 64.4578 19.1 63.8478 19.1H62.4828V23H60.0678V12.275ZM63.7128 17.405C64.3228 17.405 64.7778 17.27 65.0778 17C65.3778 16.72 65.5278 16.31 65.5278 15.77V15.71C65.5278 15.14 65.3678 14.735 65.0478 14.495C64.7378 14.245 64.2928 14.12 63.7128 14.12H62.4828V17.405H63.7128Z" fill="black"/>
</svg>
