<svg width="226" height="462" viewBox="0 0 226 462" fill="none" xmlns="http://www.w3.org/2000/svg">
<rect width="104" height="37" rx="18.5" fill="#B9B546"/>
<path d="M18.0852 18.38V17.945L24.2052 14.42V16.4L20.9502 18.155L24.2052 19.97V21.92L18.0852 18.38ZM27.8124 19.205C27.8124 18.915 27.8574 18.65 27.9474 18.41C28.0374 18.16 28.1524 17.93 28.2924 17.72C28.4324 17.52 28.5874 17.33 28.7574 17.15C28.9374 16.96 29.1174 16.78 29.2974 16.61C29.5674 16.35 29.8024 16.095 30.0024 15.845C30.2124 15.585 30.3174 15.305 30.3174 15.005C30.3174 14.655 30.2224 14.385 30.0324 14.195C29.8524 13.995 29.5624 13.895 29.1624 13.895C28.7424 13.895 28.4024 14.035 28.1424 14.315C27.8824 14.585 27.7274 14.96 27.6774 15.44H25.5924C25.6124 14.92 25.7174 14.455 25.9074 14.045C26.0974 13.635 26.3574 13.285 26.6874 12.995C27.0074 12.715 27.3874 12.5 27.8274 12.35C28.2774 12.2 28.7674 12.125 29.2974 12.125C29.8474 12.125 30.3274 12.19 30.7374 12.32C31.1574 12.45 31.5074 12.635 31.7874 12.875C32.0674 13.115 32.2774 13.4 32.4174 13.73C32.5574 14.06 32.6274 14.425 32.6274 14.825C32.6274 15.345 32.5024 15.79 32.2524 16.16C32.0024 16.53 31.7174 16.87 31.3974 17.18C31.2174 17.35 31.0374 17.52 30.8574 17.69C30.6774 17.85 30.5174 18.015 30.3774 18.185C30.2274 18.355 30.1024 18.53 30.0024 18.71C29.9024 18.89 29.8424 19.08 29.8224 19.28V19.655H27.8124V19.205ZM28.8024 23.135C28.6124 23.135 28.4324 23.1 28.2624 23.03C28.0924 22.97 27.9474 22.88 27.8274 22.76C27.6974 22.64 27.5974 22.505 27.5274 22.355C27.4574 22.195 27.4224 22.025 27.4224 21.845C27.4224 21.665 27.4574 21.495 27.5274 21.335C27.5974 21.175 27.6974 21.035 27.8274 20.915C27.9474 20.795 28.0924 20.705 28.2624 20.645C28.4324 20.575 28.6124 20.54 28.8024 20.54C29.1824 20.54 29.5024 20.665 29.7624 20.915C30.0324 21.165 30.1674 21.475 30.1674 21.845C30.1674 22.025 30.1324 22.195 30.0624 22.355C29.9924 22.505 29.8974 22.64 29.7774 22.76C29.6474 22.88 29.4974 22.97 29.3274 23.03C29.1674 23.1 28.9924 23.135 28.8024 23.135ZM37.8568 12.275H41.5618C42.8718 12.275 43.8818 12.56 44.5918 13.13C45.3018 13.7 45.6568 14.555 45.6568 15.695V15.755C45.6568 16.325 45.5618 16.82 45.3718 17.24C45.1818 17.65 44.9118 17.995 44.5618 18.275C44.2118 18.555 43.7868 18.765 43.2868 18.905C42.7968 19.035 42.2468 19.1 41.6368 19.1H40.2718V23H37.8568V12.275ZM41.5018 17.405C42.1118 17.405 42.5668 17.27 42.8668 17C43.1668 16.72 43.3168 16.31 43.3168 15.77V15.71C43.3168 15.14 43.1568 14.735 42.8368 14.495C42.5268 14.245 42.0818 14.12 41.5018 14.12H40.2718V17.405H41.5018ZM47.4222 12.275H49.8522V16.655H54.1572V12.275H56.5872V23H54.1572V18.575H49.8522V23H47.4222V12.275ZM59.0678 12.275H62.7728C64.0828 12.275 65.0928 12.56 65.8028 13.13C66.5128 13.7 66.8678 14.555 66.8678 15.695V15.755C66.8678 16.325 66.7728 16.82 66.5828 17.24C66.3928 17.65 66.1228 17.995 65.7728 18.275C65.4228 18.555 64.9978 18.765 64.4978 18.905C64.0078 19.035 63.4578 19.1 62.8478 19.1H61.4828V23H59.0678V12.275ZM62.7128 17.405C63.3228 17.405 63.7778 17.27 64.0778 17C64.3778 16.72 64.5278 16.31 64.5278 15.77V15.71C64.5278 15.14 64.3678 14.735 64.0478 14.495C63.7378 14.245 63.2928 14.12 62.7128 14.12H61.4828V17.405H62.7128ZM73.3984 19.205C73.3984 18.915 73.4434 18.65 73.5334 18.41C73.6234 18.16 73.7384 17.93 73.8784 17.72C74.0184 17.52 74.1734 17.33 74.3434 17.15C74.5234 16.96 74.7034 16.78 74.8834 16.61C75.1534 16.35 75.3884 16.095 75.5884 15.845C75.7984 15.585 75.9034 15.305 75.9034 15.005C75.9034 14.655 75.8084 14.385 75.6184 14.195C75.4384 13.995 75.1484 13.895 74.7484 13.895C74.3284 13.895 73.9884 14.035 73.7284 14.315C73.4684 14.585 73.3134 14.96 73.2634 15.44H71.1784C71.1984 14.92 71.3034 14.455 71.4934 14.045C71.6834 13.635 71.9434 13.285 72.2734 12.995C72.5934 12.715 72.9734 12.5 73.4134 12.35C73.8634 12.2 74.3534 12.125 74.8834 12.125C75.4334 12.125 75.9134 12.19 76.3234 12.32C76.7434 12.45 77.0934 12.635 77.3734 12.875C77.6534 13.115 77.8634 13.4 78.0034 13.73C78.1434 14.06 78.2134 14.425 78.2134 14.825C78.2134 15.345 78.0884 15.79 77.8384 16.16C77.5884 16.53 77.3034 16.87 76.9834 17.18C76.8034 17.35 76.6234 17.52 76.4434 17.69C76.2634 17.85 76.1034 18.015 75.9634 18.185C75.8134 18.355 75.6884 18.53 75.5884 18.71C75.4884 18.89 75.4284 19.08 75.4084 19.28V19.655H73.3984V19.205ZM74.3884 23.135C74.1984 23.135 74.0184 23.1 73.8484 23.03C73.6784 22.97 73.5334 22.88 73.4134 22.76C73.2834 22.64 73.1834 22.505 73.1134 22.355C73.0434 22.195 73.0084 22.025 73.0084 21.845C73.0084 21.665 73.0434 21.495 73.1134 21.335C73.1834 21.175 73.2834 21.035 73.4134 20.915C73.5334 20.795 73.6784 20.705 73.8484 20.645C74.0184 20.575 74.1984 20.54 74.3884 20.54C74.7684 20.54 75.0884 20.665 75.3484 20.915C75.6184 21.165 75.7534 21.475 75.7534 21.845C75.7534 22.025 75.7184 22.195 75.6484 22.355C75.5784 22.505 75.4834 22.64 75.3634 22.76C75.2334 22.88 75.0834 22.97 74.9134 23.03C74.7534 23.1 74.5784 23.135 74.3884 23.135ZM79.8026 19.925L83.0426 18.17L79.8026 16.355V14.405L85.9226 17.945V18.38L79.8026 21.905V19.925Z" fill="black"/>
<rect x="119" width="107" height="37" rx="18.5" fill="#B9B546"/>
<path d="M137.267 18.38V17.945L143.387 14.42V16.4L140.132 18.155L143.387 19.97V21.92L137.267 18.38ZM148.879 12.275H151.309V16.655H155.614V12.275H158.044V23H155.614V18.575H151.309V23H148.879V12.275ZM162.625 14.165H159.73V12.275H167.965V14.165H165.07V23H162.625V14.165ZM169.665 12.275H172.875L175.38 18.95L177.855 12.275H181.005V23H178.59V15.47L175.62 23H174.825L171.84 15.47V23H169.665V12.275ZM183.508 12.275H185.938V21.095H190.303V23H183.508V12.275ZM198.672 11.36H200.457L195.837 25.22H194.067L198.672 11.36ZM201.621 19.925L204.861 18.17L201.621 16.355V14.405L207.741 17.945V18.38L201.621 21.905V19.925Z" fill="black"/>
<rect x="4" y="48" width="99" height="37" rx="18.5" fill="#B9B546"/>
<path d="M22.2219 66.38V65.945L28.3419 62.42V64.4L25.0869 66.155L28.3419 67.97V69.92L22.2219 66.38ZM35.9344 62.165H33.0394V60.275H41.2744V62.165H38.3794V71H35.9344V62.165ZM41.5326 63.155H43.8126L45.2076 68.435L46.7226 63.155H48.5076L49.8876 68.435L51.3726 63.155H53.4576L50.9826 71H48.8526L47.5176 66.08L46.0776 71H43.9176L41.5326 63.155ZM55.946 62.09C55.596 62.09 55.301 61.98 55.061 61.76C54.831 61.53 54.716 61.245 54.716 60.905C54.716 60.565 54.831 60.285 55.061 60.065C55.301 59.835 55.596 59.72 55.946 59.72C56.296 59.72 56.591 59.835 56.831 60.065C57.071 60.285 57.191 60.565 57.191 60.905C57.191 61.245 57.071 61.53 56.831 61.76C56.591 61.98 56.296 62.09 55.946 62.09ZM54.881 63.155H57.041V71H54.881V63.155ZM62.6955 73.895C62.0655 73.895 61.5155 73.83 61.0455 73.7C60.5755 73.57 60.1855 73.385 59.8755 73.145C59.5555 72.905 59.3055 72.615 59.1255 72.275C58.9555 71.945 58.8455 71.575 58.7955 71.165H60.9555C61.0255 71.515 61.1905 71.79 61.4505 71.99C61.7205 72.2 62.1355 72.305 62.6955 72.305C63.3555 72.305 63.8505 72.14 64.1805 71.81C64.5105 71.48 64.6755 71.005 64.6755 70.385V69.2C64.5655 69.39 64.4255 69.575 64.2555 69.755C64.0955 69.925 63.9055 70.075 63.6855 70.205C63.4655 70.345 63.2255 70.455 62.9655 70.535C62.7155 70.615 62.4455 70.655 62.1555 70.655C61.6755 70.655 61.2255 70.57 60.8055 70.4C60.3955 70.22 60.0405 69.97 59.7405 69.65C59.4305 69.33 59.1855 68.94 59.0055 68.48C58.8255 68.01 58.7355 67.485 58.7355 66.905V66.8C58.7355 66.24 58.8205 65.725 58.9905 65.255C59.1705 64.785 59.4155 64.38 59.7255 64.04C60.0355 63.71 60.4005 63.45 60.8205 63.26C61.2405 63.07 61.6955 62.975 62.1855 62.975C62.8255 62.975 63.3405 63.1 63.7305 63.35C64.1305 63.6 64.4455 63.925 64.6755 64.325V63.155H66.8355V70.385C66.8255 71.555 66.4555 72.43 65.7255 73.01C65.0055 73.6 63.9955 73.895 62.6955 73.895ZM62.8005 69.02C63.3705 69.02 63.8355 68.83 64.1955 68.45C64.5555 68.07 64.7355 67.545 64.7355 66.875V66.77C64.7355 66.1 64.5705 65.575 64.2405 65.195C63.9105 64.815 63.4455 64.625 62.8455 64.625C62.2355 64.625 61.7655 64.825 61.4355 65.225C61.1155 65.615 60.9555 66.135 60.9555 66.785V66.905C60.9555 67.565 61.1255 68.085 61.4655 68.465C61.8155 68.835 62.2605 69.02 62.8005 69.02ZM75.7173 59.36H77.5023L72.8823 73.22H71.1123L75.7173 59.36ZM78.6658 67.925L81.9058 66.17L78.6658 64.355V62.405L84.7858 65.945V66.38L78.6658 69.905V67.925Z" fill="black"/>
<rect x="118" y="48" width="105" height="37" rx="18.5" fill="#B9B546"/>
<path d="M135.97 66.38V65.945L142.09 62.42V64.4L138.835 66.155L142.09 67.97V69.92L135.97 66.38ZM147.582 60.275H151.797C152.977 60.275 153.862 60.51 154.452 60.98C155.052 61.45 155.352 62.145 155.352 63.065V63.125C155.352 63.695 155.212 64.18 154.932 64.58C154.652 64.97 154.212 65.25 153.612 65.42C154.312 65.56 154.842 65.835 155.202 66.245C155.572 66.655 155.757 67.22 155.757 67.94V68C155.757 68.99 155.442 69.74 154.812 70.25C154.182 70.75 153.242 71 151.992 71H147.582V60.275ZM151.617 69.32C152.217 69.32 152.657 69.19 152.937 68.93C153.217 68.67 153.357 68.295 153.357 67.805V67.745C153.357 67.245 153.212 66.87 152.922 66.62C152.632 66.37 152.157 66.245 151.497 66.245H149.952V69.32H151.617ZM151.407 64.685C151.997 64.685 152.417 64.575 152.667 64.355C152.917 64.135 153.042 63.785 153.042 63.305V63.245C153.042 62.795 152.907 62.465 152.637 62.255C152.377 62.045 151.962 61.94 151.392 61.94H149.952V64.685H151.407ZM157.511 59.6H159.671V71H157.511V59.6ZM163.946 71.165C163.586 71.165 163.246 71.12 162.926 71.03C162.616 70.94 162.341 70.8 162.101 70.61C161.861 70.42 161.671 70.18 161.531 69.89C161.391 69.59 161.321 69.235 161.321 68.825C161.321 68.365 161.421 67.975 161.621 67.655C161.821 67.335 162.101 67.075 162.461 66.875C162.821 66.675 163.251 66.53 163.751 66.44C164.251 66.35 164.801 66.305 165.401 66.305H166.286V65.99C166.286 65.52 166.196 65.165 166.016 64.925C165.846 64.675 165.511 64.55 165.011 64.55C164.581 64.55 164.261 64.65 164.051 64.85C163.851 65.05 163.726 65.32 163.676 65.66H161.621C161.651 65.2 161.761 64.8 161.951 64.46C162.151 64.12 162.406 63.84 162.716 63.62C163.026 63.4 163.386 63.24 163.796 63.14C164.216 63.03 164.666 62.975 165.146 62.975C165.626 62.975 166.066 63.03 166.466 63.14C166.866 63.24 167.216 63.405 167.516 63.635C167.806 63.865 168.031 64.165 168.191 64.535C168.351 64.905 168.431 65.355 168.431 65.885V71H166.316V70.055C166.086 70.375 165.786 70.64 165.416 70.85C165.056 71.06 164.566 71.165 163.946 71.165ZM164.591 69.65C165.071 69.65 165.471 69.53 165.791 69.29C166.121 69.04 166.286 68.695 166.286 68.255V67.595H165.446C164.816 67.595 164.326 67.675 163.976 67.835C163.626 67.995 163.451 68.285 163.451 68.705C163.451 68.995 163.541 69.225 163.721 69.395C163.901 69.565 164.191 69.65 164.591 69.65ZM173.413 71.165C172.933 71.165 172.488 71.08 172.078 70.91C171.668 70.74 171.308 70.485 170.998 70.145C170.688 69.815 170.443 69.405 170.263 68.915C170.093 68.415 170.008 67.84 170.008 67.19V67.07C170.008 66.43 170.093 65.855 170.263 65.345C170.443 64.835 170.688 64.405 170.998 64.055C171.308 63.705 171.673 63.44 172.093 63.26C172.513 63.07 172.968 62.975 173.458 62.975C174.088 62.975 174.603 63.1 175.003 63.35C175.403 63.6 175.713 63.925 175.933 64.325V59.6H178.093V71H175.933V69.695C175.733 70.095 175.408 70.44 174.958 70.73C174.508 71.02 173.993 71.165 173.413 71.165ZM174.058 69.47C174.628 69.47 175.093 69.28 175.453 68.9C175.813 68.51 175.993 67.915 175.993 67.115V66.995C175.993 66.215 175.828 65.63 175.498 65.24C175.178 64.84 174.718 64.64 174.118 64.64C173.508 64.64 173.038 64.845 172.708 65.255C172.388 65.655 172.228 66.245 172.228 67.025V67.145C172.228 67.925 172.398 68.51 172.738 68.9C173.078 69.28 173.518 69.47 174.058 69.47ZM183.83 71.165C183.24 71.165 182.695 71.075 182.195 70.895C181.695 70.715 181.265 70.45 180.905 70.1C180.535 69.76 180.245 69.345 180.035 68.855C179.835 68.365 179.735 67.805 179.735 67.175V67.055C179.735 66.435 179.835 65.875 180.035 65.375C180.245 64.875 180.535 64.445 180.905 64.085C181.265 63.735 181.69 63.465 182.18 63.275C182.67 63.075 183.2 62.975 183.77 62.975C184.28 62.975 184.765 63.055 185.225 63.215C185.685 63.365 186.09 63.6 186.44 63.92C186.79 64.24 187.07 64.655 187.28 65.165C187.49 65.665 187.595 66.265 187.595 66.965V67.565H181.94C181.97 68.225 182.15 68.735 182.48 69.095C182.82 69.445 183.29 69.62 183.89 69.62C184.4 69.62 184.78 69.52 185.03 69.32C185.29 69.12 185.455 68.855 185.525 68.525H187.58C187.45 69.375 187.06 70.03 186.41 70.49C185.77 70.94 184.91 71.165 183.83 71.165ZM185.48 66.23C185.44 65.63 185.275 65.19 184.985 64.91C184.695 64.62 184.29 64.475 183.77 64.475C183.28 64.475 182.875 64.63 182.555 64.94C182.245 65.24 182.05 65.67 181.97 66.23H185.48ZM195.969 59.36H197.754L193.134 73.22H191.364L195.969 59.36ZM198.918 67.925L202.158 66.17L198.918 64.355V62.405L205.038 65.945V66.38L198.918 69.905V67.925Z" fill="black"/>
<path d="M158.999 114L158.999 132.383C158.999 161.229 141.047 187.028 113.999 197.054V197.054C86.9509 207.079 68.999 232.878 68.999 261.724L68.999 279.5" stroke="#909090"/>
<path d="M68.999 114L68.999 132.383C68.999 161.229 86.9509 187.028 113.999 197.054V197.054C141.047 207.079 158.999 232.878 158.999 261.724L158.999 279.5" stroke="#909090"/>
<path d="M73.8994 273.95L68.9497 278.899L63.9999 273.95" stroke="#909090"/>
<path d="M163.899 273.95L158.95 278.899L154 273.95" stroke="#909090"/>
<path d="M120 308H153L160.182 315.071L172 327V374H120V308Z" fill="#ECECEC"/>
<rect width="45" height="21.5192" transform="translate(131 338)" fill="#B9B546"/>
<path d="M139.986 353.265C139.636 353.265 139.36 353.243 139.158 353.198C138.964 353.153 138.797 353.094 138.655 353.019V351.632C138.789 351.684 138.931 351.729 139.08 351.766C139.229 351.803 139.423 351.822 139.662 351.822C140.005 351.822 140.277 351.729 140.479 351.542C140.688 351.348 140.792 351.02 140.792 350.557V345.164H142.616V350.58C142.616 351.49 142.385 352.165 141.922 352.605C141.46 353.045 140.814 353.265 139.986 353.265ZM147.168 353.288C146.616 353.288 146.138 353.228 145.735 353.109C145.332 352.982 144.997 352.803 144.728 352.571C144.46 352.34 144.254 352.064 144.113 351.743C143.971 351.423 143.889 351.061 143.867 350.658H145.601C145.623 350.837 145.661 351.009 145.713 351.173C145.765 351.329 145.851 351.464 145.97 351.576C146.09 351.695 146.243 351.792 146.429 351.867C146.623 351.934 146.869 351.967 147.168 351.967C147.57 351.967 147.891 351.87 148.13 351.676C148.369 351.475 148.488 351.217 148.488 350.904C148.488 350.748 148.462 350.613 148.41 350.501C148.365 350.389 148.287 350.292 148.175 350.21C148.055 350.136 147.899 350.072 147.705 350.02C147.511 349.96 147.268 349.908 146.977 349.864C146.463 349.796 146.022 349.707 145.657 349.595C145.299 349.476 145.004 349.319 144.773 349.125C144.534 348.938 144.359 348.707 144.247 348.431C144.143 348.155 144.09 347.823 144.09 347.435C144.09 347.092 144.157 346.775 144.292 346.484C144.433 346.193 144.631 345.94 144.885 345.723C145.138 345.514 145.444 345.35 145.802 345.231C146.16 345.111 146.56 345.052 147 345.052C147.902 345.052 148.607 345.253 149.115 345.656C149.629 346.051 149.924 346.648 149.999 347.446H148.331C148.279 347.088 148.141 346.824 147.917 346.652C147.694 346.473 147.388 346.383 147 346.383C146.597 346.383 146.295 346.469 146.093 346.641C145.899 346.805 145.802 347.021 145.802 347.29C145.802 347.432 145.821 347.558 145.858 347.67C145.903 347.775 145.981 347.864 146.093 347.939C146.198 348.021 146.347 348.092 146.541 348.151C146.735 348.211 146.985 348.263 147.291 348.308C147.776 348.368 148.201 348.454 148.566 348.565C148.932 348.67 149.238 348.812 149.484 348.991C149.73 349.177 149.913 349.412 150.032 349.696C150.159 349.979 150.222 350.326 150.222 350.736C150.222 351.094 150.152 351.43 150.01 351.743C149.868 352.049 149.667 352.314 149.406 352.538C149.144 352.769 148.824 352.952 148.443 353.086C148.063 353.221 147.638 353.288 147.168 353.288ZM155.341 351.844C155.677 351.844 155.979 351.781 156.248 351.654C156.524 351.527 156.759 351.348 156.953 351.117C157.139 350.893 157.285 350.617 157.389 350.289C157.494 349.96 157.546 349.595 157.546 349.192V349.103C157.546 348.715 157.494 348.36 157.389 348.04C157.292 347.719 157.15 347.443 156.964 347.211C156.77 346.98 156.535 346.801 156.259 346.674C155.983 346.548 155.67 346.484 155.319 346.484C154.968 346.484 154.655 346.548 154.379 346.674C154.111 346.794 153.879 346.965 153.685 347.189C153.491 347.42 153.342 347.7 153.238 348.028C153.141 348.349 153.092 348.711 153.092 349.114V349.203C153.092 349.614 153.148 349.983 153.26 350.311C153.372 350.632 153.529 350.904 153.73 351.128C153.924 351.359 154.159 351.538 154.435 351.665C154.711 351.784 155.013 351.844 155.341 351.844ZM155.308 353.288C154.681 353.288 154.114 353.187 153.607 352.986C153.1 352.777 152.671 352.489 152.32 352.124C151.962 351.766 151.686 351.337 151.492 350.837C151.298 350.337 151.201 349.796 151.201 349.214V349.125C151.201 348.528 151.302 347.98 151.503 347.48C151.712 346.98 152.003 346.551 152.376 346.193C152.742 345.835 153.174 345.555 153.674 345.354C154.174 345.153 154.722 345.052 155.319 345.052C155.923 345.052 156.475 345.149 156.975 345.343C157.482 345.537 157.919 345.809 158.284 346.16C158.642 346.518 158.922 346.943 159.124 347.435C159.333 347.928 159.437 348.476 159.437 349.08V349.17C159.437 349.767 159.336 350.319 159.135 350.826C158.941 351.326 158.665 351.758 158.307 352.124C157.949 352.489 157.516 352.777 157.009 352.986C156.501 353.187 155.934 353.288 155.308 353.288ZM160.882 345.164H162.986L166.029 350.434V345.164H167.641V353.165H165.828L162.493 347.469V353.165H160.882V345.164Z" fill="white"/>
<path d="M153 327V308L172 327H153Z" fill="#C4C4C4"/>
<path d="M76 396H109L116.182 403.071L128 415V462H76V396Z" fill="#ECECEC"/>
<rect width="45" height="21.5192" transform="translate(87 426)" fill="#B9B546"/>
<path d="M97.0311 437.718L94.3902 433.164H96.382L98.0046 436.23L99.5936 433.164H101.35L98.855 437.718V441.165H97.0311V437.718ZM103.6 433.164H105.962L108.558 441.165H106.667L106.118 439.385H103.22L102.672 441.165H100.971L103.6 433.164ZM103.612 438.099H105.727L104.675 434.641L103.612 438.099ZM109.793 433.164H112.188L114.057 438.143L115.903 433.164H118.253V441.165H116.451V435.547L114.236 441.165H113.643L111.416 435.547V441.165H109.793V433.164ZM120.12 433.164H121.933V439.744H125.189V441.165H120.12V433.164Z" fill="white"/>
<path d="M109 415V396L128 415H109Z" fill="#C4C4C4"/>
<path d="M32 308H65L72.1818 315.071L84 327V374H32V308Z" fill="#ECECEC"/>
<rect width="45" height="21.5192" transform="translate(43 338)" fill="#B9B546"/>
<path d="M53.1698 349.058L50.8199 345.164H52.8676L54.3895 347.827L55.9001 345.164H57.7577L55.4749 349.002L58.0038 353.165H55.9449L54.2104 350.188L52.4872 353.165H50.6296L53.1698 349.058ZM59.3404 345.164H61.1532V351.743H64.4095V353.165H59.3404V345.164ZM65.7888 345.164H67.6128V353.165H65.7888V345.164ZM69.5142 345.164H74.6504V346.585H71.3269V348.7H73.9566V350.065H71.3269V353.165H69.5142V345.164ZM75.9943 345.164H81.1305V346.585H77.8071V348.7H80.4367V350.065H77.8071V353.165H75.9943V345.164Z" fill="white"/>
<path d="M65 327V308L84 327H65Z" fill="#C4C4C4"/>
<path d="M164 396H197L204.182 403.071L216 415V462H164V396Z" fill="#ECECEC"/>
<rect width="45" height="21.5192" transform="translate(175 426)" fill="#B9B546"/>
<path d="M186.949 433.189H189.713C190.69 433.189 191.444 433.402 191.973 433.827C192.503 434.252 192.768 434.89 192.768 435.74V435.785C192.768 436.21 192.697 436.58 192.555 436.893C192.414 437.199 192.212 437.456 191.951 437.665C191.69 437.874 191.373 438.031 191 438.135C190.634 438.232 190.224 438.281 189.769 438.281H188.751V441.19H186.949V433.189ZM189.668 437.016C190.123 437.016 190.463 436.915 190.687 436.714C190.91 436.505 191.022 436.199 191.022 435.796V435.752C191.022 435.326 190.903 435.024 190.664 434.845C190.433 434.659 190.101 434.565 189.668 434.565H188.751V437.016H189.668ZM194.085 433.189H195.898V436.457H199.109V433.189H200.922V441.19H199.109V437.889H195.898V441.19H194.085V433.189ZM202.773 433.189H205.536C206.514 433.189 207.267 433.402 207.797 433.827C208.327 434.252 208.591 434.89 208.591 435.74V435.785C208.591 436.21 208.52 436.58 208.379 436.893C208.237 437.199 208.036 437.456 207.774 437.665C207.513 437.874 207.196 438.031 206.823 438.135C206.458 438.232 206.047 438.281 205.592 438.281H204.574V441.19H202.773V433.189ZM205.492 437.016C205.947 437.016 206.286 436.915 206.51 436.714C206.734 436.505 206.846 436.199 206.846 435.796V435.752C206.846 435.326 206.726 435.024 206.488 434.845C206.256 434.659 205.924 434.565 205.492 434.565H204.574V437.016H205.492Z" fill="white"/>
<path d="M197 415V396L216 415H197Z" fill="#C4C4C4"/>
</svg>
