<svg width="847" height="154" viewBox="0 0 847 154" fill="none" xmlns="http://www.w3.org/2000/svg">
<rect x="1" y="31" width="106" height="37" rx="18.5" fill="#B9B546"/>
<path d="M39.8568 43.275H43.5618C44.8718 43.275 45.8818 43.56 46.5918 44.13C47.3018 44.7 47.6568 45.555 47.6568 46.695V46.755C47.6568 47.325 47.5618 47.82 47.3718 48.24C47.1818 48.65 46.9118 48.995 46.5618 49.275C46.2118 49.555 45.7868 49.765 45.2868 49.905C44.7968 50.035 44.2468 50.1 43.6368 50.1H42.2718V54H39.8568V43.275ZM43.5018 48.405C44.1118 48.405 44.5668 48.27 44.8668 48C45.1668 47.72 45.3168 47.31 45.3168 46.77V46.71C45.3168 46.14 45.1568 45.735 44.8368 45.495C44.5268 45.245 44.0818 45.12 43.5018 45.12H42.2718V48.405H43.5018ZM49.4222 43.275H51.8522V47.655H56.1572V43.275H58.5872V54H56.1572V49.575H51.8522V54H49.4222V43.275ZM61.0678 43.275H64.7728C66.0828 43.275 67.0928 43.56 67.8028 44.13C68.5128 44.7 68.8678 45.555 68.8678 46.695V46.755C68.8678 47.325 68.7728 47.82 68.5828 48.24C68.3928 48.65 68.1228 48.995 67.7728 49.275C67.4228 49.555 66.9978 49.765 66.4978 49.905C66.0078 50.035 65.4578 50.1 64.8478 50.1H63.4828V54H61.0678V43.275ZM64.7128 48.405C65.3228 48.405 65.7778 48.27 66.0778 48C66.3778 47.72 66.5278 47.31 66.5278 46.77V46.71C66.5278 46.14 66.3678 45.735 66.0478 45.495C65.7378 45.245 65.2928 45.12 64.7128 45.12H63.4828V48.405H64.7128Z" fill="black"/>
<rect x="122" y="31" width="107" height="37" rx="18.5" fill="#B9B546"/>
<path d="M140.267 49.38V48.945L146.387 45.42V47.4L143.132 49.155L146.387 50.97V52.92L140.267 49.38ZM151.879 43.275H154.309V47.655H158.614V43.275H161.044V54H158.614V49.575H154.309V54H151.879V43.275ZM165.625 45.165H162.73V43.275H170.965V45.165H168.07V54H165.625V45.165ZM172.665 43.275H175.875L178.38 49.95L180.855 43.275H184.005V54H181.59V46.47L178.62 54H177.825L174.84 46.47V54H172.665V43.275ZM186.508 43.275H188.938V52.095H193.303V54H186.508V43.275ZM201.672 42.36H203.457L198.837 56.22H197.067L201.672 42.36ZM204.621 50.925L207.861 49.17L204.621 47.355V45.405L210.741 48.945V49.38L204.621 52.905V50.925Z" fill="black"/>
<rect y="86" width="107" height="37" rx="18.5" fill="#B9B546"/>
<path d="M22.2219 104.38V103.945L28.3419 100.42V102.4L25.0869 104.155L28.3419 105.97V107.92L22.2219 104.38ZM35.9344 100.165H33.0394V98.275H41.2744V100.165H38.3794V109H35.9344V100.165ZM41.5326 101.155H43.8126L45.2076 106.435L46.7226 101.155H48.5076L49.8876 106.435L51.3726 101.155H53.4576L50.9826 109H48.8526L47.5176 104.08L46.0776 109H43.9176L41.5326 101.155ZM55.946 100.09C55.596 100.09 55.301 99.98 55.061 99.76C54.831 99.53 54.716 99.245 54.716 98.905C54.716 98.565 54.831 98.285 55.061 98.065C55.301 97.835 55.596 97.72 55.946 97.72C56.296 97.72 56.591 97.835 56.831 98.065C57.071 98.285 57.191 98.565 57.191 98.905C57.191 99.245 57.071 99.53 56.831 99.76C56.591 99.98 56.296 100.09 55.946 100.09ZM54.881 101.155H57.041V109H54.881V101.155ZM62.6955 111.895C62.0655 111.895 61.5155 111.83 61.0455 111.7C60.5755 111.57 60.1855 111.385 59.8755 111.145C59.5555 110.905 59.3055 110.615 59.1255 110.275C58.9555 109.945 58.8455 109.575 58.7955 109.165H60.9555C61.0255 109.515 61.1905 109.79 61.4505 109.99C61.7205 110.2 62.1355 110.305 62.6955 110.305C63.3555 110.305 63.8505 110.14 64.1805 109.81C64.5105 109.48 64.6755 109.005 64.6755 108.385V107.2C64.5655 107.39 64.4255 107.575 64.2555 107.755C64.0955 107.925 63.9055 108.075 63.6855 108.205C63.4655 108.345 63.2255 108.455 62.9655 108.535C62.7155 108.615 62.4455 108.655 62.1555 108.655C61.6755 108.655 61.2255 108.57 60.8055 108.4C60.3955 108.22 60.0405 107.97 59.7405 107.65C59.4305 107.33 59.1855 106.94 59.0055 106.48C58.8255 106.01 58.7355 105.485 58.7355 104.905V104.8C58.7355 104.24 58.8205 103.725 58.9905 103.255C59.1705 102.785 59.4155 102.38 59.7255 102.04C60.0355 101.71 60.4005 101.45 60.8205 101.26C61.2405 101.07 61.6955 100.975 62.1855 100.975C62.8255 100.975 63.3405 101.1 63.7305 101.35C64.1305 101.6 64.4455 101.925 64.6755 102.325V101.155H66.8355V108.385C66.8255 109.555 66.4555 110.43 65.7255 111.01C65.0055 111.6 63.9955 111.895 62.6955 111.895ZM62.8005 107.02C63.3705 107.02 63.8355 106.83 64.1955 106.45C64.5555 106.07 64.7355 105.545 64.7355 104.875V104.77C64.7355 104.1 64.5705 103.575 64.2405 103.195C63.9105 102.815 63.4455 102.625 62.8455 102.625C62.2355 102.625 61.7655 102.825 61.4355 103.225C61.1155 103.615 60.9555 104.135 60.9555 104.785V104.905C60.9555 105.565 61.1255 106.085 61.4655 106.465C61.8155 106.835 62.2605 107.02 62.8005 107.02ZM75.7173 97.36H77.5023L72.8823 111.22H71.1123L75.7173 97.36ZM78.6658 105.925L81.9058 104.17L78.6658 102.355V100.405L84.7858 103.945V104.38L78.6658 107.905V105.925Z" fill="black"/>
<rect x="122" y="86" width="107" height="37" rx="18.5" fill="#B9B546"/>
<path d="M140.97 104.38V103.945L147.09 100.42V102.4L143.835 104.155L147.09 105.97V107.92L140.97 104.38ZM152.582 98.275H156.797C157.977 98.275 158.862 98.51 159.452 98.98C160.052 99.45 160.352 100.145 160.352 101.065V101.125C160.352 101.695 160.212 102.18 159.932 102.58C159.652 102.97 159.212 103.25 158.612 103.42C159.312 103.56 159.842 103.835 160.202 104.245C160.572 104.655 160.757 105.22 160.757 105.94V106C160.757 106.99 160.442 107.74 159.812 108.25C159.182 108.75 158.242 109 156.992 109H152.582V98.275ZM156.617 107.32C157.217 107.32 157.657 107.19 157.937 106.93C158.217 106.67 158.357 106.295 158.357 105.805V105.745C158.357 105.245 158.212 104.87 157.922 104.62C157.632 104.37 157.157 104.245 156.497 104.245H154.952V107.32H156.617ZM156.407 102.685C156.997 102.685 157.417 102.575 157.667 102.355C157.917 102.135 158.042 101.785 158.042 101.305V101.245C158.042 100.795 157.907 100.465 157.637 100.255C157.377 100.045 156.962 99.94 156.392 99.94H154.952V102.685H156.407ZM162.511 97.6H164.671V109H162.511V97.6ZM168.946 109.165C168.586 109.165 168.246 109.12 167.926 109.03C167.616 108.94 167.341 108.8 167.101 108.61C166.861 108.42 166.671 108.18 166.531 107.89C166.391 107.59 166.321 107.235 166.321 106.825C166.321 106.365 166.421 105.975 166.621 105.655C166.821 105.335 167.101 105.075 167.461 104.875C167.821 104.675 168.251 104.53 168.751 104.44C169.251 104.35 169.801 104.305 170.401 104.305H171.286V103.99C171.286 103.52 171.196 103.165 171.016 102.925C170.846 102.675 170.511 102.55 170.011 102.55C169.581 102.55 169.261 102.65 169.051 102.85C168.851 103.05 168.726 103.32 168.676 103.66H166.621C166.651 103.2 166.761 102.8 166.951 102.46C167.151 102.12 167.406 101.84 167.716 101.62C168.026 101.4 168.386 101.24 168.796 101.14C169.216 101.03 169.666 100.975 170.146 100.975C170.626 100.975 171.066 101.03 171.466 101.14C171.866 101.24 172.216 101.405 172.516 101.635C172.806 101.865 173.031 102.165 173.191 102.535C173.351 102.905 173.431 103.355 173.431 103.885V109H171.316V108.055C171.086 108.375 170.786 108.64 170.416 108.85C170.056 109.06 169.566 109.165 168.946 109.165ZM169.591 107.65C170.071 107.65 170.471 107.53 170.791 107.29C171.121 107.04 171.286 106.695 171.286 106.255V105.595H170.446C169.816 105.595 169.326 105.675 168.976 105.835C168.626 105.995 168.451 106.285 168.451 106.705C168.451 106.995 168.541 107.225 168.721 107.395C168.901 107.565 169.191 107.65 169.591 107.65ZM178.413 109.165C177.933 109.165 177.488 109.08 177.078 108.91C176.668 108.74 176.308 108.485 175.998 108.145C175.688 107.815 175.443 107.405 175.263 106.915C175.093 106.415 175.008 105.84 175.008 105.19V105.07C175.008 104.43 175.093 103.855 175.263 103.345C175.443 102.835 175.688 102.405 175.998 102.055C176.308 101.705 176.673 101.44 177.093 101.26C177.513 101.07 177.968 100.975 178.458 100.975C179.088 100.975 179.603 101.1 180.003 101.35C180.403 101.6 180.713 101.925 180.933 102.325V97.6H183.093V109H180.933V107.695C180.733 108.095 180.408 108.44 179.958 108.73C179.508 109.02 178.993 109.165 178.413 109.165ZM179.058 107.47C179.628 107.47 180.093 107.28 180.453 106.9C180.813 106.51 180.993 105.915 180.993 105.115V104.995C180.993 104.215 180.828 103.63 180.498 103.24C180.178 102.84 179.718 102.64 179.118 102.64C178.508 102.64 178.038 102.845 177.708 103.255C177.388 103.655 177.228 104.245 177.228 105.025V105.145C177.228 105.925 177.398 106.51 177.738 106.9C178.078 107.28 178.518 107.47 179.058 107.47ZM188.83 109.165C188.24 109.165 187.695 109.075 187.195 108.895C186.695 108.715 186.265 108.45 185.905 108.1C185.535 107.76 185.245 107.345 185.035 106.855C184.835 106.365 184.735 105.805 184.735 105.175V105.055C184.735 104.435 184.835 103.875 185.035 103.375C185.245 102.875 185.535 102.445 185.905 102.085C186.265 101.735 186.69 101.465 187.18 101.275C187.67 101.075 188.2 100.975 188.77 100.975C189.28 100.975 189.765 101.055 190.225 101.215C190.685 101.365 191.09 101.6 191.44 101.92C191.79 102.24 192.07 102.655 192.28 103.165C192.49 103.665 192.595 104.265 192.595 104.965V105.565H186.94C186.97 106.225 187.15 106.735 187.48 107.095C187.82 107.445 188.29 107.62 188.89 107.62C189.4 107.62 189.78 107.52 190.03 107.32C190.29 107.12 190.455 106.855 190.525 106.525H192.58C192.45 107.375 192.06 108.03 191.41 108.49C190.77 108.94 189.91 109.165 188.83 109.165ZM190.48 104.23C190.44 103.63 190.275 103.19 189.985 102.91C189.695 102.62 189.29 102.475 188.77 102.475C188.28 102.475 187.875 102.63 187.555 102.94C187.245 103.24 187.05 103.67 186.97 104.23H190.48ZM200.969 97.36H202.754L198.134 111.22H196.364L200.969 97.36ZM203.918 105.925L207.158 104.17L203.918 102.355V100.405L210.038 103.945V104.38L203.918 107.905V105.925Z" fill="black"/>
<path d="M747 0H780L787.182 7.07143L799 19V66H747V0Z" fill="#ECECEC"/>
<rect width="45" height="21.5192" transform="translate(758 30)" fill="#B9B546"/>
<path d="M766.986 45.2653C766.635 45.2653 766.359 45.2429 766.158 45.1981C765.964 45.1534 765.796 45.0937 765.654 45.0191V43.6315C765.789 43.6837 765.93 43.7285 766.08 43.7658C766.229 43.8031 766.423 43.8218 766.661 43.8218C767.005 43.8218 767.277 43.7285 767.478 43.542C767.687 43.348 767.792 43.0198 767.792 42.5573V37.1637H769.616V42.5797C769.616 43.4898 769.384 44.1649 768.922 44.6051C768.459 45.0452 767.814 45.2653 766.986 45.2653ZM774.167 45.2876C773.615 45.2876 773.138 45.228 772.735 45.1086C772.332 44.9818 771.996 44.8027 771.728 44.5715C771.459 44.3402 771.254 44.0642 771.112 43.7434C770.97 43.4226 770.888 43.0608 770.866 42.658H772.6C772.623 42.837 772.66 43.0086 772.712 43.1727C772.765 43.3294 772.85 43.4637 772.97 43.5756C773.089 43.6949 773.242 43.7919 773.429 43.8665C773.623 43.9337 773.869 43.9672 774.167 43.9672C774.57 43.9672 774.891 43.8702 775.129 43.6763C775.368 43.4749 775.488 43.2175 775.488 42.9042C775.488 42.7475 775.461 42.6132 775.409 42.5013C775.364 42.3894 775.286 42.2925 775.174 42.2104C775.055 42.1358 774.898 42.0724 774.704 42.0202C774.51 41.9605 774.268 41.9083 773.977 41.8635C773.462 41.7964 773.022 41.7068 772.656 41.5949C772.298 41.4756 772.004 41.3189 771.772 41.125C771.534 40.9385 771.358 40.7072 771.246 40.4312C771.142 40.1552 771.09 39.8232 771.09 39.4353C771.09 39.0921 771.157 38.7751 771.291 38.4841C771.433 38.1932 771.631 37.9395 771.884 37.7232C772.138 37.5143 772.444 37.3502 772.802 37.2308C773.16 37.1115 773.559 37.0518 773.999 37.0518C774.902 37.0518 775.607 37.2532 776.114 37.6561C776.629 38.0514 776.924 38.6482 776.998 39.4465H775.331C775.279 39.0884 775.141 38.8236 774.917 38.652C774.693 38.4729 774.387 38.3834 773.999 38.3834C773.596 38.3834 773.294 38.4692 773.093 38.6408C772.899 38.8049 772.802 39.0212 772.802 39.2898C772.802 39.4315 772.821 39.5584 772.858 39.6703C772.903 39.7747 772.981 39.8642 773.093 39.9388C773.197 40.0209 773.346 40.0918 773.54 40.1514C773.734 40.2111 773.984 40.2633 774.29 40.3081C774.775 40.3678 775.2 40.4536 775.566 40.5655C775.931 40.6699 776.237 40.8116 776.483 40.9907C776.73 41.1772 776.912 41.4122 777.032 41.6957C777.159 41.9791 777.222 42.326 777.222 42.7363C777.222 43.0944 777.151 43.4301 777.009 43.7434C776.868 44.0493 776.666 44.3141 776.405 44.5379C776.144 44.7692 775.823 44.9519 775.443 45.0862C775.062 45.2205 774.637 45.2876 774.167 45.2876ZM782.341 43.8441C782.677 43.8441 782.979 43.7807 783.247 43.6539C783.523 43.5271 783.758 43.348 783.952 43.1168C784.139 42.893 784.284 42.617 784.389 42.2887C784.493 41.9605 784.545 41.5949 784.545 41.1921V41.1026C784.545 40.7147 784.493 40.3603 784.389 40.0395C784.292 39.7188 784.15 39.4427 783.963 39.2115C783.77 38.9802 783.535 38.8012 783.259 38.6744C782.983 38.5475 782.669 38.4841 782.319 38.4841C781.968 38.4841 781.655 38.5475 781.379 38.6744C781.11 38.7937 780.879 38.9653 780.685 39.1891C780.491 39.4204 780.342 39.7001 780.237 40.0283C780.14 40.3491 780.092 40.7109 780.092 41.1138V41.2033C780.092 41.6136 780.148 41.9829 780.26 42.3111C780.372 42.6319 780.528 42.9042 780.73 43.128C780.924 43.3592 781.159 43.5383 781.435 43.6651C781.711 43.7845 782.013 43.8441 782.341 43.8441ZM782.307 45.2876C781.681 45.2876 781.114 45.1869 780.606 44.9855C780.099 44.7766 779.67 44.4894 779.32 44.1239C778.962 43.7658 778.686 43.3369 778.492 42.837C778.298 42.3372 778.201 41.7964 778.201 41.2145V41.125C778.201 40.5282 778.301 39.9799 778.503 39.48C778.712 38.9802 779.003 38.5513 779.376 38.1932C779.741 37.8351 780.174 37.5554 780.674 37.3539C781.173 37.1525 781.722 37.0518 782.319 37.0518C782.923 37.0518 783.475 37.1488 783.975 37.3427C784.482 37.5367 784.918 37.809 785.284 38.1596C785.642 38.5177 785.922 38.9429 786.123 39.4353C786.332 39.9276 786.436 40.4759 786.436 41.0802V41.1697C786.436 41.7665 786.336 42.3186 786.134 42.8258C785.94 43.3257 785.664 43.7583 785.306 44.1239C784.948 44.4894 784.516 44.7766 784.008 44.9855C783.501 45.1869 782.934 45.2876 782.307 45.2876ZM787.881 37.1637H789.985L793.029 42.4342V37.1637H794.64V45.1646H792.827L789.493 39.4688V45.1646H787.881V37.1637Z" fill="white"/>
<path d="M780 19V0L799 19H780Z" fill="#C4C4C4"/>
<path d="M703 88H736L743.182 95.0714L755 107V154H703V88Z" fill="#ECECEC"/>
<rect width="45" height="21.5192" transform="translate(714 118)" fill="#B9B546"/>
<path d="M724.031 129.718L721.39 125.164H723.382L725.004 128.23L726.593 125.164H728.35L725.855 129.718V133.165H724.031V129.718ZM730.6 125.164H732.961L735.557 133.165H733.666L733.118 131.385H730.22L729.671 133.165H727.97L730.6 125.164ZM730.611 130.098H732.726L731.674 126.641L730.611 130.098ZM736.793 125.164H739.187L741.056 130.143L742.903 125.164H745.252V133.165H743.451V127.547L741.235 133.165H740.642L738.415 127.547V133.165H736.793V125.164ZM747.119 125.164H748.932V131.743H752.189V133.165H747.119V125.164Z" fill="white"/>
<path d="M736 107V88L755 107H736Z" fill="#C4C4C4"/>
<path d="M659 0H692L699.182 7.07143L711 19V66H659V0Z" fill="#ECECEC"/>
<rect width="45" height="21.5192" transform="translate(670 30)" fill="#B9B546"/>
<path d="M680.169 41.0578L677.819 37.1637H679.867L681.389 39.8269L682.9 37.1637H684.757L682.474 41.0019L685.003 45.1646H682.944L681.21 42.188L679.487 45.1646H677.629L680.169 41.0578ZM686.34 37.1637H688.153V43.7434H691.409V45.1646H686.34V37.1637ZM692.788 37.1637H694.612V45.1646H692.788V37.1637ZM696.514 37.1637H701.65V38.5848H698.326V40.6997H700.956V42.0649H698.326V45.1646H696.514V37.1637ZM702.994 37.1637H708.13V38.5848H704.807V40.6997H707.436V42.0649H704.807V45.1646H702.994V37.1637Z" fill="white"/>
<path d="M692 19V0L711 19H692Z" fill="#C4C4C4"/>
<path d="M791 88H824L831.182 95.0714L843 107V154H791V88Z" fill="#ECECEC"/>
<rect width="45" height="21.5192" transform="translate(802 118)" fill="#B9B546"/>
<path d="M813.949 125.189H816.713C817.69 125.189 818.444 125.402 818.973 125.827C819.503 126.252 819.768 126.89 819.768 127.74V127.785C819.768 128.21 819.697 128.58 819.555 128.893C819.414 129.199 819.212 129.456 818.951 129.665C818.69 129.874 818.373 130.031 818 130.135C817.634 130.232 817.224 130.281 816.769 130.281H815.751V133.19H813.949V125.189ZM816.668 129.016C817.123 129.016 817.463 128.915 817.687 128.714C817.91 128.505 818.022 128.199 818.022 127.796V127.752C818.022 127.326 817.903 127.024 817.664 126.845C817.433 126.659 817.101 126.565 816.668 126.565H815.751V129.016H816.668ZM821.085 125.189H822.898V128.457H826.109V125.189H827.922V133.19H826.109V129.889H822.898V133.19H821.085V125.189ZM829.773 125.189H832.536C833.514 125.189 834.267 125.402 834.797 125.827C835.327 126.252 835.591 126.89 835.591 127.74V127.785C835.591 128.21 835.52 128.58 835.379 128.893C835.237 129.199 835.036 129.456 834.774 129.665C834.513 129.874 834.196 130.031 833.823 130.135C833.458 130.232 833.047 130.281 832.592 130.281H831.574V133.19H829.773V125.189ZM832.492 129.016C832.947 129.016 833.286 128.915 833.51 128.714C833.734 128.505 833.846 128.199 833.846 127.796V127.752C833.846 127.326 833.726 127.024 833.488 126.845C833.256 126.659 832.924 126.565 832.492 126.565H831.574V129.016H832.492Z" fill="white"/>
<path d="M824 107V88L843 107H824Z" fill="#C4C4C4"/>
<path d="M615 35H545.329C510.347 35 476.926 49.4794 453 75V75C429.074 100.521 395.653 115 360.671 115H280" stroke="#909090"/>
<path d="M280 35H349.671C384.653 35 418.074 49.4794 442 75V75C465.926 100.521 499.347 115 534.329 115H615" stroke="#909090"/>
<path d="M609.949 110L614.899 114.95L609.949 119.899" stroke="#909090"/>
<path d="M609.949 30L614.899 34.9497L609.949 39.8995" stroke="#909090"/>
</svg>
