<svg width="562" height="190" viewBox="0 0 562 190" fill="none" xmlns="http://www.w3.org/2000/svg">
<path fill-rule="evenodd" clip-rule="evenodd" d="M137.694 37.8494H164.554L96.7318 154.724L28.4629 37.8494H55.9337L96.7318 108.21L137.694 37.8494Z" fill="#41B883"/>
<path fill-rule="evenodd" clip-rule="evenodd" d="M112.312 37.8254H137.858L96.6981 108.333L55.8682 37.8254H81.0149L96.6981 64.9697L112.312 37.8254Z" fill="#35495E"/>
<path d="M192.477 67.8182H182.989L203.926 126H214.068L235.006 67.8182H225.517L209.324 115.205H208.67L192.477 67.8182ZM270.368 107.903C270.396 115.318 264.885 118.841 260.112 118.841C254.857 118.841 251.22 115.034 251.22 109.097V82.3636H242.726V110.119C242.726 120.943 248.663 126.568 257.044 126.568C263.607 126.568 268.067 123.102 270.084 118.443H270.538V126H278.891V82.3636H270.368V107.903ZM309.111 126.881C318.628 126.881 325.361 122.193 327.293 115.091L319.253 113.642C317.719 117.761 314.026 119.864 309.196 119.864C301.923 119.864 297.037 115.148 296.81 106.739H327.832V103.727C327.832 87.9602 318.401 81.7955 308.514 81.7955C296.355 81.7955 288.344 91.0568 288.344 104.466C288.344 118.017 296.241 126.881 309.111 126.881ZM296.838 100.375C297.179 94.1818 301.668 88.8125 308.571 88.8125C315.162 88.8125 319.48 93.6989 319.509 100.375H296.838ZM358.429 126H366.923V82.3636H358.429V126ZM362.719 75.6307C365.645 75.6307 368.088 73.358 368.088 70.5739C368.088 67.7898 365.645 65.4886 362.719 65.4886C359.764 65.4886 357.349 67.7898 357.349 70.5739C357.349 73.358 359.764 75.6307 362.719 75.6307ZM400.311 67.8182H391.76L377.243 77.3068V85.7159L391.163 76.625H391.504V126H400.311V67.8182ZM435.709 126.795C447.811 126.795 456.362 119.92 456.419 110.489C456.362 103.159 451.22 96.9943 444.714 95.8295V95.4886C450.368 94.125 454.203 88.8125 454.26 82.5341C454.203 73.642 446.362 67.0227 435.709 67.0227C424.942 67.0227 417.101 73.642 417.158 82.5341C417.101 88.7841 420.936 94.125 426.703 95.4886V95.8295C420.084 96.9943 414.942 103.159 414.999 110.489C414.942 119.92 423.493 126.795 435.709 126.795ZM435.709 119.608C428.436 119.608 423.834 115.744 423.891 109.92C423.834 103.869 428.834 99.5511 435.709 99.5511C442.47 99.5511 447.47 103.869 447.527 109.92C447.47 115.744 442.896 119.608 435.709 119.608ZM435.709 92.5341C429.828 92.5341 425.652 88.8125 425.709 83.2727C425.652 77.8182 429.686 74.2102 435.709 74.2102C441.618 74.2102 445.652 77.8182 445.709 83.2727C445.652 88.8125 441.504 92.5341 435.709 92.5341ZM475.205 100.091C475.205 93.1307 479.466 89.1534 485.375 89.1534C491.142 89.1534 494.636 92.9318 494.636 99.267V126H503.131V98.2443C503.131 87.4489 497.193 81.7955 488.273 81.7955C481.71 81.7955 477.42 84.8352 475.403 89.4659H474.864V82.3636H466.71V126H475.205V100.091Z" fill="#909090"/>
</svg>
